<svg width="52" height="52" viewBox="0 0 52 52" fill="none" xmlns="http://www.w3.org/2000/svg">
<rect x="0.5" y="0.5" width="51" height="51" rx="5.5" fill="#39B939" fill-opacity="0.06"/>
<rect x="0.5" y="0.5" width="51" height="51" rx="5.5" stroke="#C4EAC4"/>
<path d="M15.5 29C15.075 29 14.719 28.856 14.432 28.568C14.145 28.28 14.001 27.924 14 27.5C13.999 27.076 14.143 26.72 14.432 26.432C14.721 26.144 15.077 26 15.5 26H36.5C36.925 26 37.2815 26.144 37.5695 26.432C37.8575 26.72 38.001 27.076 38 27.5C37.999 27.924 37.855 28.2805 37.568 28.5695C37.281 28.8585 36.925 29.002 36.5 29H15.5ZM15.5 24.5C15.075 24.5 14.719 24.356 14.432 24.068C14.145 23.78 14.001 23.424 14 23C13.999 22.576 14.143 22.22 14.432 21.932C14.721 21.644 15.077 21.5 15.5 21.5H36.5C36.925 21.5 37.2815 21.644 37.5695 21.932C37.8575 22.22 38.001 22.576 38 23C37.999 23.424 37.855 23.7805 37.568 24.0695C37.281 24.3585 36.925 24.502 36.5 24.5H15.5ZM26 41C25.575 41 25.219 40.856 24.932 40.568C24.645 40.28 24.501 39.924 24.5 39.5V36.2L23.15 37.55C22.875 37.825 22.525 37.9625 22.1 37.9625C21.675 37.9625 21.325 37.825 21.05 37.55C20.775 37.275 20.6375 36.925 20.6375 36.5C20.6375 36.075 20.775 35.725 21.05 35.45L24.95 31.55C25.1 31.4 25.2625 31.294 25.4375 31.232C25.6125 31.17 25.8 31.1385 26 31.1375C26.2 31.1365 26.3875 31.168 26.5625 31.232C26.7375 31.296 26.9 31.402 27.05 31.55L30.95 35.45C31.225 35.725 31.3685 36.069 31.3805 36.482C31.3925 36.895 31.249 37.251 30.95 37.55C30.675 37.825 30.3315 37.969 29.9195 37.982C29.5075 37.995 29.151 37.8635 28.85 37.5875L27.5 36.275V39.5C27.5 39.925 27.356 40.2815 27.068 40.5695C26.78 40.8575 26.424 41.001 26 41ZM26 19.3625C25.8 19.3625 25.6125 19.331 25.4375 19.268C25.2625 19.205 25.1 19.099 24.95 18.95L21.05 15.05C20.775 14.775 20.6375 14.425 20.6375 14C20.6375 13.575 20.775 13.225 21.05 12.95C21.325 12.675 21.675 12.5375 22.1 12.5375C22.525 12.5375 22.875 12.675 23.15 12.95L24.5 14.3V11C24.5 10.575 24.644 10.219 24.932 9.93201C25.22 9.64501 25.576 9.50101 26 9.50001C26.424 9.49901 26.7805 9.64301 27.0695 9.93201C27.3585 10.221 27.502 10.577 27.5 11V14.3L28.85 12.95C29.125 12.675 29.475 12.5375 29.9 12.5375C30.325 12.5375 30.675 12.675 30.95 12.95C31.225 13.225 31.3625 13.575 31.3625 14C31.3625 14.425 31.225 14.775 30.95 15.05L27.05 18.95C26.9 19.1 26.7375 19.2065 26.5625 19.2695C26.3875 19.3325 26.2 19.3635 26 19.3625Z" fill="#308F00"/>
</svg>
