<svg width="50" height="50" viewBox="0 0 50 50" fill="none" xmlns="http://www.w3.org/2000/svg">
<path d="M0 12C0 5.37258 5.37258 0 12 0H38C44.6274 0 50 5.37258 50 12V38C50 44.6274 44.6274 50 38 50H12C5.37258 50 0 44.6274 0 38V12Z" fill="#1B95F8" fill-opacity="0.1"/>
<path d="M12 1H38C44.0751 1 49 5.92487 49 12V38C49 44.0751 44.0751 49 38 49H12C5.92487 49 1 44.0751 1 38V12L1.01465 11.4336C1.30945 5.6217 6.11484 1 12 1Z" stroke="#1B95F8" stroke-opacity="0.3" stroke-width="2"/>
<path d="M17.5 38.5C16.7044 38.5 15.9413 38.1839 15.3787 37.6213C14.8161 37.0587 14.5 36.2956 14.5 35.5V11.5H28L35.5 19V35.5C35.5 36.2956 35.1839 37.0587 34.6213 37.6213C34.0587 38.1839 33.2956 38.5 32.5 38.5H17.5Z" stroke="#1B95F8" stroke-width="2" stroke-linecap="round" stroke-linejoin="round"/>
<path d="M26.5 11.5V20.5H35.5" stroke="#1B95F8" stroke-width="2" stroke-linejoin="round"/>
<path d="M23.5 34C24.3284 34 25 33.3284 25 32.5C25 31.6716 24.3284 31 23.5 31C22.6716 31 22 31.6716 22 32.5C22 33.3284 22.6716 34 23.5 34Z" stroke="#1B95F8" stroke-width="2"/>
<path d="M25 32.5V25L28 28" stroke="#1B95F8" stroke-width="2" stroke-linecap="round" stroke-linejoin="round"/>
</svg>
