<svg width="50" height="50" viewBox="0 0 50 50" fill="none" xmlns="http://www.w3.org/2000/svg">
<rect width="50" height="50" rx="8" fill="#39B939" fill-opacity="0.06"/>
<rect x="0.5" y="0.5" width="49" height="49" rx="7.5" stroke="#39B939" stroke-opacity="0.5"/>
<path d="M23.0002 23.0002L13.0015 13.0016M11.0018 16.0012L16.0011 11.0018L10.0019 8.00223L8.00219 10.002L11.0018 16.0012ZM40.9478 18.9508C41.9079 17.9915 42.5684 16.7739 42.8489 15.446C43.1294 14.1181 43.0178 12.7373 42.5276 11.4718L39.684 14.3154H35.6845V10.3159L38.5281 7.4723C37.2625 6.98105 35.8813 6.86851 34.5528 7.14838C33.2243 7.42825 32.0059 8.08846 31.046 9.04858C30.0861 10.0087 29.4261 11.2273 29.1465 12.5558C28.867 13.8844 28.9798 15.2656 29.4713 16.5311L16.5331 29.4714C15.2675 28.9799 13.8863 28.867 12.5578 29.1466C11.2292 29.4262 10.0106 30.0861 9.05053 31.046C8.09042 32.0059 7.43021 33.2243 7.15033 34.5528C6.87046 35.8813 6.983 37.2625 7.47426 38.5282L10.3159 35.6846H14.3153V39.684L11.4717 42.5277C12.7371 43.0189 14.118 43.1316 15.4462 42.8521C16.7745 42.5725 17.9928 41.9128 18.9528 40.9532C19.9128 39.9936 20.5731 38.7756 20.8532 37.4475C21.1333 36.1194 21.0212 34.7384 20.5305 33.4729L33.4728 20.5306C34.7379 21.0199 36.1178 21.131 37.4449 20.8506C38.7719 20.5701 39.9889 19.9101 40.9478 18.9508Z" stroke="#308F00" stroke-width="2" stroke-linecap="round" stroke-linejoin="round"/>
<path d="M24.5938 29.999L35.8003 41.2055C36.051 41.4568 36.3488 41.6561 36.6767 41.7921C37.0046 41.9281 37.3561 41.9981 37.711 41.9981C38.066 41.9981 38.4174 41.9281 38.7453 41.7921C39.0732 41.6561 39.371 41.4568 39.6218 41.2055L41.2055 39.6218C41.4568 39.371 41.6561 39.0732 41.7921 38.7453C41.9281 38.4174 41.9981 38.066 41.9981 37.711C41.9981 37.3561 41.9281 37.0046 41.7921 36.6767C41.6561 36.3488 41.4568 36.051 41.2055 35.8003L29.999 24.5938" stroke="#308F00" stroke-width="2" stroke-linecap="round" stroke-linejoin="round"/>
</svg>
