<svg width="50" height="50" viewBox="0 0 50 50" fill="none" xmlns="http://www.w3.org/2000/svg">
<rect width="50" height="50" rx="8" fill="#39B939" fill-opacity="0.06"/>
<rect x="0.5" y="0.5" width="49" height="49" rx="7.5" stroke="#39B939" stroke-opacity="0.5"/>
<path d="M35.5 22.75V22C35.5 16.3435 35.5 13.5145 33.742 11.758C31.984 10.0015 29.1565 10 23.5 10C17.8435 10 15.0145 10 13.258 11.758C11.5015 13.516 11.5 16.3435 11.5 22V31C11.5 33.796 11.5 35.194 11.956 36.295C12.2575 37.023 12.6995 37.6846 13.2567 38.2418C13.8139 38.799 14.4755 39.241 15.2035 39.5425C16.306 40 17.704 40 20.5 40M17.5 17.5H29.5M17.5 23.5H23.5" stroke="#308F00" stroke-width="2" stroke-linecap="round" stroke-linejoin="round"/>
<path d="M29.9245 35.5057C29.8345 34.1737 29.677 32.7487 29.023 31.1377C28.4635 29.7637 28.6195 26.5312 31.75 26.5312C34.8805 26.5312 34.999 29.7637 34.441 31.1362C33.787 32.7487 33.664 34.1737 33.577 35.5057M38.5 39.9998H25V38.1307C25 37.4617 25.399 36.8722 25.9795 36.6892L29.362 35.6152C29.604 35.5382 29.851 35.4998 30.103 35.4998H33.397C33.649 35.4998 33.896 35.5382 34.138 35.6152L37.5205 36.6892C38.101 36.8722 38.5 37.4617 38.5 38.1307V39.9998Z" stroke="#308F00" stroke-width="2" stroke-linecap="round" stroke-linejoin="round"/>
</svg>
