<svg width="50" height="50" viewBox="0 0 50 50" fill="none" xmlns="http://www.w3.org/2000/svg">
<rect width="50" height="50" rx="8" fill="#39B939" fill-opacity="0.06"/>
<rect x="0.5" y="0.5" width="49" height="49" rx="7.5" stroke="#39B939" stroke-opacity="0.5"/>
<path d="M20.5 31.7505C20.5 31.7505 21.2515 28.0005 22 28.0005C22.7485 28.0005 23.605 31.7505 24.25 31.7505C24.895 31.7505 25.0525 30.2505 25.75 30.2505C26.4475 30.2505 26.596 31.7505 27.25 31.7505C27.904 31.7505 29.5 30.2505 29.5 30.2505M20.5 17.5605H29.5M20.5 20.8755H29.5M20.5 24.2505H29.5" stroke="#308F00" stroke-linecap="round" stroke-linejoin="round"/>
<path d="M31 13.75H19C17.7574 13.75 16.75 14.7574 16.75 16V34C16.75 35.2426 17.7574 36.25 19 36.25H31C32.2426 36.25 33.25 35.2426 33.25 34V16C33.25 14.7574 32.2426 13.75 31 13.75Z" stroke="#308F00"/>
</svg>
