<svg width="50" height="50" viewBox="0 0 50 50" fill="none" xmlns="http://www.w3.org/2000/svg">
<rect width="50" height="50" rx="8" fill="#F7AD19" fill-opacity="0.06"/>
<rect x="0.5" y="0.5" width="49" height="49" rx="7.5" stroke="#F7AD19" stroke-opacity="0.5"/>
<path d="M17.8016 10.6001C16.8468 10.6001 15.9311 10.9794 15.256 11.6545C14.5808 12.3296 14.2016 13.2453 14.2016 14.2001V26.8001H16.0016V14.2001C16.0016 13.7227 16.1912 13.2649 16.5288 12.9273C16.8663 12.5897 17.3242 12.4001 17.8016 12.4001H25.0016V18.7001C25.0016 19.4162 25.286 20.1029 25.7924 20.6093C26.2987 21.1156 26.9855 21.4001 27.7016 21.4001H34.0016V35.8001C34.0016 36.2775 33.8119 36.7353 33.4744 37.0729C33.1368 37.4105 32.679 37.6001 32.2016 37.6001H17.8016C17.3242 37.6001 16.8663 37.4105 16.5288 37.0729C16.1912 36.7353 16.0016 36.2775 16.0016 35.8001V32.2001H14.2016V35.8001C14.2016 36.7549 14.5808 37.6705 15.256 38.3457C15.9311 39.0208 16.8468 39.4001 17.8016 39.4001H32.2016C33.1563 39.4001 34.072 39.0208 34.7471 38.3457C35.4223 37.6705 35.8016 36.7549 35.8016 35.8001V20.3453C35.8009 19.6295 35.5161 18.9432 35.0096 18.4373L27.9644 11.3903C27.4582 10.8845 26.7719 10.6003 26.0564 10.6001H17.8016ZM33.629 19.6001H27.7016C27.4629 19.6001 27.2339 19.5053 27.0652 19.3365C26.8964 19.1677 26.8016 18.9388 26.8016 18.7001V12.7727L33.629 19.6001ZM18.7016 25.0001C18.4629 25.0001 18.2339 25.0949 18.0652 25.2637C17.8964 25.4325 17.8016 25.6614 17.8016 25.9001C17.8016 26.1388 17.8964 26.3677 18.0652 26.5365C18.2339 26.7053 18.4629 26.8001 18.7016 26.8001H31.3016C31.5403 26.8001 31.7692 26.7053 31.938 26.5365C32.1067 26.3677 32.2016 26.1388 32.2016 25.9001C32.2016 25.6614 32.1067 25.4325 31.938 25.2637C31.7692 25.0949 31.5403 25.0001 31.3016 25.0001H18.7016ZM11.5016 28.6001C11.2629 28.6001 11.0339 28.6949 10.8652 28.8637C10.6964 29.0325 10.6016 29.2614 10.6016 29.5001C10.6016 29.7388 10.6964 29.9677 10.8652 30.1365C11.0339 30.3053 11.2629 30.4001 11.5016 30.4001H24.1016C24.3403 30.4001 24.5692 30.3053 24.738 30.1365C24.9067 29.9677 25.0016 29.7388 25.0016 29.5001C25.0016 29.2614 24.9067 29.0325 24.738 28.8637C24.5692 28.6949 24.3403 28.6001 24.1016 28.6001H11.5016ZM18.7016 32.2001C18.4629 32.2001 18.2339 32.2949 18.0652 32.4637C17.8964 32.6325 17.8016 32.8614 17.8016 33.1001C17.8016 33.3388 17.8964 33.5677 18.0652 33.7365C18.2339 33.9053 18.4629 34.0001 18.7016 34.0001H31.3016C31.5403 34.0001 31.7692 33.9053 31.938 33.7365C32.1067 33.5677 32.2016 33.3388 32.2016 33.1001C32.2016 32.8614 32.1067 32.6325 31.938 32.4637C31.7692 32.2949 31.5403 32.2001 31.3016 32.2001H18.7016Z" fill="#FF8000"/>
</svg>
