<svg width="50" height="50" viewBox="0 0 50 50" fill="none" xmlns="http://www.w3.org/2000/svg">
<rect width="50" height="50" rx="8" fill="#39B939" fill-opacity="0.06"/>
<rect x="0.5" y="0.5" width="49" height="49" rx="7.5" stroke="#39B939" stroke-opacity="0.5"/>
<path d="M15.356 10.5366C15.356 10.2808 15.2544 10.0355 15.0736 9.8547C14.8928 9.67386 14.6475 9.57227 14.3917 9.57227C14.136 9.57227 13.8907 9.67386 13.7099 9.8547C13.529 10.0355 13.4275 10.2808 13.4275 10.5366V13.4294H10.5346C10.2789 13.4294 10.0336 13.531 9.85275 13.7118C9.67191 13.8927 9.57031 14.1379 9.57031 14.3937C9.57031 14.6494 9.67191 14.8947 9.85275 15.0755C10.0336 15.2564 10.2789 15.358 10.5346 15.358H14.3917C14.6475 15.358 14.8928 15.2564 15.0736 15.0755C15.2544 14.8947 15.356 14.6494 15.356 14.3937V10.5366ZM36.5703 10.5366C36.5703 10.2808 36.4687 10.0355 36.2879 9.8547C36.107 9.67386 35.8618 9.57227 35.606 9.57227C35.3503 9.57227 35.105 9.67386 34.9242 9.8547C34.7433 10.0355 34.6417 10.2808 34.6417 10.5366V14.3937C34.6417 14.926 35.0737 15.358 35.606 15.358H39.4632C39.7189 15.358 39.9642 15.2564 40.145 15.0755C40.3259 14.8947 40.4275 14.6494 40.4275 14.3937C40.4275 14.1379 40.3259 13.8927 40.145 13.7118C39.9642 13.531 39.7189 13.4294 39.4632 13.4294H36.5703V10.5366ZM19.2132 15.358C18.7017 15.358 18.2111 15.5612 17.8495 15.9228C17.4878 16.2845 17.2846 16.7751 17.2846 17.2866V32.7151C17.2846 33.2266 17.4878 33.7171 17.8495 34.0788C18.2111 34.4405 18.7017 34.6437 19.2132 34.6437H30.7846C31.2961 34.6437 31.7866 34.4405 32.1483 34.0788C32.51 33.7171 32.7132 33.2266 32.7132 32.7151V17.2866C32.7132 16.7751 32.51 16.2845 32.1483 15.9228C31.7866 15.5612 31.2961 15.358 30.7846 15.358H19.2132ZM19.2132 17.2866H30.7846V32.7151H19.2132V17.2866ZM14.3917 40.4294C14.6475 40.4294 14.8928 40.3278 15.0736 40.147C15.2544 39.9661 15.356 39.7209 15.356 39.4651V35.608C15.356 35.3522 15.2544 35.107 15.0736 34.9261C14.8928 34.7453 14.6475 34.6437 14.3917 34.6437H10.5346C10.2789 34.6437 10.0336 34.7453 9.85275 34.9261C9.67191 35.107 9.57031 35.3522 9.57031 35.608C9.57031 35.8637 9.67191 36.109 9.85275 36.2898C10.0336 36.4707 10.2789 36.5723 10.5346 36.5723H13.4275V39.4651C13.4275 39.9974 13.8595 40.4294 14.3917 40.4294ZM35.606 40.4294C35.8618 40.4294 36.107 40.3278 36.2879 40.147C36.4687 39.9661 36.5703 39.7209 36.5703 39.4651V36.5723H39.4632C39.7189 36.5723 39.9642 36.4707 40.145 36.2898C40.3259 36.109 40.4275 35.8637 40.4275 35.608C40.4275 35.3522 40.3259 35.107 40.145 34.9261C39.9642 34.7453 39.7189 34.6437 39.4632 34.6437H35.606C35.3503 34.6437 35.105 34.7453 34.9242 34.9261C34.7433 35.107 34.6417 35.3522 34.6417 35.608V39.4651C34.6417 39.9974 35.0737 40.4294 35.606 40.4294ZM22.106 21.1437C21.8503 21.1437 21.605 21.2453 21.4242 21.4261C21.2433 21.607 21.1417 21.8522 21.1417 22.108C21.1417 22.3637 21.2433 22.609 21.4242 22.7898C21.605 22.9707 21.8503 23.0723 22.106 23.0723H27.8917C28.1475 23.0723 28.3928 22.9707 28.5736 22.7898C28.7544 22.609 28.856 22.3637 28.856 22.108C28.856 21.8522 28.7544 21.607 28.5736 21.4261C28.3928 21.2453 28.1475 21.1437 27.8917 21.1437H22.106ZM22.106 25.0008C21.8503 25.0008 21.605 25.1024 21.4242 25.2833C21.2433 25.4641 21.1417 25.7094 21.1417 25.9651C21.1417 26.2209 21.2433 26.4661 21.4242 26.647C21.605 26.8278 21.8503 26.9294 22.106 26.9294H25.3203C25.5761 26.9294 25.8213 26.8278 26.0022 26.647C26.183 26.4661 26.2846 26.2209 26.2846 25.9651C26.2846 25.7094 26.183 25.4641 26.0022 25.2833C25.8213 25.1024 25.5761 25.0008 25.3203 25.0008H22.106Z" fill="#308F00"/>
</svg>
