<svg width="50" height="50" viewBox="0 0 50 50" fill="none" xmlns="http://www.w3.org/2000/svg">
<rect width="50" height="50" rx="8" fill="#F7AD19" fill-opacity="0.06"/>
<rect x="0.5" y="0.5" width="49" height="49" rx="7.5" stroke="#F7AD19" stroke-opacity="0.5"/>
<path d="M25 38.5C23.125 38.5 21.369 38.144 19.732 37.432C18.095 36.72 16.67 35.7575 15.457 34.5445C14.244 33.3315 13.2815 31.9065 12.5695 30.2695C11.8575 28.6325 11.501 26.876 11.5 25C11.499 23.124 11.8555 21.368 12.5695 19.732C13.2835 18.096 14.2455 16.671 15.4555 15.457C16.6655 14.243 18.0905 13.2805 19.7305 12.5695C21.3705 11.8585 23.127 11.502 25 11.5V14.5C22.075 14.5 19.594 15.519 17.557 17.557C15.52 19.595 14.501 22.076 14.5 25C14.499 27.924 15.518 30.4055 17.557 32.4445C19.596 34.4835 22.077 35.502 25 35.5V38.5ZM31 32.5L28.9 30.3625L32.7625 26.5H20.5V23.5H32.7625L28.9 19.6L31 17.5L38.5 25L31 32.5Z" fill="#FF8000"/>
</svg>
