<svg width="44" height="44" viewBox="0 0 44 44" fill="none" xmlns="http://www.w3.org/2000/svg">
<path d="M7.74191 40.3235V33.8152C7.74191 31.485 7.13141 30.2732 5.93241 28.2473C4.47075 25.7726 3.68967 22.9553 3.66841 20.0812C3.64716 17.2071 4.38649 14.3785 5.8114 11.8824C7.2363 9.3863 9.29608 7.31151 11.7818 5.86851C14.2674 4.42551 17.0906 3.66564 19.9647 3.66602C24.2861 3.6665 28.4303 5.3831 31.4863 8.43839C34.5422 11.4937 36.2598 15.6375 36.2612 19.9588C36.2612 21.0222 36.2612 21.5538 36.3052 21.8508C36.4116 22.5622 36.7452 23.1745 37.0697 23.8089L40.3349 30.1412L37.7682 31.4245C37.0257 31.7949 36.6536 31.98 36.3951 32.3229C36.1366 32.6657 36.0632 33.0543 35.9184 33.8262L35.9037 33.9032C35.5682 35.6778 35.1997 37.6358 34.1621 38.8715C33.7954 39.306 33.3407 39.6599 32.8292 39.911C31.9841 40.3235 30.9446 40.3235 28.8656 40.3235C27.9031 40.3235 26.9387 40.3455 25.9762 40.3235C23.6974 40.2667 22.0016 38.349 22.0016 36.1252" stroke="#FEAD66" stroke-width="1.8" stroke-linecap="round" stroke-linejoin="round"/>
<path d="M26.3789 19.3082C25.5979 19.3082 24.8847 19.0112 24.3439 18.5254M26.3789 19.3082C26.3789 21.4092 25.1616 23.4039 22.8186 23.4039C20.4756 23.4039 19.2582 25.3986 19.2582 27.4996M26.3789 19.3082C30.3206 19.3082 30.3206 13.1647 26.3789 13.1647C26.0196 13.1659 25.6792 13.224 25.3577 13.3389C25.5502 8.75922 18.9484 7.51622 17.4524 11.8062M17.4524 11.8062C18.5432 12.5414 19.2582 13.7917 19.2582 15.2107M17.4524 11.8062C14.0571 9.51455 9.53242 13.6267 11.6847 17.2934C8.07308 17.8342 8.45808 23.4039 12.1376 23.4039C12.6282 23.4037 13.1115 23.2849 13.5462 23.0576C13.981 22.8303 14.3544 22.5013 14.6346 22.0986" stroke="#FEAD66" stroke-width="1.8" stroke-linecap="round" stroke-linejoin="round"/>
</svg>
