<svg width="40" height="29" viewBox="0 0 40 29" fill="none" xmlns="http://www.w3.org/2000/svg">
<path d="M1.375 18.8012C1.375 19.8846 1.58839 20.9574 2.00299 21.9583C2.4176 22.9593 3.02529 23.8687 3.79137 24.6348C5.33854 26.182 7.43697 27.0512 9.625 27.0512H31.625C33.2493 27.0541 34.8142 26.4409 36.0041 25.3354C37.1941 24.2298 37.9205 22.7141 38.0368 21.094C38.1531 19.4739 37.6506 17.87 36.6308 16.6058C35.611 15.3416 34.1497 14.5111 32.5417 14.282C32.5596 11.1631 31.441 8.14439 29.3951 5.7902C27.3491 3.43601 24.5159 1.90747 21.4249 1.49033C18.334 1.07318 15.1969 1.79598 12.6001 3.5236C10.0033 5.25123 8.12452 7.86543 7.315 10.8775C5.60075 11.3775 4.09499 12.4202 3.0239 13.849C1.95281 15.2778 1.37421 17.0155 1.375 18.8012Z" stroke="#DA77FF" stroke-width="2.75" stroke-linejoin="round"/>
</svg>
