<svg width="26" height="33" viewBox="0 0 26 33" fill="none" xmlns="http://www.w3.org/2000/svg">
<path d="M2.96267 33C2.14133 33 1.44222 32.7116 0.865334 32.1347C0.288445 31.5578 0 30.8593 0 30.0392V13.9608C0 13.1419 0.288445 12.4434 0.865334 11.8653C1.44222 11.2884 2.14133 11 2.96267 11H5.5V7.33333C5.5 5.291 6.21194 3.5585 7.63583 2.13583C9.0585 0.711944 10.791 0 12.8333 0C14.8757 0 16.6088 0.711944 18.0327 2.13583C19.4566 3.55972 20.1679 5.29222 20.1667 7.33333V11H22.7058C23.5247 11 24.2232 11.2884 24.8013 11.8653C25.3782 12.4422 25.6667 13.1413 25.6667 13.9627V30.0392C25.6667 30.8581 25.3782 31.5566 24.8013 32.1347C24.2244 32.7116 23.5259 33 22.7058 33H2.96267ZM2.96267 31.1667H22.7058C23.0346 31.1667 23.3047 31.0609 23.5162 30.8495C23.7276 30.6381 23.8333 30.3679 23.8333 30.0392V13.9608C23.8333 13.6321 23.7276 13.3619 23.5162 13.1505C23.3047 12.9391 23.0346 12.8333 22.7058 12.8333H2.96083C2.63206 12.8333 2.36194 12.9391 2.1505 13.1505C1.93906 13.3619 1.83333 13.6327 1.83333 13.9627V30.0392C1.83333 30.3679 1.93906 30.6381 2.1505 30.8495C2.36194 31.0609 2.63267 31.1667 2.96267 31.1667ZM12.8333 24.75C13.607 24.75 14.2584 24.4848 14.7877 23.9543C15.3181 23.4251 15.5833 22.7737 15.5833 22C15.5833 21.2263 15.3181 20.5749 14.7877 20.0457C14.2572 19.5164 13.6058 19.2512 12.8333 19.25C12.0609 19.2488 11.4094 19.514 10.879 20.0457C10.3486 20.5749 10.0833 21.2263 10.0833 22C10.0833 22.7737 10.3486 23.4251 10.879 23.9543C11.4082 24.4848 12.0597 24.75 12.8333 24.75ZM7.33333 11H18.3333V7.33333C18.3333 5.80556 17.7986 4.50694 16.7292 3.4375C15.6597 2.36806 14.3611 1.83333 12.8333 1.83333C11.3056 1.83333 10.0069 2.36806 8.9375 3.4375C7.86806 4.50694 7.33333 5.80556 7.33333 7.33333V11Z" fill="#3DCA3D"/>
</svg>
