<svg width="50" height="50" viewBox="0 0 50 50" fill="none" xmlns="http://www.w3.org/2000/svg">
<rect width="50" height="50" rx="8" fill="#F7AD19" fill-opacity="0.06"/>
<rect x="0.5" y="0.5" width="49" height="49" rx="7.5" stroke="#F7AD19" stroke-opacity="0.5"/>
<path d="M31.75 36.25C32.9926 36.25 34 35.2426 34 34C34 32.7574 32.9926 31.75 31.75 31.75C30.5074 31.75 29.5 32.7574 29.5 34C29.5 35.2426 30.5074 36.25 31.75 36.25Z" fill="#FF8000"/>
<path d="M40.4991 33.4139C39.804 31.643 38.6045 30.115 37.0493 29.0194C35.4941 27.9237 33.6515 27.3085 31.75 27.25C29.8485 27.3085 28.0059 27.9237 26.4507 29.0194C24.8955 30.115 23.696 31.643 23.0009 33.4139L22.75 34L23.0009 34.5872C23.6962 36.3579 24.8957 37.8856 26.4509 38.9811C28.0061 40.0766 29.8486 40.6916 31.75 40.75C33.6514 40.6916 35.4939 40.0766 37.0491 38.9811C38.6043 37.8856 39.8038 36.3579 40.4991 34.5872L40.75 34L40.4991 33.4139ZM31.75 38.5C30.86 38.5 29.99 38.2361 29.2499 37.7416C28.5099 37.2471 27.9331 36.5443 27.5925 35.7221C27.2519 34.8998 27.1628 33.995 27.3365 33.1221C27.5101 32.2492 27.9387 31.4474 28.568 30.818C29.1974 30.1887 29.9992 29.7601 30.8721 29.5865C31.745 29.4128 32.6498 29.5019 33.4721 29.8425C34.2943 30.1831 34.9971 30.7599 35.4916 31.4999C35.9861 32.24 36.25 33.11 36.25 34C36.2485 35.193 35.7739 36.3367 34.9303 37.1803C34.0867 38.0239 32.943 38.4985 31.75 38.5Z" fill="#FF8000"/>
<path d="M20.5 38.5H16V11.5H25V18.25C25.0018 18.8462 25.2394 19.4175 25.661 19.8391C26.0825 20.2606 26.6538 20.4982 27.25 20.5H34V25H36.25V18.25C36.254 18.1022 36.2259 17.9552 36.1676 17.8193C36.1093 17.6833 36.0223 17.5616 35.9125 17.4625L28.0375 9.58753C27.9389 9.47713 27.8173 9.38969 27.6812 9.33138C27.5451 9.27307 27.398 9.2453 27.25 9.25003H16C15.4038 9.25181 14.8325 9.48943 14.411 9.91101C13.9894 10.3326 13.7518 10.9038 13.75 11.5V38.5C13.7518 39.0962 13.9894 39.6675 14.411 40.0891C14.8325 40.5106 15.4038 40.7482 16 40.75H20.5V38.5ZM27.25 11.95L33.55 18.25H27.25V11.95Z" fill="#FF8000"/>
</svg>
