<svg width="273" height="256" viewBox="0 0 273 256" fill="none" xmlns="http://www.w3.org/2000/svg">
<g clip-path="url(#clip0_1498_17668)">
<path opacity="0.18" d="M159.59 252.801C162.354 253.942 165.41 254.109 168.394 254.251C193.57 255.466 218.764 256.047 243.975 255.996C246.495 255.996 249.071 255.97 251.433 255.095C253.795 254.221 255.933 252.3 256.349 249.812C240.563 248.586 224.666 248.706 208.936 248.123C200.69 247.818 192.126 248.852 183.922 249.637C179.765 250.037 175.614 250.506 171.471 251.043C168.865 251.386 161.909 253.757 159.59 252.801Z" fill="#1D2741"/>
<path d="M208.894 245.043L210.836 249.816L202.992 253.529L195.749 254.057C195.749 254.057 194.51 249.284 197.892 248.859C199.869 248.633 201.755 247.904 203.37 246.741L208.894 245.043ZM215.122 247.2C214.139 247.606 213.284 248.271 212.649 249.124C212.013 249.977 211.621 250.987 211.513 252.045L211.303 254.057H220.21V247.196L215.122 247.2Z" fill="#68E1FD"/>
<path opacity="0.22" d="M271.698 28.498V147.656C271.698 149.39 271.357 151.107 270.694 152.709C270.031 154.311 269.059 155.767 267.833 156.993C266.608 158.219 265.153 159.192 263.551 159.855C261.95 160.518 260.234 160.86 258.501 160.859H13.197C9.69692 160.859 6.34022 159.468 3.86531 156.992C1.39039 154.516 0 151.158 0 147.656V28.498C0.00453636 24.9977 1.39639 21.6421 3.87032 19.167C6.34425 16.692 9.69832 15.2995 13.197 15.2949H258.509C262.006 15.3017 265.358 16.6952 267.83 19.1701C270.302 21.6449 271.693 24.9992 271.698 28.498Z" fill="url(#paint0_linear_1498_17668)"/>
<path d="M272.343 28.057V147.211C272.344 150.232 271.309 153.162 269.411 155.513C267.513 157.863 264.867 159.492 261.915 160.126C261.006 160.318 260.079 160.414 259.15 160.414H13.838C12.1044 160.415 10.3876 160.074 8.78574 159.411C7.18386 158.748 5.7283 157.776 4.50228 156.549C3.27627 155.323 2.30382 153.867 1.64054 152.265C0.977263 150.662 0.636156 148.945 0.636719 147.211V28.057C0.640124 24.5552 2.03206 21.1978 4.50704 18.7217C6.98202 16.2456 10.3378 14.853 13.838 14.8496H259.15C262.355 14.8502 265.451 16.0182 267.858 18.1354C270.265 20.2527 271.82 23.1744 272.231 26.3546C272.308 26.9188 272.345 27.4876 272.343 28.057Z" fill="#68E1FD"/>
<path d="M272.343 28.057V147.211C272.344 150.232 271.309 153.162 269.411 155.513C267.513 157.863 264.867 159.492 261.915 160.126C261.006 160.318 260.079 160.414 259.15 160.414H13.838C12.1044 160.415 10.3876 160.074 8.78574 159.411C7.18386 158.748 5.7283 157.776 4.50228 156.549C3.27626 155.323 2.30382 153.867 1.64054 152.265C0.977262 150.662 0.636156 148.945 0.636719 147.211V28.057C0.640124 24.5552 2.03206 21.1978 4.50704 18.7217C6.98202 16.2456 10.3378 14.853 13.838 14.8496H259.15C262.355 14.8502 265.451 16.0182 267.858 18.1354C270.265 20.2527 271.82 23.1744 272.231 26.3546C272.308 26.9188 272.345 27.4876 272.343 28.057Z" fill="url(#paint1_linear_1498_17668)"/>
<path d="M271.596 26.7999H0.113281C0.525585 23.6193 2.081 20.6976 4.48903 18.5804C6.89706 16.4632 9.99306 15.2954 13.1988 15.2949H258.511C261.717 15.2945 264.813 16.462 267.222 18.5793C269.63 20.6967 271.185 23.6189 271.596 26.7999Z" fill="url(#paint2_linear_1498_17668)"/>
<path d="M90.1296 128.695C91.6185 128.695 92.8255 127.488 92.8255 125.998C92.8255 124.508 91.6185 123.301 90.1296 123.301C88.6406 123.301 87.4336 124.508 87.4336 125.998C87.4336 127.488 88.6406 128.695 90.1296 128.695Z" fill="#68E1FD"/>
<path d="M98.5163 128.695C100.005 128.695 101.212 127.488 101.212 125.998C101.212 124.508 100.005 123.301 98.5163 123.301C97.0273 123.301 95.8203 124.508 95.8203 125.998C95.8203 127.488 97.0273 128.695 98.5163 128.695Z" fill="#68E1FD"/>
<path d="M106.911 128.695C108.4 128.695 109.607 127.488 109.607 125.998C109.607 124.508 108.4 123.301 106.911 123.301C105.422 123.301 104.215 124.508 104.215 125.998C104.215 127.488 105.422 128.695 106.911 128.695Z" fill="#68E1FD"/>
<path d="M115.298 128.695C116.786 128.695 117.994 127.488 117.994 125.998C117.994 124.508 116.786 123.301 115.298 123.301C113.809 123.301 112.602 124.508 112.602 125.998C112.602 127.488 113.809 128.695 115.298 128.695Z" fill="#68E1FD"/>
<path d="M187.368 125.26V123.836H188.491V122.918H187.368V122.232H188.491V121.314H186.241V125.26C185.557 125.399 184.949 125.788 184.536 126.35C184.122 126.913 183.932 127.609 184.003 128.303C184.073 128.998 184.398 129.642 184.916 130.11C185.434 130.578 186.106 130.837 186.804 130.837C187.502 130.837 188.175 130.578 188.693 130.11C189.21 129.642 189.536 128.998 189.606 128.303C189.676 127.609 189.486 126.913 189.073 126.35C188.659 125.788 188.052 125.399 187.368 125.26ZM186.806 129.976C186.419 129.977 186.04 129.863 185.717 129.648C185.394 129.433 185.143 129.128 184.994 128.77C184.845 128.412 184.805 128.018 184.88 127.637C184.956 127.257 185.142 126.907 185.416 126.633C185.689 126.358 186.038 126.171 186.418 126.095C186.798 126.019 187.193 126.058 187.551 126.206C187.909 126.354 188.215 126.605 188.43 126.928C188.646 127.25 188.761 127.629 188.761 128.017C188.761 128.536 188.555 129.034 188.189 129.402C187.823 129.771 187.326 129.978 186.806 129.981V129.976Z" fill="#68E1FD"/>
<path opacity="0.21" d="M198.275 112.657C198.096 115.306 198.24 117.968 198.704 120.582C198.995 122.198 199.385 123.978 198.554 125.402C198.125 126.173 197.354 126.714 196.664 127.284C192.283 130.886 189.75 136.233 186.008 140.496C185.761 140.846 185.401 141.102 184.988 141.22C184.564 141.248 184.143 141.128 183.797 140.882C181.518 139.566 179.603 137.703 178.225 135.462C177.552 134.364 176.939 133.112 175.782 132.55C173.639 131.495 171.041 133.738 170.806 136.126C170.57 138.515 171.851 140.762 173.09 142.816L178.821 152.327C180.565 155.225 182.404 158.223 185.25 160.045C187.219 161.246 189.432 161.993 191.726 162.232C194.975 162.661 198.271 162.447 201.541 162.194C207.522 161.73 213.487 161.136 219.436 160.41C221.476 160.161 223.795 159.715 224.828 157.944C225.522 156.752 225.428 155.281 225.308 153.909C224.888 148.938 224.459 143.968 224.022 138.999C223.786 136.182 223.435 133.12 221.45 131.113C220.263 129.921 218.6 129.244 217.546 127.927C216.792 126.872 216.307 125.649 216.131 124.364C215.116 119.004 216.089 113.245 213.988 108.198C213.56 107.177 212.985 106.165 212.038 105.595C211.169 105.144 210.19 104.946 209.214 105.025C204.52 105.157 198.618 107.396 198.275 112.657Z" fill="url(#paint3_linear_1498_17668)"/>
<path opacity="0.18" d="M262.042 188.342C259.501 217.642 178.926 208.255 120.982 196.377C63.0375 184.499 15.2301 208.255 4.20618 188.342C-0.675717 179.525 2.58602 168.513 7.74223 158.977C9.70748 160.072 11.9215 160.644 14.1714 160.636H257.298C260.645 168.522 262.947 177.956 262.042 188.342Z" fill="#68E1FD"/>
<path d="M198.746 176.168L193.469 214.615C193.248 216.234 193.417 217.882 193.962 219.422L203.392 247.2L208.904 245.485L204.746 217.848C204.657 217.275 204.695 216.69 204.858 216.133L212.011 191.416L215.123 247.162H220.211L224.587 192.15C226.07 182.956 223.352 176.168 223.352 176.168H198.746Z" fill="#3F3D56"/>
<path d="M225.785 165.988L220.565 132.344L219.836 128.244C219.836 128.244 229.583 133.819 232.377 143.57C236.033 156.37 225.785 165.988 225.785 165.988Z" fill="#68E1FD"/>
<path d="M225.785 165.988L220.565 132.344L219.836 128.244C219.836 128.244 229.583 133.819 232.377 143.57C236.033 156.37 225.785 165.988 225.785 165.988Z" fill="url(#paint4_linear_1498_17668)"/>
<path d="M231.141 158.159C235.098 150.333 227.284 136.718 227.284 136.718L220.555 132.349L221.313 127.49C221.313 127.49 232.166 128.601 233.224 143.931C233.576 148.866 233.207 154.964 231.141 158.159Z" fill="#68E1FD"/>
<path d="M175.231 131.889C174.867 130.654 174.232 129.183 172.947 129.072C173.295 130.198 173.244 131.41 172.801 132.502C169.998 131.464 169.346 127.356 166.547 126.293C166.119 126.748 166.359 127.489 166.625 128.055C167.113 129.11 167.605 130.165 168.099 131.22C167.442 130.185 166.743 129.185 166.003 128.218C165.784 127.922 165.407 127.601 165.099 127.79C164.79 127.978 164.901 128.377 165.013 128.686C165.502 130.058 166.059 131.409 166.672 132.729C165.984 131.574 165.196 130.481 164.319 129.462C163.744 129.603 163.864 130.452 164.113 130.988L165.952 134.908L164.477 132.764C164.001 132.811 164.074 133.54 164.306 133.96C166.283 137.492 169.372 140.271 173.092 141.863C173.847 142.185 174.721 142.451 175.462 142.103C178.651 140.65 175.848 134.007 175.231 131.889Z" fill="url(#paint5_linear_1498_17668)"/>
<path d="M225.787 142.297V168.678C225.787 171.911 225.259 174.539 222.023 174.539H199.427C196.204 174.539 196.079 171.937 196.058 168.716L195.891 150.788C195.891 150.788 191.013 159.48 187.121 158.635C183.23 157.79 171.691 141.877 171.691 141.877L177.435 137.049L187.113 146.757C187.113 146.757 188.669 143.219 190.932 135.299C193.195 127.379 200.55 127.357 200.55 127.357H220.197C227.291 127.357 225.787 142.297 225.787 142.297Z" fill="#68E1FD"/>
<path d="M225.785 145.268C225.785 145.268 229.18 150.04 225.785 154.813V145.268Z" fill="#3F3D56"/>
<path d="M198.742 174.371H223.349V176.168H198.742V174.371Z" fill="url(#paint6_linear_1498_17668)"/>
<path d="M207.125 109.416H214.227V127.482H207.125V109.416Z" fill="url(#paint7_linear_1498_17668)"/>
<path d="M214.23 107.434V127.485H210.484V126.263C210.484 125.907 210.414 125.555 210.278 125.226C210.142 124.898 209.942 124.599 209.691 124.348C209.439 124.097 209.141 123.897 208.812 123.762C208.483 123.626 208.131 123.556 207.776 123.557H207.561C205.777 123.557 204.065 122.848 202.803 121.585C201.541 120.322 200.832 118.61 200.832 116.825V107.434H214.23Z" fill="url(#paint8_linear_1498_17668)"/>
<path d="M200.831 109.415C200.831 109.415 194.616 106.023 196.84 102.309C199.065 98.5957 202.691 100.933 202.691 100.933H214.671C214.671 100.933 216.046 100.718 216.578 103.051C217.109 105.384 214.246 119.865 214.246 119.865H208.293L207.53 116.1C207.53 116.1 208.717 114.813 208.61 113.445C208.62 113.189 208.541 112.938 208.388 112.733C208.234 112.528 208.014 112.382 207.766 112.32C207.517 112.258 207.255 112.284 207.023 112.393C206.791 112.502 206.604 112.687 206.493 112.918C205.957 113.87 206.171 109.839 204.264 109.415C203.134 109.158 201.961 109.158 200.831 109.415Z" fill="#3F3D56"/>
<path d="M212.641 127.447C212.641 127.447 209.885 131.058 206.066 131.058C202.247 131.058 191.12 141.98 190.374 145.269C189.628 148.558 187.121 146.757 187.121 146.757C187.121 146.757 188.677 143.219 190.94 135.299C193.203 127.379 200.55 127.357 200.55 127.357H210.536L212.641 127.447Z" fill="url(#paint9_linear_1498_17668)"/>
<path d="M208.894 245.043L210.836 249.816L202.992 253.529L195.749 254.057C195.749 254.057 194.51 249.284 197.892 248.859C199.869 248.633 201.755 247.904 203.37 246.741L208.894 245.043Z" fill="url(#paint10_linear_1498_17668)"/>
<path d="M215.12 247.202C214.137 247.608 213.282 248.273 212.646 249.126C212.011 249.979 211.619 250.989 211.511 252.047L211.301 254.058H220.207V247.197L215.12 247.202Z" fill="url(#paint11_linear_1498_17668)"/>
<path opacity="0.18" d="M51.4883 15.5191C51.4883 15.5191 106.505 -19.3989 176.96 15.5191H51.4883Z" fill="#68E1FD"/>
<g opacity="0.5">
<path d="M130.931 77.7578H123.431C123.323 77.7578 123.216 77.7792 123.116 77.8207C123.017 77.8623 122.926 77.9232 122.85 77.9999C122.774 78.0766 122.714 78.1676 122.673 78.2677C122.633 78.3677 122.612 78.4748 122.613 78.5828V83.8328C122.613 83.9402 122.634 84.0465 122.676 84.1457C122.717 84.2448 122.777 84.335 122.853 84.4109C122.929 84.4868 123.019 84.547 123.118 84.5881C123.217 84.6292 123.323 84.6503 123.431 84.6503H128.418L129.101 85.7078C129.123 85.7268 129.151 85.7373 129.18 85.7373C129.209 85.7373 129.236 85.7268 129.258 85.7078L130.008 84.6503H130.871C131.088 84.6464 131.295 84.558 131.447 84.4039C131.6 84.2498 131.686 84.0422 131.688 83.8253V78.5753C131.689 78.3685 131.611 78.1692 131.47 78.0175C131.33 77.8658 131.137 77.773 130.931 77.7578Z" fill="#F2F2F2"/>
<path opacity="0.15" d="M122.991 84.1479C122.889 84.1468 122.787 84.1264 122.691 84.0879C122.747 84.2447 122.848 84.3814 122.981 84.4803C123.115 84.5793 123.275 84.6359 123.441 84.6429H128.429L128.106 84.1479H122.991Z" fill="#13183F"/>
<path opacity="0.15" d="M131.24 77.8184C131.27 77.9052 131.285 77.9965 131.285 78.0884V83.3384C131.284 83.447 131.262 83.5544 131.219 83.6542C131.176 83.754 131.113 83.8442 131.035 83.9196C130.957 83.9951 130.864 84.0541 130.763 84.0934C130.662 84.1327 130.554 84.1514 130.445 84.1484H129.598L128.848 85.2059L129.155 85.6784C129.176 85.6968 129.202 85.707 129.23 85.707C129.258 85.707 129.285 85.6968 129.305 85.6784L130.055 84.6209H130.91C131.018 84.6219 131.125 84.6014 131.225 84.5608C131.325 84.5202 131.416 84.4601 131.493 84.3841C131.57 84.3081 131.631 84.2176 131.672 84.1179C131.714 84.0183 131.735 83.9113 131.735 83.8034V78.5534C131.731 78.3964 131.682 78.244 131.595 78.1138C131.507 77.9836 131.384 77.8811 131.24 77.8184Z" fill="#13183F"/>
<path d="M126.883 73.6703H116.608C116.457 73.6663 116.307 73.6924 116.167 73.7471C116.027 73.8017 115.898 73.8838 115.79 73.9886C115.682 74.0934 115.596 74.2187 115.536 74.3572C115.477 74.4957 115.446 74.6447 115.445 74.7953V82.0028C115.447 82.3019 115.567 82.588 115.78 82.7988C115.992 83.0095 116.279 83.1278 116.578 83.1278H119.068L120.005 84.5753C120.017 84.5917 120.031 84.6056 120.048 84.6164C120.064 84.6271 120.083 84.6344 120.102 84.6379C120.122 84.6414 120.142 84.641 120.161 84.6367C120.181 84.6324 120.199 84.6243 120.215 84.6128L120.253 84.5753L121.295 83.1203H126.845C127.144 83.1203 127.43 83.0018 127.641 82.7908C127.852 82.5798 127.97 82.2937 127.97 81.9953V74.7953C127.97 74.5033 127.857 74.2227 127.654 74.0128C127.451 73.8029 127.175 73.6801 126.883 73.6703Z" fill="#0099F5"/>
<path opacity="0.15" d="M115.971 82.4829C115.83 82.4823 115.689 82.4543 115.559 82.4004C115.636 82.6204 115.781 82.8108 115.972 82.9452C116.162 83.0796 116.39 83.1513 116.624 83.1504H119.106L118.671 82.4829H115.971Z" fill="#13183F"/>
<path opacity="0.15" d="M127.302 73.7461C127.347 73.8661 127.37 73.9931 127.37 74.1211V81.3211C127.374 81.4723 127.348 81.6228 127.292 81.7637C127.237 81.9046 127.155 82.033 127.049 82.1414C126.943 82.2497 126.817 82.3358 126.678 82.3946C126.538 82.4534 126.389 82.4836 126.237 82.4836H120.695L119.652 83.9086L120.08 84.5611C120.09 84.5772 120.104 84.591 120.12 84.6016C120.136 84.6123 120.154 84.6196 120.173 84.6231C120.192 84.6266 120.211 84.6262 120.23 84.622C120.249 84.6178 120.267 84.6098 120.282 84.5986C120.285 84.5862 120.285 84.5735 120.282 84.5611L121.332 83.1061H126.875C127.174 83.1061 127.461 82.9878 127.673 82.7771C127.885 82.5663 128.005 82.2802 128.007 81.9811V74.7811C128.004 74.5586 127.935 74.342 127.81 74.1581C127.684 73.9742 127.508 73.831 127.302 73.7461Z" fill="#13183F"/>
<path d="M119.014 78.7706C119.292 78.7706 119.517 78.5456 119.517 78.2681C119.517 77.9906 119.292 77.7656 119.014 77.7656C118.737 77.7656 118.512 77.9906 118.512 78.2681C118.512 78.5456 118.737 78.7706 119.014 78.7706Z" fill="#F2F2F2"/>
<path d="M121.752 78.7706C122.03 78.7706 122.255 78.5456 122.255 78.2681C122.255 77.9906 122.03 77.7656 121.752 77.7656C121.475 77.7656 121.25 77.9906 121.25 78.2681C121.25 78.5456 121.475 78.7706 121.752 78.7706Z" fill="#F2F2F2"/>
<path d="M124.491 78.7706C124.768 78.7706 124.993 78.5456 124.993 78.2681C124.993 77.9906 124.768 77.7656 124.491 77.7656C124.213 77.7656 123.988 77.9906 123.988 78.2681C123.988 78.5456 124.213 78.7706 124.491 78.7706Z" fill="#F2F2F2"/>
<path d="M101.757 96.7331C101.734 96.6085 101.686 96.4898 101.616 96.3842C101.546 96.2785 101.456 96.188 101.35 96.118C101.244 96.0481 101.126 96.0001 101.001 95.9769C100.877 95.9537 100.749 95.9558 100.625 95.9831C100.017 96.1181 100.025 96.6731 100.115 97.1381C100.228 97.651 100.386 98.153 100.587 98.6381C100.752 98.9006 101.007 99.3881 101.435 99.2606C101.712 99.1631 101.877 98.6681 101.945 98.3081C101.933 97.7783 101.871 97.2508 101.757 96.7331Z" fill="#9C5631"/>
<path d="M108.24 88.3316C108.24 89.2391 107.078 89.9816 105.638 89.9816C104.198 89.9816 103.043 89.2316 103.043 88.3316C103.043 87.4316 104.205 86.6816 105.638 86.6816C107.07 86.6816 108.24 87.4241 108.24 88.3316Z" fill="#13183F"/>
<path d="M103.887 89.3218C104.771 89.2201 105.661 89.19 106.55 89.2318C107.425 89.386 108.244 89.769 108.924 90.342C109.604 90.915 110.12 91.6575 110.42 92.4943C110.526 92.9342 110.584 93.3844 110.592 93.8368C110.629 93.162 110.571 92.4855 110.42 91.8268C110.119 90.991 109.603 90.2496 108.923 89.6779C108.244 89.1062 107.425 88.7246 106.55 88.5718C105.662 88.5236 104.771 88.5512 103.887 88.6543C103.887 88.6543 100.317 89.5768 100.445 93.2143V93.4843C100.572 90.1693 103.887 89.3218 103.887 89.3218Z" fill="#13183F"/>
<path d="M101.24 99.0809C101.24 99.1625 101.208 99.2407 101.15 99.2984C101.092 99.356 101.014 99.3884 100.932 99.3884C100.851 99.3884 100.773 99.356 100.715 99.2984C100.657 99.2407 100.625 99.1625 100.625 99.0809C100.625 98.9994 100.657 98.9212 100.715 98.8635C100.773 98.8058 100.851 98.7734 100.932 98.7734C101.014 98.7734 101.092 98.8058 101.15 98.8635C101.208 98.9212 101.24 98.9994 101.24 99.0809Z" fill="#F2F2F2"/>
<path d="M101.198 99.1846C101.152 99.2295 101.09 99.2546 101.026 99.2546C100.961 99.2546 100.899 99.2295 100.853 99.1846C100.832 99.1629 100.815 99.1372 100.803 99.1088C100.792 99.0805 100.786 99.0502 100.786 99.0196C100.785 98.9871 100.791 98.9547 100.804 98.9248C100.817 98.895 100.836 98.8684 100.861 98.8471C100.885 98.8161 100.92 98.7948 100.958 98.7871H100.921C100.839 98.7871 100.761 98.8195 100.703 98.8772C100.646 98.9348 100.613 99.0131 100.613 99.0946C100.613 99.1762 100.646 99.2544 100.703 99.312C100.761 99.3697 100.839 99.4021 100.921 99.4021C100.987 99.4013 101.052 99.3789 101.105 99.3384C101.157 99.2978 101.195 99.2412 101.213 99.1771L101.198 99.1846Z" fill="#F2F2F2"/>
<path d="M114.336 108.327V109.234H96.8384C96.4034 105.109 100.258 102.589 104.023 102.597C105.973 102.597 108.703 102.402 110.496 103.272C112.551 104.104 114.358 106.009 114.336 108.327Z" fill="#F0457D"/>
<g opacity="0.15">
<path d="M114.335 108.327C114.335 106.009 112.55 104.104 110.495 103.264C108.702 102.402 105.995 102.619 104.022 102.597C102.851 102.594 101.693 102.832 100.617 103.294C100.904 103.264 101.192 103.249 101.48 103.249C103.422 103.249 106.152 103.054 107.945 103.917C110 104.757 111.807 106.662 111.792 108.979V109.234H114.335V108.327Z" fill="#13183F"/>
</g>
<path d="M103.746 103.699L107.429 103.707L105.569 108.229L103.746 103.699Z" fill="#F2F2F2"/>
<path d="M105.607 104.914C105.168 104.899 104.744 104.746 104.397 104.477C104.05 104.208 103.796 103.836 103.672 103.414V97.8419C103.703 97.3505 103.919 96.8893 104.278 96.5522C104.637 96.215 105.111 96.0273 105.603 96.0273C106.095 96.0273 106.569 96.215 106.928 96.5522C107.287 96.8893 107.504 97.3505 107.534 97.8419V103.437C107.382 103.84 107.122 104.194 106.782 104.458C106.442 104.723 106.035 104.889 105.607 104.937V104.914Z" fill="#9C5631"/>
<path d="M101.756 96.7324C101.709 96.4901 101.569 96.276 101.365 96.1358C101.162 95.9957 100.912 95.9406 100.669 95.9824H100.631C100.031 96.1099 100.031 96.6649 100.121 97.1299C100.234 97.6429 100.392 98.1448 100.594 98.6299C100.766 98.8924 101.014 99.3799 101.434 99.2449C101.719 99.1549 101.876 98.6524 101.944 98.2999C101.936 97.7723 101.873 97.247 101.756 96.7324Z" fill="#9C5631"/>
<path d="M109.371 96.7323C109.417 96.4906 109.556 96.2765 109.758 96.1362C109.96 95.9959 110.209 95.9406 110.451 95.9823H110.496C111.096 96.1098 111.156 96.6873 111.066 97.1448C111.066 97.1448 110.736 98.3148 110.594 98.6448C110.451 98.9748 110.136 99.4473 109.701 99.2748C109.431 99.1623 109.244 98.6598 109.184 98.2998C109.191 97.7722 109.254 97.2468 109.371 96.7323Z" fill="#9C5631"/>
<path d="M109.956 93.3048C109.956 91.3173 108.726 89.3223 105.456 89.3223C102.186 89.3223 101.016 91.4823 101.016 93.4923C101.016 93.5973 101.016 99.0048 101.638 100.242C102.045 100.944 102.616 101.537 103.301 101.97C103.987 102.404 104.767 102.665 105.576 102.732C106.4 102.715 107.204 102.472 107.9 102.029C108.596 101.586 109.156 100.96 109.521 100.22C110.233 98.8173 109.956 93.3048 109.956 93.3048Z" fill="#9C5631"/>
<g opacity="0.15">
<path d="M106.313 102.343C105.504 102.273 104.723 102.009 104.039 101.571C103.354 101.133 102.786 100.536 102.383 99.8302C101.746 98.5852 101.761 93.1852 101.761 93.0802C101.748 92.1591 102.029 91.2579 102.563 90.5077C102.622 90.3464 102.689 90.1887 102.766 90.0352C102.206 90.4166 101.752 90.9339 101.446 91.5386C101.141 92.1432 100.993 92.8156 101.018 93.4927C101.018 93.5977 101.018 99.0052 101.641 100.243C102.047 100.944 102.616 101.536 103.3 101.97C103.985 102.403 104.764 102.665 105.571 102.733C106.434 102.736 107.277 102.474 107.986 101.983C107.461 102.221 106.89 102.344 106.313 102.343Z" fill="#13183F"/>
</g>
<path d="M106.535 88.6248C107.408 88.7803 108.225 89.163 108.903 89.7344C109.581 90.3058 110.096 91.0458 110.398 91.8798C110.945 93.9048 110.195 96.7323 110.195 96.7323L110.045 97.5498H109.873C110.048 96.3421 109.956 95.1105 109.603 93.9423C108.695 91.4823 105.65 91.6248 105.65 91.6248C102.74 91.6698 101.9 93.4623 101.9 93.4623C100.88 94.6248 101.15 97.5648 101.15 97.5648H101.008L100.865 96.7698C100.583 95.6186 100.442 94.4375 100.445 93.2523C100.31 89.6223 103.88 88.7523 103.88 88.7523C104.76 88.6369 105.648 88.5942 106.535 88.6248Z" fill="#13183F"/>
<path d="M108.218 88.3769C108.218 89.2844 107.063 90.0194 105.63 90.0194C104.198 90.0194 103.043 89.2694 103.043 88.3769C103.043 87.4844 104.198 86.7344 105.63 86.7344C107.063 86.7344 108.218 87.4769 108.218 88.3769Z" fill="#13183F"/>
<g opacity="0.1">
<path d="M103.88 89.3684C104.761 89.2693 105.649 89.2417 106.535 89.2859C107.408 89.4399 108.226 89.8221 108.904 90.3937C109.582 90.9653 110.097 91.706 110.397 92.5409C110.503 92.9808 110.561 93.4309 110.57 93.8834C110.606 93.2111 110.548 92.537 110.397 91.8809C110.096 91.0468 109.581 90.3069 108.902 89.7355C108.224 89.164 107.408 88.7813 106.535 88.6259C105.649 88.5817 104.761 88.6093 103.88 88.7084C103.88 88.7084 100.317 89.6234 100.445 93.2534V93.5234C100.58 90.2159 103.88 89.3684 103.88 89.3684Z" fill="#FFBEB3"/>
</g>
<path d="M101.24 99.095C101.241 99.1564 101.224 99.2169 101.191 99.2686C101.158 99.3203 101.11 99.3609 101.054 99.3851C100.997 99.4093 100.935 99.416 100.874 99.4044C100.814 99.3927 100.759 99.3633 100.715 99.3199C100.672 99.2764 100.642 99.2209 100.631 99.1606C100.619 99.1003 100.626 99.0378 100.65 98.9813C100.674 98.9248 100.715 98.8769 100.766 98.8437C100.818 98.8105 100.878 98.7935 100.94 98.795C101.019 98.795 101.096 98.8266 101.152 98.8829C101.208 98.9391 101.24 99.0154 101.24 99.095Z" fill="#F2F2F2"/>
<path d="M110.443 99.0956C110.45 99.1395 110.448 99.1843 110.435 99.2271C110.423 99.2698 110.402 99.3095 110.373 99.3432C110.344 99.377 110.309 99.4041 110.268 99.4227C110.228 99.4413 110.184 99.4509 110.14 99.4509C110.095 99.4509 110.051 99.4413 110.011 99.4227C109.97 99.4041 109.935 99.377 109.906 99.3432C109.877 99.3095 109.856 99.2698 109.844 99.2271C109.832 99.1843 109.829 99.1395 109.836 99.0956C109.847 99.0232 109.884 98.9573 109.94 98.9097C109.995 98.8621 110.066 98.8359 110.14 98.8359C110.213 98.8359 110.284 98.8621 110.339 98.9097C110.395 98.9573 110.432 99.0232 110.443 99.0956Z" fill="#F2F2F2"/>
<path d="M150.248 69.9944V70.9019H132.698C132.263 66.7619 136.125 64.2419 139.905 64.2494C141.855 64.2494 144.593 64.0544 146.385 64.9169C148.448 65.7569 150.263 67.6694 150.248 69.9944Z" fill="#FFD44D"/>
<g opacity="0.15">
<path d="M150.248 69.9942C150.248 67.6692 148.455 65.7567 146.393 64.9167C144.6 64.0542 141.893 64.2717 139.913 64.2492C138.739 64.2466 137.578 64.4839 136.5 64.9467C136.784 64.9192 137.07 64.9067 137.355 64.9092C139.312 64.9092 142.043 64.7067 143.843 65.5767C145.898 66.4167 147.698 68.3292 147.698 70.6467V70.9017H150.248V69.9942Z" fill="#F0457D"/>
</g>
<path d="M139.633 65.3594H143.323L141.455 69.8894L139.633 65.3594Z" fill="#F2F2F2"/>
<g opacity="0.15">
<path d="M143.315 65.3594C143.186 65.745 142.938 66.0802 142.608 66.3177C142.277 66.5552 141.881 66.6829 141.474 66.6829C141.067 66.6829 140.671 66.5552 140.34 66.3177C140.01 66.0802 139.762 65.745 139.633 65.3594C139.859 65.6276 140.141 65.8433 140.459 65.9912C140.777 66.1391 141.123 66.2158 141.474 66.2158C141.825 66.2158 142.171 66.1391 142.489 65.9912C142.807 65.8433 143.089 65.6276 143.315 65.3594Z" fill="#F0457D"/>
</g>
<path d="M141.503 50.2324C143.177 50.2324 144.784 50.8978 145.968 52.082C147.152 53.2663 147.818 54.8726 147.818 56.5474V64.6474H135.188V56.5699C135.185 55.7387 135.346 54.9151 135.662 54.1464C135.978 53.3776 136.442 52.6788 137.029 52.09C137.616 51.5012 138.313 51.034 139.081 50.7153C139.848 50.3965 140.671 50.2324 141.503 50.2324Z" fill="#9C5631"/>
<path d="M141.494 66.5754C141.248 66.5917 141.001 66.5578 140.769 66.4758C140.537 66.3938 140.324 66.2654 140.143 66.0984C139.962 65.9314 139.817 65.7293 139.716 65.5045C139.616 65.2796 139.562 65.0366 139.559 64.7904V59.4879C139.589 58.9945 139.807 58.5314 140.167 58.193C140.527 57.8545 141.003 57.666 141.497 57.666C141.992 57.666 142.467 57.8545 142.828 58.193C143.188 58.5314 143.405 58.9945 143.436 59.4879V64.7829C143.432 65.0298 143.377 65.2732 143.276 65.4985C143.175 65.7238 143.029 65.9263 142.847 66.0937C142.666 66.2612 142.452 66.3902 142.22 66.473C141.987 66.5558 141.74 66.5906 141.494 66.5754Z" fill="#FFBEB3"/>
<path d="M137.639 58.4004C137.592 58.1581 137.451 57.9439 137.248 57.8038C137.045 57.6636 136.795 57.6086 136.552 57.6504C135.952 57.7854 135.944 58.3404 136.034 58.8054C136.147 59.3193 136.307 59.8215 136.514 60.3054C136.687 60.5679 136.934 61.0554 137.354 60.9204C137.639 60.8304 137.804 60.3279 137.864 59.9754C137.844 59.444 137.768 58.9162 137.639 58.4004Z" fill="#FFBEB3"/>
<path d="M145.266 58.3781C145.311 58.1349 145.451 57.9195 145.655 57.779C145.859 57.6385 146.11 57.5843 146.353 57.6281H146.391C146.991 57.7556 147.051 58.3331 146.961 58.7906C146.961 58.7906 146.638 59.9681 146.488 60.2906C146.338 60.6131 146.031 61.0931 145.596 60.9131C145.326 60.8006 145.146 60.2981 145.078 59.9381C145.087 59.4131 145.15 58.8904 145.266 58.3781Z" fill="#FFBEB3"/>
<path d="M145.853 54.9431C145.853 52.9556 144.623 50.9531 141.353 50.9531C138.083 50.9531 136.898 53.1431 136.898 55.1381C136.898 55.2431 136.898 60.6581 137.521 61.8881C137.924 62.5952 138.493 63.1935 139.179 63.6313C139.865 64.0691 140.647 64.3331 141.458 64.4006C142.288 64.3891 143.099 64.1501 143.803 63.7097C144.506 63.2694 145.075 62.6445 145.448 61.9031C146.131 60.4706 145.853 54.9431 145.853 54.9431Z" fill="#FFBEB3"/>
<path d="M145.265 62.1645C145.265 62.1645 145.265 62.1645 145.265 62.127L145.152 62.2095L145.265 62.1645Z" fill="#F2F2F2"/>
<g opacity="0.15">
<path d="M142.2 63.9947C141.388 63.9278 140.606 63.664 139.92 63.2262C139.234 62.7884 138.665 62.1897 138.262 61.4822C137.632 60.2297 137.64 54.8222 137.64 54.7322C137.627 53.8111 137.908 52.9099 138.442 52.1597C138.501 51.9951 138.571 51.8348 138.652 51.6797C138.09 52.0631 137.634 52.5827 137.328 53.19C137.021 53.7972 136.873 54.4723 136.897 55.1522C136.897 55.2572 136.897 60.6722 137.52 61.9022C137.923 62.6113 138.493 63.2113 139.18 63.6504C139.868 64.0896 140.652 64.3545 141.465 64.4222C142.327 64.4243 143.17 64.1626 143.88 63.6722C143.349 63.8987 142.776 64.0087 142.2 63.9947Z" fill="#F0457D"/>
</g>
<path d="M142.445 50.2317C143.32 50.3866 144.139 50.7699 144.818 51.3428C145.498 51.9157 146.014 52.6578 146.315 53.4942C146.825 55.5192 146.09 58.3767 146.09 58.3767L145.917 59.2317H145.745C145.914 58.0144 145.811 56.7747 145.445 55.6017C144.612 53.0742 141.537 53.2317 141.537 53.2317C138.62 53.2767 137.787 55.0692 137.787 55.0692C136.767 56.2317 137.037 59.1792 137.037 59.1792H136.895L136.745 58.3842C136.468 57.2299 136.332 56.0463 136.34 54.8592C136.205 51.2217 139.782 50.3067 139.782 50.3067C140.666 50.2102 141.557 50.1851 142.445 50.2317Z" fill="#9C5631"/>
<path d="M139.767 50.9819C140.657 50.8866 141.552 50.864 142.445 50.9144C143.32 51.0693 144.139 51.4526 144.818 52.0255C145.498 52.5983 146.014 53.3405 146.315 54.1769C146.42 54.6172 146.48 55.067 146.495 55.5194C146.525 54.8468 146.465 54.1733 146.315 53.5169C146.019 52.6755 145.504 51.9279 144.824 51.3507C144.144 50.7735 143.323 50.3873 142.445 50.2319C141.559 50.1838 140.671 50.2114 139.79 50.3144C139.79 50.3144 136.227 51.2219 136.355 54.8594V55.1369C136.445 51.8444 139.767 50.9819 139.767 50.9819Z" fill="#F0457D"/>
<path d="M114.914 69.8746V70.7821H97.2287C96.7937 66.6121 100.686 64.0696 104.489 64.0771C106.461 64.0771 109.221 63.8821 111.029 64.7596C113.106 65.5996 114.929 67.5271 114.914 69.8746Z" fill="#0099F5"/>
<g opacity="0.15">
<path d="M114.914 69.8744C114.914 67.5269 113.107 65.5994 111.029 64.7594C109.222 63.8819 106.462 64.0994 104.489 64.0769C103.306 64.0776 102.135 64.3174 101.047 64.7819C101.339 64.7819 101.624 64.7369 101.917 64.7369C103.882 64.7369 106.649 64.5419 108.457 65.4194C110.534 66.2594 112.357 68.1869 112.334 70.5344V70.7819H114.914V69.8744Z" fill="#13183F"/>
</g>
<g opacity="0.09">
<path d="M105.881 67.0783L104.118 68.1433C104.095 68.1583 104.068 68.1686 104.041 68.1733C104.013 68.1781 103.985 68.1773 103.958 68.171C103.931 68.1647 103.905 68.1531 103.882 68.1367C103.859 68.1204 103.84 68.0996 103.826 68.0758L101.943 64.7983C101.918 64.75 101.911 64.6939 101.925 64.6411C101.939 64.5883 101.972 64.5427 102.018 64.5133L103.773 63.5908C103.821 63.5674 103.875 63.5621 103.926 63.5759C103.977 63.5897 104.022 63.6217 104.051 63.6658L105.971 66.7933C105.999 66.8402 106.007 66.8963 105.995 66.9495C105.982 67.0027 105.949 67.0489 105.903 67.0783H105.881Z" fill="#13183F"/>
</g>
<g opacity="0.09">
<path d="M106.25 67.077L108.02 68.142C108.043 68.1569 108.068 68.167 108.095 68.1717C108.122 68.1763 108.15 68.1755 108.177 68.1692C108.203 68.1629 108.228 68.1512 108.25 68.135C108.272 68.1187 108.291 68.0981 108.305 68.0745L110.195 64.797C110.223 64.7489 110.232 64.6917 110.219 64.6372C110.207 64.5828 110.174 64.5352 110.127 64.5045L108.38 63.582C108.357 63.5686 108.331 63.5599 108.304 63.5564C108.278 63.5529 108.251 63.5547 108.225 63.5617C108.199 63.5687 108.175 63.5807 108.154 63.597C108.133 63.6134 108.115 63.6338 108.102 63.657L106.182 66.7845C106.154 66.8314 106.145 66.8875 106.158 66.9407C106.171 66.9939 106.203 67.0401 106.25 67.0695V67.077Z" fill="#13183F"/>
</g>
<path d="M107.711 66.8441L106.068 66.2441L104.426 66.8441L105.558 68.8466L105.138 70.7816H106.998L106.571 68.8466L107.711 66.8441Z" fill="#13183F"/>
<path d="M106.071 66.5523C105.814 66.5532 105.56 66.5035 105.322 66.406C105.085 66.3084 104.869 66.1649 104.687 65.9838C104.505 65.8026 104.361 65.5873 104.262 65.3502C104.164 65.1131 104.113 64.859 104.113 64.6023V59.4048C104.144 58.9075 104.363 58.4407 104.726 58.0995C105.089 57.7583 105.569 57.5684 106.067 57.5684C106.565 57.5684 107.045 57.7583 107.408 58.0995C107.771 58.4407 107.99 58.9075 108.021 59.4048V64.6023C108.022 64.8586 107.972 65.1126 107.874 65.3497C107.777 65.5867 107.633 65.8021 107.452 65.9833C107.271 66.1646 107.055 66.3082 106.818 66.4058C106.581 66.5035 106.327 66.5532 106.071 66.5523Z" fill="#FFBEB3"/>
<g opacity="0.1">
<path d="M107.945 65.2324C107.82 65.6317 107.571 65.9806 107.234 66.2283C106.896 66.476 106.489 66.6095 106.07 66.6095C105.652 66.6095 105.244 66.476 104.907 66.2283C104.57 65.9806 104.32 65.6317 104.195 65.2324C104.423 65.509 104.71 65.7317 105.034 65.8845C105.358 66.0374 105.712 66.1167 106.07 66.1167C106.429 66.1167 106.783 66.0374 107.107 65.8845C107.431 65.7317 107.717 65.509 107.945 65.2324Z" fill="#F0457D"/>
</g>
<path d="M105.906 66.6574L104.286 67.6399C104.242 67.6649 104.19 67.6718 104.141 67.6592C104.092 67.6466 104.05 67.6155 104.024 67.5724L102.276 64.5724C102.251 64.5273 102.243 64.4742 102.256 64.424C102.269 64.3738 102.3 64.3303 102.344 64.3024L103.956 63.4624C103.999 63.4378 104.05 63.4311 104.097 63.4437C104.145 63.4564 104.186 63.4873 104.211 63.5299L105.966 66.3874C105.98 66.4091 105.989 66.4332 105.994 66.4585C105.998 66.4839 105.998 66.5098 105.992 66.5349C105.987 66.56 105.976 66.5837 105.961 66.6048C105.947 66.6258 105.928 66.6437 105.906 66.6574Z" fill="#0099F5"/>
<path d="M106.234 66.6567L107.854 67.6392C107.899 67.6646 107.952 67.6717 108.002 67.6592C108.053 67.6466 108.096 67.6153 108.124 67.5717L109.871 64.5717C109.897 64.5266 109.904 64.4735 109.891 64.4233C109.879 64.373 109.848 64.3295 109.804 64.3017L108.191 63.4542C108.147 63.4321 108.097 63.4276 108.049 63.4415C108.002 63.4554 107.962 63.4868 107.936 63.5292L106.181 66.3867C106.153 66.4295 106.142 66.4819 106.152 66.5325C106.162 66.5831 106.191 66.6278 106.234 66.6567Z" fill="#0099F5"/>
<path d="M102.185 57.4851C102.161 57.3603 102.112 57.2415 102.041 57.1357C101.971 57.03 101.879 56.9396 101.773 56.8697C101.667 56.7998 101.548 56.7518 101.423 56.7287C101.298 56.7056 101.169 56.7078 101.045 56.7351C100.437 56.8626 100.437 57.4251 100.527 57.8901C100.646 58.417 100.807 58.9337 101.007 59.4351C101.18 59.6976 101.435 60.1851 101.862 60.0501C102.14 59.9601 102.305 59.4576 102.372 59.0976C102.366 58.5551 102.303 58.0147 102.185 57.4851Z" fill="#FFBEB3"/>
<path d="M109.871 57.4695C109.895 57.3446 109.944 57.2258 110.014 57.1201C110.085 57.0144 110.176 56.9239 110.283 56.854C110.389 56.7841 110.508 56.7362 110.633 56.7131C110.758 56.69 110.887 56.6922 111.011 56.7195C111.618 56.8545 111.671 57.432 111.581 57.897C111.581 57.897 111.258 59.082 111.108 59.4345C110.958 59.787 110.643 60.252 110.208 60.072C109.931 59.952 109.751 59.4495 109.676 59.0895C109.683 58.5441 109.748 58.001 109.871 57.4695Z" fill="#FFBEB3"/>
<path d="M110.463 53.9826C110.463 51.9726 109.218 49.9551 105.926 49.9551C102.633 49.9551 101.426 52.1601 101.426 54.1701C101.426 54.2751 101.426 59.7426 102.056 60.9951C102.462 61.7098 103.036 62.3148 103.729 62.7578C104.422 63.2007 105.212 63.4684 106.031 63.5376C106.864 63.5152 107.675 63.2668 108.378 62.819C109.081 62.3711 109.649 61.7407 110.021 60.9951C110.748 59.5776 110.463 53.9826 110.463 53.9826Z" fill="#FFBEB3"/>
<path d="M102.698 54.4541L102.78 54.5141C102.87 54.6041 102.42 55.6091 102.555 55.6166C103.208 55.7516 103.988 54.3416 104.625 54.5366C105.75 54.8891 107.858 57.7166 109.935 57.6641C110.475 57.1316 110.46 54.0041 110.46 54.0041C110.46 51.9941 109.215 49.9766 105.923 49.9766C103.193 49.9766 101.903 51.4766 101.543 53.1566C101.819 53.2754 102.065 53.4531 102.264 53.6773C102.464 53.9014 102.612 54.1666 102.698 54.4541Z" fill="#FFBEB3"/>
<g opacity="0.1">
<path d="M106.784 63.132C105.964 63.0628 105.174 62.7951 104.482 62.3521C103.789 61.9091 103.215 61.3042 102.809 60.5895C102.171 59.337 102.179 53.877 102.179 53.772C102.168 52.8419 102.454 51.9328 102.996 51.177C103.053 51.0101 103.12 50.8472 103.199 50.6895C102.634 51.0783 102.177 51.603 101.869 52.2151C101.561 52.8272 101.412 53.5071 101.436 54.192C101.436 54.297 101.436 59.7645 102.066 61.017C102.472 61.7317 103.047 62.3367 103.739 62.7796C104.432 63.2226 105.222 63.4903 106.041 63.5595C106.915 63.5499 107.765 63.2753 108.479 62.772C107.946 63.0108 107.368 63.1335 106.784 63.132Z" fill="#F0457D"/>
</g>
<path d="M111.202 53.5257C110.797 51.2757 108.952 49.7082 106.042 49.7307C103.132 49.7532 101.16 51.5532 100.792 53.6007C100.598 54.7676 100.523 55.9511 100.567 57.1332C101.07 56.7282 101.272 56.6757 101.512 56.7657C101.677 58.5732 102.075 58.5507 102.075 58.5507C102.075 58.5507 102.112 57.3207 102.187 56.5107C102.262 55.7007 103.597 55.5507 104.257 54.1482C106.365 54.0582 107.685 56.7507 109.995 56.9007C109.899 57.2118 109.875 57.5403 109.923 57.8621C109.971 58.184 110.09 58.491 110.272 58.7607C110.294 58.2137 110.375 57.6706 110.512 57.1407C110.54 57.0548 110.588 56.9769 110.652 56.9137C110.716 56.8505 110.795 56.804 110.882 56.7781C110.968 56.7523 111.06 56.7479 111.148 56.7653C111.237 56.7827 111.319 56.8215 111.39 56.8782C111.491 55.7575 111.428 54.6281 111.202 53.5257Z" fill="#9C5631"/>
<g opacity="0.1">
<path d="M111.203 53.525C110.798 51.275 108.953 49.7075 106.043 49.73C104.981 49.6736 103.928 49.9438 103.024 50.5043C102.12 51.0648 101.41 51.8886 100.988 52.865C101.483 52.0704 102.18 51.4209 103.007 50.9823C103.834 50.5437 104.763 50.3316 105.698 50.3675C108.653 50.3675 110.461 51.95 110.866 54.1625C111.024 55.0206 111.097 55.8924 111.083 56.765C111.176 56.7822 111.263 56.8207 111.338 56.8775C111.457 55.7594 111.412 54.6299 111.203 53.525Z" fill="#FFBEB3"/>
</g>
<g opacity="0.1">
<path d="M104.233 53.0975C103.573 54.5 101.435 55.82 100.543 56.0975C100.547 56.0501 100.547 56.0024 100.543 55.955C100.543 56.3525 100.543 56.75 100.543 57.1475C101.045 56.7425 101.248 56.69 101.488 56.78C101.653 58.5875 102.05 58.565 102.05 58.565C102.05 58.565 102.088 57.335 102.163 56.525C102.238 55.715 103.573 55.565 104.233 54.1625C106.325 54.0725 107.653 56.7425 109.94 56.9075C108.253 56.3075 106.333 53.0075 104.233 53.0975Z" fill="#F0457D"/>
</g>
<path d="M150.59 108.223V109.183H131.945C131.488 104.788 135.59 102.111 139.603 102.118C141.673 102.118 144.583 101.908 146.488 102.831C148.685 103.723 150.605 105.733 150.59 108.223Z" fill="#13183F"/>
<g opacity="0.1">
<path d="M150.59 108.223C150.59 105.756 148.685 103.723 146.495 102.831C144.59 101.908 141.68 102.141 139.61 102.118C138.36 102.121 137.122 102.376 135.973 102.868C136.278 102.838 136.585 102.823 136.895 102.823C138.965 102.823 141.875 102.613 143.78 103.573C145.97 104.466 147.898 106.498 147.875 108.966V109.228H150.59V108.223Z" fill="#13183F"/>
<path d="M141.081 105.276L139.214 106.401C139.189 106.417 139.162 106.427 139.133 106.432C139.105 106.437 139.075 106.436 139.047 106.429C139.019 106.422 138.992 106.409 138.969 106.391C138.946 106.374 138.927 106.351 138.914 106.326L136.911 102.883C136.881 102.832 136.871 102.772 136.885 102.714C136.899 102.656 136.936 102.607 136.986 102.576L138.839 101.601C138.89 101.577 138.949 101.572 139.004 101.587C139.059 101.602 139.106 101.636 139.139 101.683L141.156 104.983C141.187 105.034 141.196 105.095 141.182 105.152C141.168 105.21 141.132 105.26 141.081 105.291V105.276Z" fill="#13183F"/>
<path d="M141.463 105.276L143.323 106.401C143.374 106.432 143.435 106.441 143.492 106.427C143.55 106.413 143.6 106.377 143.631 106.326L145.641 102.876C145.657 102.852 145.668 102.825 145.672 102.796C145.677 102.767 145.676 102.738 145.669 102.71C145.662 102.681 145.649 102.655 145.631 102.632C145.614 102.609 145.591 102.59 145.566 102.576L143.721 101.609C143.669 101.583 143.61 101.577 143.555 101.592C143.5 101.608 143.452 101.643 143.421 101.691L141.388 104.984C141.372 105.007 141.361 105.034 141.355 105.063C141.35 105.091 141.35 105.12 141.357 105.148C141.363 105.176 141.375 105.203 141.392 105.226C141.409 105.25 141.431 105.269 141.456 105.284L141.463 105.276Z" fill="#13183F"/>
</g>
<path d="M141.27 104.728C140.724 104.726 140.201 104.508 139.816 104.121C139.431 103.735 139.215 103.211 139.215 102.665V97.1979C139.247 96.6734 139.477 96.1807 139.86 95.8205C140.242 95.4603 140.748 95.2598 141.274 95.2598C141.799 95.2598 142.305 95.4603 142.687 95.8205C143.07 96.1807 143.301 96.6734 143.332 97.1979V102.673C143.33 103.219 143.112 103.741 142.726 104.127C142.339 104.512 141.816 104.728 141.27 104.728Z" fill="#FFBEB3"/>
<g opacity="0.15">
<path d="M143.231 103.303C143.093 103.713 142.829 104.07 142.477 104.322C142.125 104.575 141.703 104.711 141.27 104.711C140.837 104.711 140.415 104.575 140.063 104.322C139.711 104.07 139.447 103.713 139.309 103.303C139.549 103.588 139.85 103.818 140.188 103.976C140.527 104.133 140.896 104.215 141.27 104.215C141.643 104.215 142.013 104.133 142.351 103.976C142.69 103.818 142.99 103.588 143.231 103.303Z" fill="#F0457D"/>
</g>
<path d="M141.095 104.833L139.392 105.868C139.345 105.896 139.289 105.904 139.236 105.892C139.183 105.879 139.137 105.846 139.107 105.8L137.262 102.643C137.235 102.595 137.227 102.538 137.241 102.485C137.255 102.431 137.29 102.386 137.337 102.358L139.032 101.465C139.079 101.442 139.132 101.437 139.182 101.451C139.231 101.465 139.274 101.497 139.302 101.54L141.155 104.54C141.183 104.587 141.191 104.643 141.179 104.696C141.166 104.75 141.133 104.796 141.087 104.825L141.095 104.833Z" fill="#13183F"/>
<path d="M141.449 104.832L143.151 105.867C143.198 105.895 143.254 105.904 143.308 105.891C143.361 105.879 143.407 105.846 143.436 105.8L145.281 102.642C145.309 102.594 145.316 102.538 145.302 102.484C145.288 102.431 145.254 102.385 145.206 102.357L143.504 101.457C143.458 101.434 143.404 101.429 143.355 101.443C143.305 101.457 143.262 101.489 143.234 101.532L141.381 104.532C141.353 104.579 141.345 104.635 141.357 104.689C141.37 104.742 141.403 104.788 141.449 104.817V104.832Z" fill="#13183F"/>
<path d="M137.193 95.1727C137.171 95.0437 137.123 94.9204 137.053 94.8098C136.982 94.6993 136.891 94.6037 136.784 94.5285C136.676 94.4533 136.555 94.3999 136.427 94.3715C136.3 94.343 136.167 94.34 136.038 94.3627H135.993C135.356 94.4977 135.356 95.1127 135.453 95.5852C135.57 96.1396 135.738 96.682 135.956 97.2052C136.136 97.4827 136.406 98.0077 136.856 97.8577C137.148 97.7602 137.321 97.2352 137.396 96.8527C137.385 96.2873 137.318 95.7244 137.193 95.1727Z" fill="#FFBEB3"/>
<path d="M145.281 95.1492C145.302 95.0204 145.349 94.8973 145.419 94.7868C145.488 94.6763 145.579 94.5807 145.686 94.5054C145.793 94.4301 145.913 94.3767 146.04 94.3482C146.168 94.3196 146.3 94.3166 146.428 94.3392H146.481C147.118 94.4817 147.178 95.0892 147.081 95.5767C147.081 95.5767 146.736 96.8292 146.578 97.2042C146.421 97.5792 146.098 98.0592 145.633 97.8642C145.341 97.7442 145.146 97.2117 145.078 96.8292C145.089 96.2637 145.156 95.7009 145.281 95.1492Z" fill="#FFBEB3"/>
<path d="M145.904 91.4816C145.904 89.3666 144.592 87.2441 141.119 87.2441C137.647 87.2441 136.387 89.5691 136.387 91.6916C136.387 91.7966 136.387 97.5566 137.047 98.8766C137.475 99.6301 138.081 100.268 138.812 100.734C139.542 101.201 140.375 101.482 141.239 101.554C142.117 101.538 142.973 101.281 143.715 100.811C144.457 100.342 145.056 99.6778 145.447 98.8916C146.197 97.3766 145.904 91.4816 145.904 91.4816Z" fill="#FFBEB3"/>
<path d="M145.28 99.1699C145.243 99.2016 145.203 99.2293 145.16 99.2524L145.28 99.1699Z" fill="#F2F2F2"/>
<g opacity="0.15">
<path d="M142.026 101.12C141.162 101.048 140.329 100.767 139.598 100.301C138.868 99.8341 138.262 99.1961 137.834 98.4423C137.196 97.1223 137.196 91.3623 137.196 91.2573C137.181 90.2767 137.48 89.317 138.051 88.5198C138.113 88.3453 138.186 88.175 138.269 88.0098C137.674 88.419 137.191 88.9716 136.866 89.6165C136.541 90.2615 136.384 90.978 136.409 91.6998C136.409 91.8123 136.409 97.5723 137.069 98.8923C137.498 99.6449 138.104 100.282 138.835 100.748C139.565 101.215 140.398 101.497 141.261 101.57C142.181 101.561 143.077 101.27 143.826 100.737C143.261 100.994 142.647 101.125 142.026 101.12Z" fill="#F0457D"/>
</g>
<path d="M145.376 94.5499C145.275 94.8781 145.248 95.2247 145.297 95.5645C145.347 95.9043 145.471 96.229 145.661 96.5149C145.687 95.9376 145.772 95.3646 145.916 94.8049C145.939 94.7298 145.977 94.66 146.027 94.5998C146.078 94.5395 146.14 94.4901 146.21 94.4544C146.28 94.4187 146.356 94.3975 146.435 94.392C146.513 94.3865 146.592 94.3968 146.666 94.4224C146.738 94.4436 146.804 94.4793 146.861 94.5274C146.975 93.3478 146.916 92.1579 146.688 90.9949C146.246 88.6624 144.341 86.9824 141.228 86.9824C138.116 86.9824 136.091 88.9174 135.693 91.0699C135.489 92.3088 135.409 93.565 135.453 94.8199C135.978 94.3924 136.203 94.3399 136.451 94.4374C136.623 96.3424 137.036 96.3124 137.036 96.3124C137.036 96.3124 137.036 95.0149 137.156 94.1599L137.223 93.4699C137.268 93.0058 137.484 92.5749 137.83 92.2615C138.175 91.9481 138.625 91.7746 139.091 91.7749H143.463C143.944 91.7744 144.405 91.9587 144.753 92.2897C145.101 92.6207 145.308 93.0729 145.331 93.5524L145.376 94.5499Z" fill="#FFD44D"/>
<g opacity="0.15">
<path d="M146.684 90.9949C146.256 88.6624 144.351 86.9824 141.231 86.9824C138.509 86.9824 136.604 88.4824 135.906 90.2824C136.439 89.4382 137.186 88.7509 138.072 88.2909C138.957 87.8309 139.949 87.6149 140.946 87.6649C144.059 87.6649 145.964 89.3374 146.391 91.6624C146.559 92.5701 146.636 93.492 146.624 94.4149C146.722 94.4327 146.815 94.4738 146.894 94.5349C146.991 93.3509 146.921 92.1591 146.684 90.9949Z" fill="#FFBEB3"/>
</g>
</g>
</g>
<defs>
<linearGradient id="paint0_linear_1498_17668" x1="0" y1="88.077" x2="271.706" y2="88.077" gradientUnits="userSpaceOnUse">
<stop stop-color="#68E1FD"/>
<stop offset="1" stop-color="#69B9EB"/>
</linearGradient>
<linearGradient id="paint1_linear_1498_17668" x1="-38.7399" y1="51.8517" x2="374.715" y2="136.201" gradientUnits="userSpaceOnUse">
<stop stop-color="white" stop-opacity="0"/>
<stop offset="1" stop-color="white"/>
</linearGradient>
<linearGradient id="paint2_linear_1498_17668" x1="-23.2032" y1="24.3986" x2="462.346" y2="14.5836" gradientUnits="userSpaceOnUse">
<stop offset="0.02" stop-opacity="0"/>
<stop offset="0.99" stop-color="#3F3D56"/>
</linearGradient>
<linearGradient id="paint3_linear_1498_17668" x1="182.228" y1="117.451" x2="289.707" y2="218.597" gradientUnits="userSpaceOnUse">
<stop stop-opacity="0"/>
<stop offset="0.02" stop-color="#030304" stop-opacity="0.04"/>
<stop offset="0.18" stop-color="#181821" stop-opacity="0.39"/>
<stop offset="0.35" stop-color="#292839" stop-opacity="0.66"/>
<stop offset="0.53" stop-color="#363449" stop-opacity="0.85"/>
<stop offset="0.73" stop-color="#3D3B53" stop-opacity="0.96"/>
<stop offset="0.99" stop-color="#3F3D56"/>
</linearGradient>
<linearGradient id="paint4_linear_1498_17668" x1="234.992" y1="143.514" x2="143.378" y2="170.553" gradientUnits="userSpaceOnUse">
<stop stop-opacity="0"/>
<stop offset="0.02" stop-color="#030304" stop-opacity="0.04"/>
<stop offset="0.18" stop-color="#181821" stop-opacity="0.39"/>
<stop offset="0.35" stop-color="#292839" stop-opacity="0.66"/>
<stop offset="0.53" stop-color="#363449" stop-opacity="0.85"/>
<stop offset="0.73" stop-color="#3D3B53" stop-opacity="0.96"/>
<stop offset="0.99" stop-color="#3F3D56"/>
</linearGradient>
<linearGradient id="paint5_linear_1498_17668" x1="163.907" y1="134.29" x2="176.963" y2="134.29" gradientUnits="userSpaceOnUse">
<stop stop-color="#ECC4D7"/>
<stop offset="0.42" stop-color="#EFD4D1"/>
<stop offset="1" stop-color="#F2EAC9"/>
</linearGradient>
<linearGradient id="paint6_linear_1498_17668" x1="198.742" y1="175.272" x2="223.349" y2="175.272" gradientUnits="userSpaceOnUse">
<stop stop-color="#68E1FD"/>
<stop offset="1" stop-color="#69B9EB"/>
</linearGradient>
<linearGradient id="paint7_linear_1498_17668" x1="208.484" y1="118.49" x2="220.146" y2="118.28" gradientUnits="userSpaceOnUse">
<stop stop-color="#ECC4D7"/>
<stop offset="0.42" stop-color="#EFD4D1"/>
<stop offset="1" stop-color="#F2EAC9"/>
</linearGradient>
<linearGradient id="paint8_linear_1498_17668" x1="209.164" y1="116.597" x2="206.759" y2="117.866" gradientUnits="userSpaceOnUse">
<stop stop-color="#ECC4D7"/>
<stop offset="0.42" stop-color="#EFD4D1"/>
<stop offset="1" stop-color="#F2EAC9"/>
</linearGradient>
<linearGradient id="paint9_linear_1498_17668" x1="214.587" y1="142.902" x2="184.259" y2="131.033" gradientUnits="userSpaceOnUse">
<stop stop-color="white" stop-opacity="0"/>
<stop offset="1" stop-color="white"/>
</linearGradient>
<linearGradient id="paint10_linear_1498_17668" x1="195.526" y1="249.55" x2="210.836" y2="249.55" gradientUnits="userSpaceOnUse">
<stop stop-opacity="0"/>
<stop offset="0.02" stop-color="#030304" stop-opacity="0.04"/>
<stop offset="0.18" stop-color="#181821" stop-opacity="0.39"/>
<stop offset="0.35" stop-color="#292839" stop-opacity="0.66"/>
<stop offset="0.53" stop-color="#363449" stop-opacity="0.85"/>
<stop offset="0.73" stop-color="#3D3B53" stop-opacity="0.96"/>
<stop offset="0.99" stop-color="#3F3D56"/>
</linearGradient>
<linearGradient id="paint11_linear_1498_17668" x1="211.292" y1="250.632" x2="220.199" y2="250.632" gradientUnits="userSpaceOnUse">
<stop stop-opacity="0"/>
<stop offset="0.02" stop-color="#030304" stop-opacity="0.04"/>
<stop offset="0.18" stop-color="#181821" stop-opacity="0.39"/>
<stop offset="0.35" stop-color="#292839" stop-opacity="0.66"/>
<stop offset="0.53" stop-color="#363449" stop-opacity="0.85"/>
<stop offset="0.73" stop-color="#3D3B53" stop-opacity="0.96"/>
<stop offset="0.99" stop-color="#3F3D56"/>
</linearGradient>
<clipPath id="clip0_1498_17668">
<rect width="272.34" height="256" fill="white"/>
</clipPath>
</defs>
</svg>
