<svg width="52" height="52" viewBox="0 0 52 52" fill="none" xmlns="http://www.w3.org/2000/svg">
<rect x="0.5" y="0.5" width="51" height="51" rx="5.5" fill="#39B939" fill-opacity="0.06"/>
<rect x="0.5" y="0.5" width="51" height="51" rx="5.5" stroke="#C4EAC4"/>
<path d="M19.2536 13.7809L8.96568 24.0711C8.25544 24.7815 8.25544 25.9333 8.96568 26.6437L20.5396 38.2202C21.2498 38.9306 22.4013 38.9306 23.1115 38.2202L33.3995 27.93C34.1097 27.2196 34.1097 26.0678 33.3995 25.3574L21.8256 13.7809C21.1153 13.0705 19.9638 13.0705 19.2536 13.7809Z" stroke="#308F00" stroke-width="1.5" stroke-linecap="round" stroke-linejoin="round"/>
<path d="M30.1755 13.7809L19.8876 24.0711C19.1773 24.7815 19.1773 25.9333 19.8876 26.6437L30.1755 36.9339C30.8857 37.6443 32.0372 37.6443 32.7474 36.9339L43.0353 26.6437C43.7456 25.9333 43.7456 24.7815 43.0353 24.0711L32.7474 13.7809C32.0372 13.0705 30.8857 13.0705 30.1755 13.7809Z" stroke="#308F00" stroke-width="1.5" stroke-linecap="round" stroke-linejoin="round"/>
</svg>
