<svg width="50" height="50" viewBox="0 0 50 50" fill="none" xmlns="http://www.w3.org/2000/svg">
<path d="M0 12C0 5.37258 5.37258 0 12 0H38C44.6274 0 50 5.37258 50 12V38C50 44.6274 44.6274 50 38 50H12C5.37258 50 0 44.6274 0 38V12Z" fill="#1B95F8" fill-opacity="0.1"/>
<path d="M12 1H38C44.0751 1 49 5.92487 49 12V38C49 44.0751 44.0751 49 38 49H12C5.92487 49 1 44.0751 1 38V12L1.01465 11.4336C1.30945 5.6217 6.11484 1 12 1Z" stroke="#1B95F8" stroke-opacity="0.3" stroke-width="2"/>
<mask id="path-3-inside-1_1264_3125" fill="white">
<path d="M10 14.5V35.5H28V32.5H25C23.335 32.5 22 31.165 22 29.5V20.5C22 18.835 23.335 17.5 25 17.5H28V14.5M28 17.5V20.5H31V17.5M28 20.5H25V29.5H28M28 29.5V32.5H31V29.5M14.5 17.5H17.5C19.165 17.5 20.5 18.835 20.5 20.5V29.5C20.5 31.165 19.165 32.5 17.5 32.5H14.5C12.835 32.5 11.5 31.165 11.5 29.5V20.5C11.5 18.835 12.835 17.5 14.5 17.5ZM32.5 17.5V32.5H35.5V26.5H37V28H38.5V32.5H41.5V28H40V25H41.5V19H40V17.5M14.5 20.5V29.5H17.5V20.5M35.5 20.5H38.5V23.5H35.5V20.5Z"/>
</mask>
<path d="M10 14.5V35.5H28V32.5H25C23.335 32.5 22 31.165 22 29.5V20.5C22 18.835 23.335 17.5 25 17.5H28V14.5M28 17.5V20.5H31V17.5M28 20.5H25V29.5H28M28 29.5V32.5H31V29.5M14.5 17.5H17.5C19.165 17.5 20.5 18.835 20.5 20.5V29.5C20.5 31.165 19.165 32.5 17.5 32.5H14.5C12.835 32.5 11.5 31.165 11.5 29.5V20.5C11.5 18.835 12.835 17.5 14.5 17.5ZM32.5 17.5V32.5H35.5V26.5H37V28H38.5V32.5H41.5V28H40V25H41.5V19H40V17.5M14.5 20.5V29.5H17.5V20.5M35.5 20.5H38.5V23.5H35.5V20.5Z" fill="#1B95F8"/>
<path d="M10 35.5H9V36.5H10V35.5ZM28 35.5V36.5H29V35.5H28ZM31 20.5V21.5H32V20.5H31ZM25 20.5V19.5H24V20.5H25ZM25 29.5H24V30.5H25V29.5ZM28 29.5H29V28.5H28V29.5ZM31 32.5V33.5H32V32.5H31ZM32.5 32.5H31.5V33.5H32.5V32.5ZM35.5 32.5V33.5H36.5V32.5H35.5ZM35.5 26.5V25.5H34.5V26.5H35.5ZM37 26.5H38V25.5H37V26.5ZM37 28H36V29H37V28ZM38.5 28H39.5V27H38.5V28ZM38.5 32.5H37.5V33.5H38.5V32.5ZM41.5 32.5V33.5H42.5V32.5H41.5ZM41.5 28H42.5V27H41.5V28ZM40 28H39V29H40V28ZM40 25V24H39V25H40ZM41.5 25V26H42.5V25H41.5ZM41.5 19H42.5V18H41.5V19ZM40 19H39V20H40V19ZM14.5 29.5H13.5V30.5H14.5V29.5ZM17.5 29.5V30.5H18.5V29.5H17.5ZM35.5 20.5V19.5H34.5V20.5H35.5ZM38.5 20.5H39.5V19.5H38.5V20.5ZM38.5 23.5V24.5H39.5V23.5H38.5ZM35.5 23.5H34.5V24.5H35.5V23.5ZM10 14.5H9V35.5H10H11V14.5H10ZM10 35.5V36.5H28V35.5V34.5H10V35.5ZM28 35.5H29V32.5H28H27V35.5H28ZM28 32.5V31.5H25V32.5V33.5H28V32.5ZM25 32.5V31.5C23.8873 31.5 23 30.6127 23 29.5H22H21C21 31.7173 22.7827 33.5 25 33.5V32.5ZM22 29.5H23V20.5H22H21V29.5H22ZM22 20.5H23C23 19.3873 23.8873 18.5 25 18.5V17.5V16.5C22.7827 16.5 21 18.2827 21 20.5H22ZM25 17.5V18.5H28V17.5V16.5H25V17.5ZM28 17.5H29V14.5H28H27V17.5H28ZM28 17.5H27V20.5H28H29V17.5H28ZM28 20.5V21.5H31V20.5V19.5H28V20.5ZM31 20.5H32V17.5H31H30V20.5H31ZM28 20.5V19.5H25V20.5V21.5H28V20.5ZM25 20.5H24V29.5H25H26V20.5H25ZM25 29.5V30.5H28V29.5V28.5H25V29.5ZM28 29.5H27V32.5H28H29V29.5H28ZM28 32.5V33.5H31V32.5V31.5H28V32.5ZM31 32.5H32V29.5H31H30V32.5H31ZM14.5 17.5V18.5H17.5V17.5V16.5H14.5V17.5ZM17.5 17.5V18.5C18.6127 18.5 19.5 19.3873 19.5 20.5H20.5H21.5C21.5 18.2827 19.7173 16.5 17.5 16.5V17.5ZM20.5 20.5H19.5V29.5H20.5H21.5V20.5H20.5ZM20.5 29.5H19.5C19.5 30.6127 18.6127 31.5 17.5 31.5V32.5V33.5C19.7173 33.5 21.5 31.7173 21.5 29.5H20.5ZM17.5 32.5V31.5H14.5V32.5V33.5H17.5V32.5ZM14.5 32.5V31.5C13.3873 31.5 12.5 30.6127 12.5 29.5H11.5H10.5C10.5 31.7173 12.2827 33.5 14.5 33.5V32.5ZM11.5 29.5H12.5V20.5H11.5H10.5V29.5H11.5ZM11.5 20.5H12.5C12.5 19.3873 13.3873 18.5 14.5 18.5V17.5V16.5C12.2827 16.5 10.5 18.2827 10.5 20.5H11.5ZM32.5 17.5H31.5V32.5H32.5H33.5V17.5H32.5ZM32.5 32.5V33.5H35.5V32.5V31.5H32.5V32.5ZM35.5 32.5H36.5V26.5H35.5H34.5V32.5H35.5ZM35.5 26.5V27.5H37V26.5V25.5H35.5V26.5ZM37 26.5H36V28H37H38V26.5H37ZM37 28V29H38.5V28V27H37V28ZM38.5 28H37.5V32.5H38.5H39.5V28H38.5ZM38.5 32.5V33.5H41.5V32.5V31.5H38.5V32.5ZM41.5 32.5H42.5V28H41.5H40.5V32.5H41.5ZM41.5 28V27H40V28V29H41.5V28ZM40 28H41V25H40H39V28H40ZM40 25V26H41.5V25V24H40V25ZM41.5 25H42.5V19H41.5H40.5V25H41.5ZM41.5 19V18H40V19V20H41.5V19ZM40 19H41V17.5H40H39V19H40ZM14.5 20.5H13.5V29.5H14.5H15.5V20.5H14.5ZM14.5 29.5V30.5H17.5V29.5V28.5H14.5V29.5ZM17.5 29.5H18.5V20.5H17.5H16.5V29.5H17.5ZM35.5 20.5V21.5H38.5V20.5V19.5H35.5V20.5ZM38.5 20.5H37.5V23.5H38.5H39.5V20.5H38.5ZM38.5 23.5V22.5H35.5V23.5V24.5H38.5V23.5ZM35.5 23.5H36.5V20.5H35.5H34.5V23.5H35.5Z" fill="#1B95F8" mask="url(#path-3-inside-1_1264_3125)"/>
</svg>
