<svg width="51" height="51" viewBox="0 0 51 51" fill="none" xmlns="http://www.w3.org/2000/svg">
<rect x="0.5" y="0.5" width="50" height="50" rx="8" fill="#B80DFB" fill-opacity="0.06"/>
<rect x="0.5" y="0.5" width="50" height="50" rx="8" stroke="#B80DFB" stroke-opacity="0.5"/>
<mask id="path-2-inside-1_1324_6104" fill="white">
<path d="M35.625 11.1562H17.625C17.1029 11.1562 16.6021 11.3637 16.2329 11.7329C15.8637 12.1021 15.6562 12.6029 15.6562 13.125V16.7812H13.125C12.6029 16.7812 12.1021 16.9887 11.7329 17.3579C11.3637 17.7271 11.1562 18.2279 11.1562 18.75V32.25C11.1562 32.7721 11.3637 33.2729 11.7329 33.6421C12.1021 34.0113 12.6029 34.2188 13.125 34.2188H15.6562V37.875C15.6562 38.3971 15.8637 38.8979 16.2329 39.2671C16.6021 39.6363 17.1029 39.8438 17.625 39.8438H35.625C36.1471 39.8438 36.6479 39.6363 37.0171 39.2671C37.3863 38.8979 37.5938 38.3971 37.5938 37.875V13.125C37.5938 12.6029 37.3863 12.1021 37.0171 11.7329C36.6479 11.3637 36.1471 11.1562 35.625 11.1562ZM29.7188 21.8438H35.9062V29.1562H29.7188V21.8438ZM35.9062 13.125V20.1562H29.7188V18.75C29.7188 18.2279 29.5113 17.7271 29.1421 17.3579C28.7729 16.9887 28.2721 16.7812 27.75 16.7812H27.4688V12.8438H35.625C35.6996 12.8438 35.7711 12.8734 35.8239 12.9261C35.8766 12.9789 35.9062 13.0504 35.9062 13.125ZM17.3438 13.125C17.3438 13.0504 17.3734 12.9789 17.4261 12.9261C17.4789 12.8734 17.5504 12.8438 17.625 12.8438H25.7812V16.7812H17.3438V13.125ZM12.8438 32.25V18.75C12.8438 18.6754 12.8734 18.6039 12.9261 18.5511C12.9789 18.4984 13.0504 18.4688 13.125 18.4688H27.75C27.8246 18.4688 27.8961 18.4984 27.9489 18.5511C28.0016 18.6039 28.0312 18.6754 28.0312 18.75V32.25C28.0312 32.3246 28.0016 32.3961 27.9489 32.4489C27.8961 32.5016 27.8246 32.5312 27.75 32.5312H13.125C13.0504 32.5312 12.9789 32.5016 12.9261 32.4489C12.8734 32.3961 12.8438 32.3246 12.8438 32.25ZM17.3438 37.875V34.2188H25.7812V38.1562H17.625C17.5504 38.1562 17.4789 38.1266 17.4261 38.0739C17.3734 38.0211 17.3438 37.9496 17.3438 37.875ZM35.625 38.1562H27.4688V34.2188H27.75C28.2721 34.2188 28.7729 34.0113 29.1421 33.6421C29.5113 33.2729 29.7188 32.7721 29.7188 32.25V30.8438H35.9062V37.875C35.9062 37.9496 35.8766 38.0211 35.8239 38.0739C35.7711 38.1266 35.6996 38.1562 35.625 38.1562ZM16.9767 28.335L19.3392 25.5L16.9767 22.665C16.9048 22.58 16.8503 22.4816 16.8166 22.3755C16.7828 22.2693 16.7705 22.1576 16.7801 22.0466C16.7898 21.9357 16.8213 21.8277 16.8729 21.729C16.9245 21.6303 16.9951 21.5428 17.0807 21.4715C17.1662 21.4002 17.2651 21.3466 17.3715 21.3137C17.4779 21.2808 17.5897 21.2693 17.7006 21.2799C17.8115 21.2904 17.9192 21.3228 18.0175 21.3752C18.1157 21.4275 18.2027 21.4989 18.2733 21.585L20.4375 24.1823L22.6017 21.585C22.7456 21.4151 22.9507 21.3089 23.1725 21.2896C23.3942 21.2703 23.6147 21.3394 23.7857 21.4819C23.9567 21.6244 24.0646 21.8286 24.0856 22.0503C24.1067 22.2719 24.0394 22.4928 23.8983 22.665L21.5358 25.5L23.8983 28.335C23.9702 28.42 24.0247 28.5184 24.0584 28.6245C24.0922 28.7307 24.1045 28.8424 24.0949 28.9534C24.0852 29.0643 24.0537 29.1723 24.0021 29.271C23.9505 29.3697 23.8799 29.4572 23.7943 29.5285C23.7088 29.5998 23.6099 29.6534 23.5035 29.6863C23.3971 29.7192 23.2853 29.7307 23.1744 29.7201C23.0635 29.7096 22.9558 29.6772 22.8575 29.6248C22.7593 29.5725 22.6723 29.5011 22.6017 29.415L20.4375 26.8177L18.2733 29.415C18.1294 29.5849 17.9243 29.6911 17.7025 29.7104C17.4808 29.7297 17.2603 29.6606 17.0893 29.5181C16.9183 29.3756 16.8104 29.1714 16.7894 28.9497C16.7683 28.7281 16.8356 28.5072 16.9767 28.335Z"/>
</mask>
<path d="M35.625 11.1562H17.625C17.1029 11.1562 16.6021 11.3637 16.2329 11.7329C15.8637 12.1021 15.6562 12.6029 15.6562 13.125V16.7812H13.125C12.6029 16.7812 12.1021 16.9887 11.7329 17.3579C11.3637 17.7271 11.1562 18.2279 11.1562 18.75V32.25C11.1562 32.7721 11.3637 33.2729 11.7329 33.6421C12.1021 34.0113 12.6029 34.2188 13.125 34.2188H15.6562V37.875C15.6562 38.3971 15.8637 38.8979 16.2329 39.2671C16.6021 39.6363 17.1029 39.8438 17.625 39.8438H35.625C36.1471 39.8438 36.6479 39.6363 37.0171 39.2671C37.3863 38.8979 37.5938 38.3971 37.5938 37.875V13.125C37.5938 12.6029 37.3863 12.1021 37.0171 11.7329C36.6479 11.3637 36.1471 11.1562 35.625 11.1562ZM29.7188 21.8438H35.9062V29.1562H29.7188V21.8438ZM35.9062 13.125V20.1562H29.7188V18.75C29.7188 18.2279 29.5113 17.7271 29.1421 17.3579C28.7729 16.9887 28.2721 16.7812 27.75 16.7812H27.4688V12.8438H35.625C35.6996 12.8438 35.7711 12.8734 35.8239 12.9261C35.8766 12.9789 35.9062 13.0504 35.9062 13.125ZM17.3438 13.125C17.3438 13.0504 17.3734 12.9789 17.4261 12.9261C17.4789 12.8734 17.5504 12.8438 17.625 12.8438H25.7812V16.7812H17.3438V13.125ZM12.8438 32.25V18.75C12.8438 18.6754 12.8734 18.6039 12.9261 18.5511C12.9789 18.4984 13.0504 18.4688 13.125 18.4688H27.75C27.8246 18.4688 27.8961 18.4984 27.9489 18.5511C28.0016 18.6039 28.0312 18.6754 28.0312 18.75V32.25C28.0312 32.3246 28.0016 32.3961 27.9489 32.4489C27.8961 32.5016 27.8246 32.5312 27.75 32.5312H13.125C13.0504 32.5312 12.9789 32.5016 12.9261 32.4489C12.8734 32.3961 12.8438 32.3246 12.8438 32.25ZM17.3438 37.875V34.2188H25.7812V38.1562H17.625C17.5504 38.1562 17.4789 38.1266 17.4261 38.0739C17.3734 38.0211 17.3438 37.9496 17.3438 37.875ZM35.625 38.1562H27.4688V34.2188H27.75C28.2721 34.2188 28.7729 34.0113 29.1421 33.6421C29.5113 33.2729 29.7188 32.7721 29.7188 32.25V30.8438H35.9062V37.875C35.9062 37.9496 35.8766 38.0211 35.8239 38.0739C35.7711 38.1266 35.6996 38.1562 35.625 38.1562ZM16.9767 28.335L19.3392 25.5L16.9767 22.665C16.9048 22.58 16.8503 22.4816 16.8166 22.3755C16.7828 22.2693 16.7705 22.1576 16.7801 22.0466C16.7898 21.9357 16.8213 21.8277 16.8729 21.729C16.9245 21.6303 16.9951 21.5428 17.0807 21.4715C17.1662 21.4002 17.2651 21.3466 17.3715 21.3137C17.4779 21.2808 17.5897 21.2693 17.7006 21.2799C17.8115 21.2904 17.9192 21.3228 18.0175 21.3752C18.1157 21.4275 18.2027 21.4989 18.2733 21.585L20.4375 24.1823L22.6017 21.585C22.7456 21.4151 22.9507 21.3089 23.1725 21.2896C23.3942 21.2703 23.6147 21.3394 23.7857 21.4819C23.9567 21.6244 24.0646 21.8286 24.0856 22.0503C24.1067 22.2719 24.0394 22.4928 23.8983 22.665L21.5358 25.5L23.8983 28.335C23.9702 28.42 24.0247 28.5184 24.0584 28.6245C24.0922 28.7307 24.1045 28.8424 24.0949 28.9534C24.0852 29.0643 24.0537 29.1723 24.0021 29.271C23.9505 29.3697 23.8799 29.4572 23.7943 29.5285C23.7088 29.5998 23.6099 29.6534 23.5035 29.6863C23.3971 29.7192 23.2853 29.7307 23.1744 29.7201C23.0635 29.7096 22.9558 29.6772 22.8575 29.6248C22.7593 29.5725 22.6723 29.5011 22.6017 29.415L20.4375 26.8177L18.2733 29.415C18.1294 29.5849 17.9243 29.6911 17.7025 29.7104C17.4808 29.7297 17.2603 29.6606 17.0893 29.5181C16.9183 29.3756 16.8104 29.1714 16.7894 28.9497C16.7683 28.7281 16.8356 28.5072 16.9767 28.335Z" fill="#B80DFB" stroke="#B80DFB" stroke-width="0.125" mask="url(#path-2-inside-1_1324_6104)"/>
</svg>
