<svg width="51" height="51" viewBox="0 0 51 51" fill="none" xmlns="http://www.w3.org/2000/svg">
<rect x="0.5" y="0.5" width="50" height="50" rx="8" fill="#B80DFB" fill-opacity="0.06"/>
<rect x="0.5" y="0.5" width="50" height="50" rx="8" stroke="#B80DFB" stroke-opacity="0.5"/>
<mask id="path-2-inside-1_1324_6422" fill="white">
<path d="M35.5781 24.5625V20.8125C35.578 20.6261 35.5038 20.4474 35.3719 20.3156L28.8094 13.7531C28.6776 13.6212 28.4989 13.547 28.3125 13.5469H17.0625C16.6274 13.5469 16.2101 13.7197 15.9024 14.0274C15.5947 14.3351 15.4219 14.7524 15.4219 15.1875V24.5625C15.4219 24.749 15.496 24.9278 15.6278 25.0597C15.7597 25.1915 15.9385 25.2656 16.125 25.2656C16.3115 25.2656 16.4903 25.1915 16.6222 25.0597C16.754 24.9278 16.8281 24.749 16.8281 24.5625V15.1875C16.8281 15.1253 16.8528 15.0657 16.8968 15.0218C16.9407 14.9778 17.0003 14.9531 17.0625 14.9531H27.6094V20.8125C27.6094 20.999 27.6835 21.1778 27.8153 21.3097C27.9472 21.4415 28.126 21.5156 28.3125 21.5156H34.1719V24.5625C34.1719 24.749 34.246 24.9278 34.3778 25.0597C34.5097 25.1915 34.6885 25.2656 34.875 25.2656C35.0615 25.2656 35.2403 25.1915 35.3722 25.0597C35.504 24.9278 35.5781 24.749 35.5781 24.5625ZM29.0156 15.9469L33.1781 20.1094H29.0156V15.9469ZM18.2344 29.25V34.875C18.2344 35.0615 18.1603 35.2403 18.0284 35.3722C17.8966 35.504 17.7177 35.5781 17.5312 35.5781C17.3448 35.5781 17.1659 35.504 17.0341 35.3722C16.9022 35.2403 16.8281 35.0615 16.8281 34.875V32.7656H14.0156V34.875C14.0156 35.0615 13.9415 35.2403 13.8097 35.3722C13.6778 35.504 13.499 35.5781 13.3125 35.5781C13.126 35.5781 12.9472 35.504 12.8153 35.3722C12.6835 35.2403 12.6094 35.0615 12.6094 34.875V29.25C12.6094 29.0635 12.6835 28.8847 12.8153 28.7528C12.9472 28.621 13.126 28.5469 13.3125 28.5469C13.499 28.5469 13.6778 28.621 13.8097 28.7528C13.9415 28.8847 14.0156 29.0635 14.0156 29.25V31.3594H16.8281V29.25C16.8281 29.0635 16.9022 28.8847 17.0341 28.7528C17.1659 28.621 17.3448 28.5469 17.5312 28.5469C17.7177 28.5469 17.8966 28.621 18.0284 28.7528C18.1603 28.8847 18.2344 29.0635 18.2344 29.25ZM24.7969 29.25C24.7969 29.4365 24.7228 29.6153 24.5909 29.7472C24.4591 29.879 24.2802 29.9531 24.0938 29.9531H22.9219V34.875C22.9219 35.0615 22.8478 35.2403 22.7159 35.3722C22.5841 35.504 22.4052 35.5781 22.2188 35.5781C22.0323 35.5781 21.8534 35.504 21.7216 35.3722C21.5897 35.2403 21.5156 35.0615 21.5156 34.875V29.9531H20.3438C20.1573 29.9531 19.9784 29.879 19.8466 29.7472C19.7147 29.6153 19.6406 29.4365 19.6406 29.25C19.6406 29.0635 19.7147 28.8847 19.8466 28.7528C19.9784 28.621 20.1573 28.5469 20.3438 28.5469H24.0938C24.2802 28.5469 24.4591 28.621 24.5909 28.7528C24.7228 28.8847 24.7969 29.0635 24.7969 29.25ZM33.2344 29.25V34.875C33.2344 35.0615 33.1603 35.2403 33.0284 35.3722C32.8966 35.504 32.7177 35.5781 32.5312 35.5781C32.3448 35.5781 32.1659 35.504 32.0341 35.3722C31.9022 35.2403 31.8281 35.0615 31.8281 34.875V31.3594L30.2812 33.4219C30.2158 33.5092 30.1308 33.5801 30.0332 33.6289C29.9356 33.6777 29.8279 33.7031 29.7188 33.7031C29.6096 33.7031 29.5019 33.6777 29.4043 33.6289C29.3067 33.5801 29.2217 33.5092 29.1562 33.4219L27.6094 31.3594V34.875C27.6094 35.0615 27.5353 35.2403 27.4034 35.3722C27.2716 35.504 27.0927 35.5781 26.9062 35.5781C26.7198 35.5781 26.5409 35.504 26.4091 35.3722C26.2772 35.2403 26.2031 35.0615 26.2031 34.875V29.25C26.2031 29.1024 26.2496 28.9586 26.3358 28.8389C26.4221 28.7192 26.5439 28.6296 26.6839 28.583C26.8239 28.5363 26.975 28.5349 27.1159 28.5789C27.2568 28.6229 27.3802 28.7101 27.4688 28.8281L29.7188 31.8281L31.9688 28.8281C32.0573 28.7101 32.1807 28.6229 32.3216 28.5789C32.4625 28.5349 32.6136 28.5363 32.7536 28.583C32.8936 28.6296 33.0154 28.7192 33.1017 28.8389C33.1879 28.9586 33.2344 29.1024 33.2344 29.25ZM39.7969 34.875C39.7969 35.0615 39.7228 35.2403 39.5909 35.3722C39.4591 35.504 39.2802 35.5781 39.0938 35.5781H35.8125C35.626 35.5781 35.4472 35.504 35.3153 35.3722C35.1835 35.2403 35.1094 35.0615 35.1094 34.875V29.25C35.1094 29.0635 35.1835 28.8847 35.3153 28.7528C35.4472 28.621 35.626 28.5469 35.8125 28.5469C35.999 28.5469 36.1778 28.621 36.3097 28.7528C36.4415 28.8847 36.5156 29.0635 36.5156 29.25V34.1719H39.0938C39.2802 34.1719 39.4591 34.246 39.5909 34.3778C39.7228 34.5097 39.7969 34.6885 39.7969 34.875Z"/>
</mask>
<path d="M35.5781 24.5625V20.8125C35.578 20.6261 35.5038 20.4474 35.3719 20.3156L28.8094 13.7531C28.6776 13.6212 28.4989 13.547 28.3125 13.5469H17.0625C16.6274 13.5469 16.2101 13.7197 15.9024 14.0274C15.5947 14.3351 15.4219 14.7524 15.4219 15.1875V24.5625C15.4219 24.749 15.496 24.9278 15.6278 25.0597C15.7597 25.1915 15.9385 25.2656 16.125 25.2656C16.3115 25.2656 16.4903 25.1915 16.6222 25.0597C16.754 24.9278 16.8281 24.749 16.8281 24.5625V15.1875C16.8281 15.1253 16.8528 15.0657 16.8968 15.0218C16.9407 14.9778 17.0003 14.9531 17.0625 14.9531H27.6094V20.8125C27.6094 20.999 27.6835 21.1778 27.8153 21.3097C27.9472 21.4415 28.126 21.5156 28.3125 21.5156H34.1719V24.5625C34.1719 24.749 34.246 24.9278 34.3778 25.0597C34.5097 25.1915 34.6885 25.2656 34.875 25.2656C35.0615 25.2656 35.2403 25.1915 35.3722 25.0597C35.504 24.9278 35.5781 24.749 35.5781 24.5625ZM29.0156 15.9469L33.1781 20.1094H29.0156V15.9469ZM18.2344 29.25V34.875C18.2344 35.0615 18.1603 35.2403 18.0284 35.3722C17.8966 35.504 17.7177 35.5781 17.5312 35.5781C17.3448 35.5781 17.1659 35.504 17.0341 35.3722C16.9022 35.2403 16.8281 35.0615 16.8281 34.875V32.7656H14.0156V34.875C14.0156 35.0615 13.9415 35.2403 13.8097 35.3722C13.6778 35.504 13.499 35.5781 13.3125 35.5781C13.126 35.5781 12.9472 35.504 12.8153 35.3722C12.6835 35.2403 12.6094 35.0615 12.6094 34.875V29.25C12.6094 29.0635 12.6835 28.8847 12.8153 28.7528C12.9472 28.621 13.126 28.5469 13.3125 28.5469C13.499 28.5469 13.6778 28.621 13.8097 28.7528C13.9415 28.8847 14.0156 29.0635 14.0156 29.25V31.3594H16.8281V29.25C16.8281 29.0635 16.9022 28.8847 17.0341 28.7528C17.1659 28.621 17.3448 28.5469 17.5312 28.5469C17.7177 28.5469 17.8966 28.621 18.0284 28.7528C18.1603 28.8847 18.2344 29.0635 18.2344 29.25ZM24.7969 29.25C24.7969 29.4365 24.7228 29.6153 24.5909 29.7472C24.4591 29.879 24.2802 29.9531 24.0938 29.9531H22.9219V34.875C22.9219 35.0615 22.8478 35.2403 22.7159 35.3722C22.5841 35.504 22.4052 35.5781 22.2188 35.5781C22.0323 35.5781 21.8534 35.504 21.7216 35.3722C21.5897 35.2403 21.5156 35.0615 21.5156 34.875V29.9531H20.3438C20.1573 29.9531 19.9784 29.879 19.8466 29.7472C19.7147 29.6153 19.6406 29.4365 19.6406 29.25C19.6406 29.0635 19.7147 28.8847 19.8466 28.7528C19.9784 28.621 20.1573 28.5469 20.3438 28.5469H24.0938C24.2802 28.5469 24.4591 28.621 24.5909 28.7528C24.7228 28.8847 24.7969 29.0635 24.7969 29.25ZM33.2344 29.25V34.875C33.2344 35.0615 33.1603 35.2403 33.0284 35.3722C32.8966 35.504 32.7177 35.5781 32.5312 35.5781C32.3448 35.5781 32.1659 35.504 32.0341 35.3722C31.9022 35.2403 31.8281 35.0615 31.8281 34.875V31.3594L30.2812 33.4219C30.2158 33.5092 30.1308 33.5801 30.0332 33.6289C29.9356 33.6777 29.8279 33.7031 29.7188 33.7031C29.6096 33.7031 29.5019 33.6777 29.4043 33.6289C29.3067 33.5801 29.2217 33.5092 29.1562 33.4219L27.6094 31.3594V34.875C27.6094 35.0615 27.5353 35.2403 27.4034 35.3722C27.2716 35.504 27.0927 35.5781 26.9062 35.5781C26.7198 35.5781 26.5409 35.504 26.4091 35.3722C26.2772 35.2403 26.2031 35.0615 26.2031 34.875V29.25C26.2031 29.1024 26.2496 28.9586 26.3358 28.8389C26.4221 28.7192 26.5439 28.6296 26.6839 28.583C26.8239 28.5363 26.975 28.5349 27.1159 28.5789C27.2568 28.6229 27.3802 28.7101 27.4688 28.8281L29.7188 31.8281L31.9688 28.8281C32.0573 28.7101 32.1807 28.6229 32.3216 28.5789C32.4625 28.5349 32.6136 28.5363 32.7536 28.583C32.8936 28.6296 33.0154 28.7192 33.1017 28.8389C33.1879 28.9586 33.2344 29.1024 33.2344 29.25ZM39.7969 34.875C39.7969 35.0615 39.7228 35.2403 39.5909 35.3722C39.4591 35.504 39.2802 35.5781 39.0938 35.5781H35.8125C35.626 35.5781 35.4472 35.504 35.3153 35.3722C35.1835 35.2403 35.1094 35.0615 35.1094 34.875V29.25C35.1094 29.0635 35.1835 28.8847 35.3153 28.7528C35.4472 28.621 35.626 28.5469 35.8125 28.5469C35.999 28.5469 36.1778 28.621 36.3097 28.7528C36.4415 28.8847 36.5156 29.0635 36.5156 29.25V34.1719H39.0938C39.2802 34.1719 39.4591 34.246 39.5909 34.3778C39.7228 34.5097 39.7969 34.6885 39.7969 34.875Z" fill="#B80DFB" stroke="#B80DFB" stroke-width="0.125" mask="url(#path-2-inside-1_1324_6422)"/>
</svg>
