<svg width="51" height="51" viewBox="0 0 51 51" fill="none" xmlns="http://www.w3.org/2000/svg">
<rect x="0.5" y="0.5" width="50" height="50" rx="8" fill="#B80DFB" fill-opacity="0.06"/>
<rect x="0.5" y="0.5" width="50" height="50" rx="8" stroke="#B80DFB" stroke-opacity="0.5"/>
<path d="M17.625 28.0625C17.8405 28.0625 18.0468 28.1484 18.1992 28.3008C18.3516 28.4532 18.4375 28.6595 18.4375 28.875V34.2188C18.4375 35.1056 18.0851 35.9559 17.458 36.583C16.8309 37.2101 15.9806 37.5625 15.0938 37.5625C14.2069 37.5625 13.3566 37.2101 12.7295 36.583C12.1024 35.9559 11.75 35.1056 11.75 34.2188C11.75 34.0033 11.8359 33.7969 11.9883 33.6445C12.1407 33.4922 12.347 33.4062 12.5625 33.4062C12.778 33.4062 12.9843 33.4922 13.1367 33.6445C13.2891 33.7969 13.375 34.0033 13.375 34.2188C13.375 34.6746 13.5556 35.1122 13.8779 35.4346C14.2003 35.7569 14.6379 35.9375 15.0938 35.9375C15.5496 35.9375 15.9872 35.7569 16.3096 35.4346C16.6319 35.1122 16.8125 34.6746 16.8125 34.2188V28.875C16.8125 28.6595 16.8984 28.4532 17.0508 28.3008C17.2032 28.1484 17.4095 28.0625 17.625 28.0625ZM22.125 28.0625H24.375C25.3364 28.0625 26.2587 28.4442 26.9385 29.124C27.6183 29.8038 28 30.7261 28 31.6875C28 32.6489 27.6183 33.5712 26.9385 34.251C26.2587 34.9308 25.3364 35.3125 24.375 35.3125H22.9375V36.75C22.9375 36.9655 22.8516 37.1718 22.6992 37.3242C22.5468 37.4766 22.3405 37.5625 22.125 37.5625C21.9095 37.5625 21.7032 37.4766 21.5508 37.3242C21.3984 37.1718 21.3125 36.9655 21.3125 36.75V28.875C21.3125 28.6595 21.3984 28.4532 21.5508 28.3008C21.7032 28.1484 21.9095 28.0625 22.125 28.0625ZM34.5 28.0625C35.2646 28.0652 36.011 28.2967 36.6426 28.7275C36.8213 28.8482 36.9443 29.0354 36.9854 29.2471C37.0263 29.4587 36.9819 29.6778 36.8613 29.8564C36.7407 30.0351 36.5535 30.1592 36.3418 30.2002C36.1303 30.2411 35.911 30.1958 35.7324 30.0752C35.3704 29.8242 34.9405 29.689 34.5 29.6875C33.0808 29.6875 31.9375 31.0956 31.9375 32.8125C31.9375 34.5294 33.0808 35.9375 34.5 35.9375C35.0228 35.9316 35.5278 35.7432 35.9268 35.4053L35.9375 35.3965V34.1875H35.625C35.4095 34.1875 35.2032 34.1016 35.0508 33.9492C34.8984 33.7968 34.8125 33.5905 34.8125 33.375C34.8125 33.1595 34.8984 32.9532 35.0508 32.8008C35.2032 32.6484 35.4095 32.5625 35.625 32.5625H36.75C36.9655 32.5625 37.1718 32.6484 37.3242 32.8008C37.4766 32.9532 37.5625 33.1595 37.5625 33.375V35.7471C37.5624 35.9043 37.5167 36.0572 37.4326 36.1875L37.3359 36.3096C36.9734 36.7005 36.5346 37.0131 36.0469 37.2285C35.5593 37.4439 35.033 37.5578 34.5 37.5625C32.1949 37.5625 30.3125 35.4357 30.3125 32.8125C30.3125 30.1893 32.1949 28.0625 34.5 28.0625ZM22.9375 33.6875H24.375C24.9054 33.6875 25.414 33.4766 25.7891 33.1016C26.1641 32.7265 26.375 32.2179 26.375 31.6875C26.375 31.1571 26.1641 30.6485 25.7891 30.2734C25.414 29.8984 24.9054 29.6875 24.375 29.6875H22.9375V33.6875ZM15.375 11.1875H28.875C29.0904 11.1877 29.297 11.2734 29.4492 11.4258L37.3242 19.3008C37.4766 19.453 37.5623 19.6596 37.5625 19.875V23.25C37.5625 23.4655 37.4766 23.6718 37.3242 23.8242C37.1718 23.9766 36.9655 24.0625 36.75 24.0625C36.5345 24.0625 36.3282 23.9766 36.1758 23.8242C36.0234 23.6718 35.9375 23.4655 35.9375 23.25V20.6875H28.875C28.6595 20.6875 28.4532 20.6016 28.3008 20.4492C28.1484 20.2968 28.0625 20.0905 28.0625 19.875V12.8125H15.375C15.2921 12.8125 15.2129 12.8457 15.1543 12.9043C15.0957 12.9629 15.0625 13.0421 15.0625 13.125V23.25C15.0625 23.4655 14.9766 23.6718 14.8242 23.8242C14.6718 23.9766 14.4655 24.0625 14.25 24.0625C14.0345 24.0625 13.8282 23.9766 13.6758 23.8242C13.5234 23.6718 13.4375 23.4655 13.4375 23.25V13.125C13.4375 12.6111 13.6415 12.1182 14.0049 11.7549C14.3682 11.3915 14.8611 11.1875 15.375 11.1875ZM29.6875 19.0625H34.7891L34.7363 19.0088L29.7412 14.0137L29.6875 13.9609V19.0625Z" fill="#B80DFB" stroke="#B80DFB" stroke-width="0.0625"/>
</svg>
