<svg width="51" height="51" viewBox="0 0 51 51" fill="none" xmlns="http://www.w3.org/2000/svg">
<rect x="0.5" y="0.5" width="50" height="50" rx="8" fill="#B80DFB" fill-opacity="0.06"/>
<rect x="0.5" y="0.5" width="50" height="50" rx="8" stroke="#B80DFB" stroke-opacity="0.5"/>
<path d="M29.1182 11.375L29.3086 11.5664L36.0586 18.3164L36.25 18.5068V39.625H14.75V11.375H29.1182ZM16 38.375H35V19.375H28.25V12.625H16V38.375ZM26.625 22.625C28.8239 22.625 30.625 24.4261 30.625 26.625C30.625 28.8239 28.8239 30.625 26.625 30.625C25.9321 30.625 25.2418 30.4271 24.6523 30.0342L23.875 29.5156V34H22.625V27.125H23.9141C24.0032 27.7068 24.2492 28.218 24.6406 28.6094C25.1408 29.1095 25.8364 29.375 26.625 29.375C27.4136 29.375 28.1092 29.1095 28.6094 28.6094C29.1095 28.1092 29.375 27.4136 29.375 26.625C29.375 25.8364 29.1095 25.1408 28.6094 24.6406C28.1092 24.1405 27.4136 23.875 26.625 23.875H22.625V22.625H26.625ZM29.5 18.125H34.1318L29.5 13.4932V18.125Z" stroke="#B80DFB"/>
</svg>
