<svg width="51" height="51" viewBox="0 0 51 51" fill="none" xmlns="http://www.w3.org/2000/svg">
<rect x="0.5" y="0.5" width="50" height="50" rx="8" fill="#B80DFB" fill-opacity="0.06"/>
<rect x="0.5" y="0.5" width="50" height="50" rx="8" stroke="#B80DFB" stroke-opacity="0.5"/>
<g clip-path="url(#clip0_1324_6434)">
<path d="M27.0205 33.2188C27.4205 33.2188 27.7592 33.275 28.0439 33.377H28.0459C28.3447 33.4833 28.5878 33.625 28.7832 33.7969C28.9725 33.9635 29.119 34.1523 29.2295 34.3623L29.252 34.4072C29.2843 34.4725 29.3125 34.5394 29.3379 34.6074H28.8682C28.8346 34.5309 28.7979 34.4557 28.7549 34.3838L28.7529 34.3809L28.6602 34.2432C28.5636 34.113 28.4493 33.9967 28.3213 33.8965H28.3223C28.3209 33.8954 28.3187 33.8946 28.3174 33.8936C28.3156 33.8922 28.3143 33.8901 28.3125 33.8887H28.3115C28.1323 33.7453 27.9276 33.6372 27.708 33.5703H27.709C27.5367 33.5174 27.3591 33.4844 27.1797 33.4717L27.002 33.4658C26.3343 33.4658 25.766 33.7105 25.3623 34.2227L25.3604 34.2246C24.9753 34.7199 24.8164 35.376 24.8164 36.126V37.0596C24.8164 37.5429 24.8825 37.9879 25.0283 38.3848C25.1722 38.7828 25.4289 39.1305 25.7666 39.3857L25.7783 39.3945L25.79 39.4023C26.1558 39.6468 26.5881 39.7706 27.0273 39.7598V39.7607C27.4019 39.7714 27.7737 39.6928 28.1123 39.5322L28.1211 39.5283L28.1309 39.5234C28.4301 39.3662 28.6777 39.1255 28.8438 38.8311L28.8467 38.8262C29.0017 38.5436 29.0775 38.2337 29.0791 37.9072V36.9268H27.5371V36.8203H29.4922V37.8164C29.4922 38.0455 29.4635 38.263 29.4072 38.4697L29.3418 38.6738C29.2464 38.928 29.0977 39.1582 28.9072 39.3516C28.6938 39.5596 28.4398 39.7211 28.1602 39.8242L28.1572 39.8252C27.8562 39.938 27.4829 40.0019 27.0264 40.002H27.0166C26.5993 40.0098 26.1847 39.9362 25.7949 39.7871C25.5643 39.6915 25.3514 39.5591 25.166 39.3936L24.9883 39.2148C24.8195 39.0183 24.6825 38.7972 24.582 38.5596L24.4932 38.3145C24.3724 37.9104 24.3137 37.4901 24.3184 37.0684V36.1143C24.3184 35.4975 24.4317 34.9824 24.6416 34.5547C24.8248 34.1848 25.0755 33.8917 25.3975 33.668L25.54 33.5762C25.9277 33.3461 26.4139 33.2188 27.0205 33.2188ZM18 11H28.1055L36.25 19.1445V36.75C36.25 37.612 35.9073 38.4384 35.2979 39.0479C34.8075 39.5382 34.1768 39.8556 33.5 39.9609V39.0703C33.9432 38.9748 34.3541 38.7552 34.6797 38.4297C35.1251 37.9843 35.375 37.3799 35.375 36.75V18.4375H31.125C30.5117 18.4375 29.9239 18.1934 29.4902 17.7598C29.0566 17.3261 28.8125 16.7383 28.8125 16.125V11.875H18C17.3701 11.875 16.7657 12.1249 16.3203 12.5703C15.8749 13.0157 15.625 13.6201 15.625 14.25V30.625H14.75V14.25C14.75 13.388 15.0927 12.5616 15.7021 11.9521C16.3116 11.3427 17.138 11 18 11ZM13.501 33.3613C13.9123 33.3604 14.242 33.4342 14.5059 33.5654L14.6152 33.626L14.6221 33.6299C14.9064 33.7941 15.1391 34.0351 15.293 34.3252C15.4489 34.6253 15.5312 34.9669 15.5312 35.3604V35.3691C15.5376 35.7261 15.4541 36.0794 15.2881 36.3955C15.1364 36.6815 14.9136 36.9113 14.6094 37.0879C14.3238 37.2494 13.9572 37.3428 13.4883 37.3428H11.4834V39.8613H11V33.3613H13.501ZM17.7754 33.3613L20.9121 38.124L21.0605 38.3486H21.8896V33.3613H22.2959V39.8594H21.8359L18.6816 35.0684L18.5342 34.8438H17.7041V39.8594L17.3037 39.8604V33.3613H17.7754ZM11.4775 37.1787H13.2129V37.1777C13.5328 37.1843 13.8495 37.115 14.1367 36.9736L14.1445 36.9697L14.1514 36.9668C14.4314 36.8179 14.6592 36.5869 14.8057 36.3057L14.8096 36.2998C14.958 36.0047 15.0304 35.6768 15.0215 35.3467H15.0205C15.0183 34.9008 14.9099 34.4886 14.6475 34.1621L14.5244 34.0264C14.177 33.6852 13.7184 33.543 13.2148 33.543H11.4775V37.1787Z" fill="#B80DFB" stroke="#B80DFB"/>
</g>
<defs>
<clipPath id="clip0_1324_6434">
<rect width="30" height="30" fill="white" transform="translate(10.5 10.5)"/>
</clipPath>
</defs>
</svg>
