<svg width="51" height="51" viewBox="0 0 51 51" fill="none" xmlns="http://www.w3.org/2000/svg">
<rect x="0.5" y="0.5" width="50" height="50" rx="8" fill="#B80DFB" fill-opacity="0.06"/>
<rect x="0.5" y="0.5" width="50" height="50" rx="8" stroke="#B80DFB" stroke-opacity="0.5"/>
<path d="M10.5 25.5C10.5 29.4782 12.0804 33.2936 14.8934 36.1066C17.7064 38.9196 21.5218 40.5 25.5 40.5C29.4782 40.5 33.2936 38.9196 36.1066 36.1066C38.9196 33.2936 40.5 29.4782 40.5 25.5C40.5 21.5218 38.9196 17.7064 36.1066 14.8934C33.2936 12.0804 29.4782 10.5 25.5 10.5C21.5218 10.5 17.7064 12.0804 14.8934 14.8934C12.0804 17.7064 10.5 21.5218 10.5 25.5Z" stroke="#B80DFB" stroke-width="2" stroke-linejoin="round"/>
<path d="M19.0664 25.5C19.0664 21.5218 19.7437 17.7064 20.9493 14.8934C22.1549 12.0804 23.79 10.5 25.495 10.5C27.1999 10.5 28.8351 12.0804 30.0407 14.8934C31.2463 17.7064 31.9235 21.5218 31.9235 25.5C31.9235 29.4782 31.2463 33.2936 30.0407 36.1066C28.8351 38.9196 27.1999 40.5 25.495 40.5C23.79 40.5 22.1549 38.9196 20.9493 36.1066C19.7437 33.2936 19.0664 29.4782 19.0664 25.5Z" stroke="#B80DFB" stroke-width="2" stroke-linejoin="round"/>
<path d="M11.5664 30.5H39.4235M11.5664 20.5H39.4235" stroke="#B80DFB" stroke-width="2" stroke-linecap="round"/>
</svg>
