<svg width="51" height="51" viewBox="0 0 51 51" fill="none" xmlns="http://www.w3.org/2000/svg">
<rect x="0.5" y="0.5" width="50" height="50" rx="8" fill="#B80DFB" fill-opacity="0.06"/>
<rect x="0.5" y="0.5" width="50" height="50" rx="8" stroke="#B80DFB" stroke-opacity="0.5"/>
<path d="M18 11H28.1055L36.25 19.1445V36.75C36.25 37.612 35.9073 38.4384 35.2979 39.0479C34.6884 39.6573 33.862 40 33 40H31.625V39.125H33C33.6299 39.125 34.2343 38.8751 34.6797 38.4297C35.1251 37.9843 35.375 37.3799 35.375 36.75V18.4375H31.125C30.5117 18.4375 29.9239 18.1934 29.4902 17.7598C29.0566 17.3261 28.8125 16.7383 28.8125 16.125V11.875H18C17.3701 11.875 16.7657 12.1249 16.3203 12.5703C15.8749 13.0157 15.625 13.6201 15.625 14.25V30.625H14.75V14.25C14.75 13.388 15.0927 12.5616 15.7021 11.9521C16.3116 11.3427 17.138 11 18 11ZM19.5391 33.2188C20.2388 33.2188 20.7721 33.3535 21.1689 33.5879V33.5869C21.5718 33.827 21.8864 34.191 22.0664 34.624L22.0703 34.6338C22.2804 35.1107 22.3955 35.7105 22.3955 36.4482C22.3955 37.1912 22.2801 37.7973 22.0693 38.2812L22.0664 38.2891C21.884 38.729 21.5649 39.0992 21.1562 39.3438H21.1553C20.7581 39.5813 20.2297 39.7168 19.541 39.7168H17.3037V33.2188H19.5391ZM28.1016 33.2188V33.4434H24.8047V36.5371H27.8164V36.7334H24.8047V39.7168H24.3242V33.2188H28.1016ZM13.501 33.2188C13.9124 33.2178 14.242 33.2925 14.5059 33.4238L14.6152 33.4834L14.6221 33.4873C14.9064 33.6515 15.1391 33.8925 15.293 34.1826C15.4487 34.4811 15.5312 34.8226 15.5312 35.2178V35.2266C15.5376 35.584 15.4536 35.9376 15.2871 36.2539C15.1356 36.5406 14.9149 36.7688 14.6123 36.9424C14.3264 37.1061 13.9588 37.2002 13.4883 37.2002H11.4834V39.7168H11V33.2188H13.501ZM17.7871 39.5039H19.3428V39.5029C19.6184 39.5078 19.8929 39.4747 20.1582 39.4033L20.4229 39.3184L20.4346 39.3145C20.7639 39.1822 21.052 38.9639 21.2695 38.6836L21.2734 38.6797C21.494 38.3883 21.6491 38.0527 21.7295 37.6963L21.7285 37.6953C21.8025 37.3953 21.849 37.0894 21.8643 36.7812L21.8691 36.4688C21.8685 35.8686 21.7905 35.3342 21.6143 34.8828H21.6133C21.4535 34.4379 21.1546 34.0563 20.7598 33.7959L20.7539 33.792L20.5996 33.7031C20.2326 33.5115 19.8062 33.4278 19.3428 33.4277H17.7871V39.5039ZM11.4775 37.0361H13.2129V37.0352C13.5328 37.0417 13.8495 36.9724 14.1367 36.8311L14.1445 36.8271L14.1514 36.8232C14.4319 36.6736 14.6606 36.4425 14.8066 36.1602L14.8096 36.1553C14.9575 35.861 15.03 35.5344 15.0215 35.2051C15.0191 34.6951 14.8759 34.2295 14.5264 33.8838L14.5244 33.8818C14.1768 33.5418 13.7181 33.4004 13.2148 33.4004H11.4775V37.0361Z" fill="#B80DFB" stroke="#B80DFB"/>
</svg>
