<svg width="51" height="51" viewBox="0 0 51 51" fill="none" xmlns="http://www.w3.org/2000/svg">
<rect x="0.5" y="0.5" width="50" height="50" rx="8" fill="#B80DFB" fill-opacity="0.06"/>
<rect x="0.5" y="0.5" width="50" height="50" rx="8" stroke="#B80DFB" stroke-opacity="0.5"/>
<path d="M35.625 11.1562H17.625C17.1029 11.1562 16.6021 11.3637 16.2329 11.7329C15.8637 12.1021 15.6562 12.6029 15.6562 13.125V16.7812H13.125C12.6029 16.7812 12.1021 16.9887 11.7329 17.3579C11.3637 17.7271 11.1562 18.2279 11.1562 18.75V32.25C11.1562 32.7721 11.3637 33.2729 11.7329 33.6421C12.1021 34.0113 12.6029 34.2188 13.125 34.2188H15.6562V37.875C15.6562 38.3971 15.8637 38.8979 16.2329 39.2671C16.6021 39.6363 17.1029 39.8438 17.625 39.8438H35.625C36.1471 39.8438 36.6479 39.6363 37.0171 39.2671C37.3863 38.8979 37.5938 38.3971 37.5938 37.875V13.125C37.5938 12.6029 37.3863 12.1021 37.0171 11.7329C36.6479 11.3637 36.1471 11.1562 35.625 11.1562ZM29.7188 21.8438H35.9062V29.1562H29.7188V21.8438ZM17.3438 13.125C17.3438 13.0504 17.3734 12.9789 17.4261 12.9261C17.4789 12.8734 17.5504 12.8438 17.625 12.8438H35.625C35.6996 12.8438 35.7711 12.8734 35.8239 12.9261C35.8766 12.9789 35.9062 13.0504 35.9062 13.125V20.1562H29.7188V18.75C29.7188 18.2279 29.5113 17.7271 29.1421 17.3579C28.7729 16.9887 28.2721 16.7812 27.75 16.7812H17.3438V13.125ZM12.8438 32.25V18.75C12.8438 18.6754 12.8734 18.6039 12.9261 18.5511C12.9789 18.4984 13.0504 18.4688 13.125 18.4688H27.75C27.8246 18.4688 27.8961 18.4984 27.9489 18.5511C28.0016 18.6039 28.0312 18.6754 28.0312 18.75V32.25C28.0312 32.3246 28.0016 32.3961 27.9489 32.4489C27.8961 32.5016 27.8246 32.5312 27.75 32.5312H13.125C13.0504 32.5312 12.9789 32.5016 12.9261 32.4489C12.8734 32.3961 12.8438 32.3246 12.8438 32.25ZM35.625 38.1562H17.625C17.5504 38.1562 17.4789 38.1266 17.4261 38.0739C17.3734 38.0211 17.3438 37.9496 17.3438 37.875V34.2188H27.75C28.2721 34.2188 28.7729 34.0113 29.1421 33.6421C29.5113 33.2729 29.7188 32.7721 29.7188 32.25V30.8438H35.9062V37.875C35.9062 37.9496 35.8766 38.0211 35.8239 38.0739C35.7711 38.1266 35.6996 38.1562 35.625 38.1562ZM17.3691 29.0803L15.6816 22.3303C15.6546 22.2228 15.6491 22.1111 15.6653 22.0015C15.6815 21.8919 15.7192 21.7865 15.7761 21.6915C15.833 21.5964 15.9081 21.5135 15.9971 21.4474C16.0861 21.3814 16.1872 21.3335 16.2947 21.3066C16.4022 21.2796 16.5139 21.2741 16.6235 21.2903C16.7331 21.3065 16.8385 21.3442 16.9335 21.4011C17.0286 21.458 17.1115 21.5331 17.1776 21.6221C17.2436 21.7111 17.2915 21.8122 17.3184 21.9197L18.4533 26.4577L19.6823 23.9981C19.7523 23.8577 19.8601 23.7396 19.9935 23.657C20.1268 23.5745 20.2806 23.5307 20.4375 23.5307C20.5944 23.5307 20.7482 23.5745 20.8815 23.657C21.0149 23.7396 21.1227 23.8577 21.1927 23.9981L22.4217 26.4577L23.5566 21.9197C23.5835 21.8122 23.6314 21.7111 23.6974 21.6221C23.7635 21.5331 23.8464 21.458 23.9415 21.4011C24.0365 21.3442 24.1419 21.3065 24.2515 21.2903C24.3611 21.2741 24.4728 21.2796 24.5803 21.3066C24.6878 21.3335 24.7889 21.3814 24.8779 21.4474C24.9669 21.5135 25.042 21.5964 25.0989 21.6915C25.1558 21.7865 25.1935 21.8919 25.2097 22.0015C25.2259 22.1111 25.2204 22.2228 25.1934 22.3303L23.5059 29.0803C23.4639 29.2474 23.3716 29.3976 23.2417 29.5107C23.1117 29.6239 22.9502 29.6945 22.7789 29.7131C22.7485 29.7151 22.7179 29.7151 22.6875 29.7131C22.5307 29.7132 22.3769 29.6695 22.2435 29.587C22.1102 29.5046 22.0024 29.3866 21.9323 29.2463L20.4375 26.2622L18.9427 29.2519C18.8657 29.4062 18.7433 29.5333 18.592 29.6159C18.4406 29.6986 18.2675 29.7329 18.0961 29.7142C17.9247 29.6955 17.7631 29.6247 17.6331 29.5114C17.5031 29.3981 17.4109 29.2476 17.3691 29.0803Z" fill="#B80DFB"/>
</svg>
