<svg width="51" height="51" viewBox="0 0 51 51" fill="none" xmlns="http://www.w3.org/2000/svg">
<rect x="0.5" y="0.5" width="50" height="50" rx="8" fill="#B80DFB" fill-opacity="0.06"/>
<rect x="0.5" y="0.5" width="50" height="50" rx="8" stroke="#B80DFB" stroke-opacity="0.5"/>
<mask id="mask0_1498_21361" style="mask-type:alpha" maskUnits="userSpaceOnUse" x="14" y="14" width="23" height="23">
<path d="M14.25 24.25C14.25 19.5363 14.25 17.1788 15.715 15.715C17.18 14.2512 19.5363 14.25 24.25 14.25H26.75C31.4637 14.25 33.8212 14.25 35.285 15.715C36.7487 17.18 36.75 19.5363 36.75 24.25V26.75C36.75 31.4637 36.75 33.8212 35.285 35.285C33.82 36.7487 31.4637 36.75 26.75 36.75H24.25C19.5363 36.75 17.1788 36.75 15.715 35.285C14.2512 33.82 14.25 31.4637 14.25 26.75V24.25Z" fill="#273B4A"/>
</mask>
<g mask="url(#mask0_1498_21361)">
<path d="M17.2639 26.2378L17.0727 26.4291C15.8477 27.6541 15.2352 28.2666 14.8677 29.0203C14.7402 29.282 14.636 29.5528 14.5552 29.8328C14.3239 30.6378 14.3702 31.5041 14.4614 33.2353L14.8764 41.1253H36.7514V35.1966C36.7514 33.3828 36.7514 32.4753 36.4527 31.6516C36.3715 31.4261 36.2741 31.2068 36.1614 30.9953C35.7489 30.2216 35.0739 29.6153 33.7239 28.4016L33.4564 28.1603C32.3365 27.1516 31.7764 26.6478 31.1364 26.5053C30.7346 26.4154 30.3169 26.4261 29.9202 26.5366C29.2889 26.7128 28.7552 27.2466 27.6902 28.3116C26.8989 29.1028 26.504 29.4978 26.0802 29.5516C25.8168 29.5846 25.5498 29.5329 25.3177 29.4041C24.9427 29.1966 24.7189 28.6753 24.2727 27.6316C23.3214 25.4128 22.8464 24.3041 22.0289 23.8941C21.6173 23.6877 21.1566 23.599 20.6977 23.6378C19.7864 23.7153 18.9464 24.5566 17.2639 26.2378Z" fill="#B80DFB" fill-opacity="0.25" stroke="#B80DFB"/>
</g>
<path d="M14.25 24.25C14.25 19.5363 14.25 17.1787 15.715 15.715C17.18 14.2512 19.5363 14.25 24.25 14.25H26.75C31.4637 14.25 33.8212 14.25 35.285 15.715C36.7487 17.18 36.75 19.5363 36.75 24.25V26.75C36.75 31.4637 36.75 33.8212 35.285 35.285C33.82 36.7487 31.4637 36.75 26.75 36.75H24.25C19.5363 36.75 17.1787 36.75 15.715 35.285C14.2512 33.82 14.25 31.4637 14.25 26.75V24.25Z" stroke="#B80DFB" stroke-width="1.2"/>
<path d="M31.125 21.75C32.1605 21.75 33 20.9105 33 19.875C33 18.8395 32.1605 18 31.125 18C30.0895 18 29.25 18.8395 29.25 19.875C29.25 20.9105 30.0895 21.75 31.125 21.75Z" fill="#B80DFB"/>
</svg>
