<svg width="51" height="51" viewBox="0 0 51 51" fill="none" xmlns="http://www.w3.org/2000/svg">
<rect x="0.5" y="0.5" width="50" height="50" rx="8" fill="#B80DFB" fill-opacity="0.06"/>
<rect x="0.5" y="0.5" width="50" height="50" rx="8" stroke="#B80DFB" stroke-opacity="0.5"/>
<mask id="path-2-inside-1_1324_6172" fill="white">
<path d="M15.05 31.8825H35.95V30.2396H15.05V31.8825ZM15.05 26.3214H35.95V24.6786H15.05V26.3214ZM15.05 20.762H29.6667V19.1191H15.05V20.762ZM13.1933 37C12.4267 37 11.7861 36.747 11.2717 36.241C10.7572 35.735 10.5 35.103 10.5 34.3451V16.6549C10.5 15.898 10.7572 15.2666 11.2717 14.7606C11.7861 14.2546 12.4261 14.0011 13.1917 14H37.8083C38.575 14 39.215 14.2535 39.7283 14.7606C40.2417 15.2677 40.4989 15.8991 40.5 16.6549V34.3468C40.5 35.1025 40.2428 35.7339 39.7283 36.241C39.2139 36.7481 38.5739 37.0011 37.8083 37H13.1933ZM13.1933 35.3571H37.81C38.0656 35.3571 38.3006 35.252 38.515 35.0417C38.7294 34.8314 38.8361 34.5992 38.835 34.3451V16.6549C38.835 16.4019 38.7283 16.1697 38.515 15.9583C38.3017 15.7469 38.0661 15.6418 37.8083 15.6429H13.1917C12.9361 15.6429 12.7011 15.748 12.4867 15.9583C12.2722 16.1686 12.1656 16.4008 12.1667 16.6549V34.3468C12.1667 34.5987 12.2733 34.8303 12.4867 35.0417C12.7 35.2531 12.935 35.3582 13.1917 35.3571"/>
</mask>
<path d="M15.05 31.8825H35.95V30.2396H15.05V31.8825ZM15.05 26.3214H35.95V24.6786H15.05V26.3214ZM15.05 20.762H29.6667V19.1191H15.05V20.762ZM13.1933 37C12.4267 37 11.7861 36.747 11.2717 36.241C10.7572 35.735 10.5 35.103 10.5 34.3451V16.6549C10.5 15.898 10.7572 15.2666 11.2717 14.7606C11.7861 14.2546 12.4261 14.0011 13.1917 14H37.8083C38.575 14 39.215 14.2535 39.7283 14.7606C40.2417 15.2677 40.4989 15.8991 40.5 16.6549V34.3468C40.5 35.1025 40.2428 35.7339 39.7283 36.241C39.2139 36.7481 38.5739 37.0011 37.8083 37H13.1933ZM13.1933 35.3571H37.81C38.0656 35.3571 38.3006 35.252 38.515 35.0417C38.7294 34.8314 38.8361 34.5992 38.835 34.3451V16.6549C38.835 16.4019 38.7283 16.1697 38.515 15.9583C38.3017 15.7469 38.0661 15.6418 37.8083 15.6429H13.1917C12.9361 15.6429 12.7011 15.748 12.4867 15.9583C12.2722 16.1686 12.1656 16.4008 12.1667 16.6549V34.3468C12.1667 34.5987 12.2733 34.8303 12.4867 35.0417C12.7 35.2531 12.935 35.3582 13.1917 35.3571" fill="#B80DFB"/>
<path d="M12.1667 35.3571H12.6667V15.6429H12.1667H11.6667V35.3571H12.1667ZM15.05 31.8825H14.05V32.8825H15.05V31.8825ZM35.95 31.8825V32.8825H36.95V31.8825H35.95ZM35.95 30.2396H36.95V29.2396H35.95V30.2396ZM15.05 30.2396V29.2396H14.05V30.2396H15.05ZM15.05 26.3214H14.05V27.3214H15.05V26.3214ZM35.95 26.3214V27.3214H36.95V26.3214H35.95ZM35.95 24.6786H36.95V23.6786H35.95V24.6786ZM15.05 24.6786V23.6786H14.05V24.6786H15.05ZM15.05 20.762H14.05V21.762H15.05V20.762ZM29.6667 20.762V21.762H30.6667V20.762H29.6667ZM29.6667 19.1191H30.6667V18.1191H29.6667V19.1191ZM15.05 19.1191V18.1191H14.05V19.1191H15.05ZM10.5 34.3451H11.5H10.5ZM13.1917 14V13L13.1902 13L13.1917 14ZM40.5 16.6549H41.5L41.5 16.6534L40.5 16.6549ZM37.8083 37L37.8098 36H37.8083V37ZM38.835 34.3451H37.835L37.835 34.3495L38.835 34.3451ZM37.8083 15.6429V16.6429L37.8126 16.6428L37.8083 15.6429ZM12.1667 16.6549H13.1667L13.1667 16.6505L12.1667 16.6549ZM15.05 31.8825V32.8825H35.95V31.8825V30.8825H15.05V31.8825ZM35.95 31.8825H36.95V30.2396H35.95H34.95V31.8825H35.95ZM35.95 30.2396V29.2396H15.05V30.2396V31.2396H35.95V30.2396ZM15.05 30.2396H14.05V31.8825H15.05H16.05V30.2396H15.05ZM15.05 26.3214V27.3214H35.95V26.3214V25.3214H15.05V26.3214ZM35.95 26.3214H36.95V24.6786H35.95H34.95V26.3214H35.95ZM35.95 24.6786V23.6786H15.05V24.6786V25.6786H35.95V24.6786ZM15.05 24.6786H14.05V26.3214H15.05H16.05V24.6786H15.05ZM15.05 20.762V21.762H29.6667V20.762V19.762H15.05V20.762ZM29.6667 20.762H30.6667V19.1191H29.6667H28.6667V20.762H29.6667ZM29.6667 19.1191V18.1191H15.05V19.1191V20.1191H29.6667V19.1191ZM15.05 19.1191H14.05V20.762H15.05H16.05V19.1191H15.05ZM13.1933 37V36C12.6709 36 12.2878 35.8378 11.9729 35.5281L11.2717 36.241L10.5704 36.9539C11.2845 37.6562 12.1825 38 13.1933 38V37ZM11.2717 36.241L11.9729 35.5281C11.6601 35.2204 11.5 34.85 11.5 34.3451H10.5H9.5C9.5 35.3561 9.85439 36.2496 10.5704 36.9539L11.2717 36.241ZM10.5 34.3451H11.5V16.6549H10.5H9.5V34.3451H10.5ZM10.5 16.6549H11.5C11.5 16.1515 11.6597 15.7816 11.9729 15.4736L11.2717 14.7606L10.5704 14.0477C9.8547 14.7517 9.5 15.6446 9.5 16.6549H10.5ZM11.2717 14.7606L11.9729 15.4736C12.2884 15.1632 12.6717 15.0007 13.1931 15L13.1917 14L13.1902 13C12.1805 13.0014 11.2838 13.3461 10.5704 14.0477L11.2717 14.7606ZM13.1917 14V15H37.8083V14V13H13.1917V14ZM37.8083 14V15C38.3301 15 38.712 15.1623 39.0256 15.4721L39.7283 14.7606L40.4311 14.0492C39.718 13.3448 38.8199 13 37.8083 13V14ZM39.7283 14.7606L39.0256 15.4721C39.3393 15.782 39.4993 16.1534 39.5 16.6563L40.5 16.6549L41.5 16.6534C41.4985 15.6449 41.1441 14.7535 40.4311 14.0492L39.7283 14.7606ZM40.5 16.6549H39.5V34.3468H40.5H41.5V16.6549H40.5ZM40.5 34.3468H39.5C39.5 34.8486 39.3405 35.2191 39.0263 35.5288L39.7283 36.241L40.4303 36.9532C41.145 36.2487 41.5 35.3564 41.5 34.3468H40.5ZM39.7283 36.241L39.0263 35.5288C38.7114 35.8392 38.3295 36.0007 37.8098 36L37.8083 37L37.8069 38C38.8182 38.0014 39.7164 37.6569 40.4303 36.9532L39.7283 36.241ZM37.8083 37V36H13.1933V37V38H37.8083V37ZM13.1933 35.3571V36.3571H37.81V35.3571V34.3571H13.1933V35.3571ZM37.81 35.3571V36.3571C38.3728 36.3571 38.8489 36.1148 39.2151 35.7557L38.515 35.0417L37.8148 34.3277C37.7785 34.3634 37.7624 34.3687 37.7695 34.3655C37.7729 34.364 37.7794 34.3615 37.7882 34.3596C37.7971 34.3577 37.8048 34.3571 37.81 34.3571V35.3571ZM38.515 35.0417L39.2151 35.7557C39.5845 35.3935 39.8375 34.9138 39.835 34.3408L38.835 34.3451L37.835 34.3495C37.835 34.3418 37.8358 34.3313 37.8384 34.3195C37.8409 34.3077 37.8444 34.2983 37.8471 34.2924C37.8527 34.2802 37.85 34.2932 37.8148 34.3277L38.515 35.0417ZM38.835 34.3451H39.835V16.6549H38.835H37.835V34.3451H38.835ZM38.835 16.6549H39.835C39.835 16.0858 39.5836 15.6093 39.2188 15.2479L38.515 15.9583L37.8112 16.6686C37.8472 16.7043 37.8511 16.7188 37.8463 16.7084C37.844 16.7034 37.8408 16.6949 37.8383 16.6837C37.8359 16.6726 37.835 16.6625 37.835 16.6549H38.835ZM38.515 15.9583L39.2188 15.2479C38.8508 14.8832 38.3707 14.6405 37.8041 14.6429L37.8083 15.6429L37.8126 16.6428C37.8079 16.6429 37.8003 16.6424 37.7911 16.6404C37.782 16.6385 37.7749 16.6359 37.7707 16.6341C37.7618 16.6301 37.7764 16.6342 37.8112 16.6686L38.515 15.9583ZM37.8083 15.6429V14.6429H13.1917V15.6429V16.6429H37.8083V15.6429ZM13.1917 15.6429V14.6429C12.6288 14.6429 12.1527 14.8852 11.7865 15.2443L12.4867 15.9583L13.1868 16.6723C13.2232 16.6366 13.2393 16.6313 13.2322 16.6345C13.2288 16.636 13.2223 16.6385 13.2134 16.6404C13.2046 16.6423 13.1969 16.6429 13.1917 16.6429V15.6429ZM12.4867 15.9583L11.7865 15.2443C11.4171 15.6065 11.1642 16.0862 11.1667 16.6592L12.1667 16.6549L13.1667 16.6505C13.1667 16.6582 13.1659 16.6687 13.1633 16.6805C13.1607 16.6923 13.1573 16.7017 13.1545 16.7076C13.1489 16.7198 13.1516 16.7068 13.1868 16.6723L12.4867 15.9583ZM12.1667 16.6549H11.1667V34.3468H12.1667H13.1667V16.6549H12.1667ZM12.1667 34.3468H11.1667C11.1667 34.916 11.4191 35.3917 11.7828 35.7521L12.4867 35.0417L13.1905 34.3314C13.1542 34.2953 13.1502 34.2807 13.155 34.2912C13.1573 34.2963 13.1607 34.305 13.1632 34.3165C13.1657 34.328 13.1667 34.3386 13.1667 34.3468H12.1667ZM12.4867 35.0417L11.7828 35.7521C12.1499 36.1158 12.6292 36.3596 13.1959 36.3571L13.1917 35.3571L13.1874 34.3571C13.1927 34.3571 13.2008 34.3577 13.2103 34.3597C13.2197 34.3617 13.227 34.3644 13.2313 34.3663C13.2403 34.3703 13.2257 34.3662 13.1905 34.3314L12.4867 35.0417Z" fill="#B80DFB" mask="url(#path-2-inside-1_1324_6172)"/>
</svg>
