<svg width="50" height="50" viewBox="0 0 50 50" fill="none" xmlns="http://www.w3.org/2000/svg">
<rect width="50" height="50" rx="8" fill="#F7AD19" fill-opacity="0.06"/>
<rect x="0.5" y="0.5" width="49" height="49" rx="7.5" stroke="#F7AD19" stroke-opacity="0.5"/>
<path d="M26.56 14.125H32.05C34.57 14.125 35.83 14.125 36.793 14.6155C37.6397 15.0469 38.3281 15.7353 38.7595 16.582C39.25 17.545 39.25 18.805 39.25 21.325V29.425C39.25 31.945 39.25 33.205 38.7595 34.168C38.3281 35.0147 37.6397 35.7031 36.793 36.1345C35.83 36.625 34.57 36.625 32.05 36.625H18.7C16.18 36.625 14.92 36.625 13.957 36.1345C13.1103 35.7031 12.4219 35.0147 11.9905 34.168C11.5 33.205 11.5 31.945 11.5 29.425V28.03" stroke="#FF8000" stroke-width="2" stroke-linecap="round" stroke-linejoin="round"/>
<path d="M16.6105 11.227L24.6865 19.3045M16.6105 11.227L11.515 16.321C10.471 17.365 9.949 17.887 9.754 18.49C9.6685 18.754 9.625 19.03 9.625 19.3045M16.6105 11.227L15.3835 10M24.6865 19.3045L19.5925 24.3985C18.5485 25.4425 18.0265 25.9645 17.425 26.1595C16.8956 26.3312 16.3254 26.3312 15.796 26.1595C15.1945 25.9645 14.671 25.4425 13.6285 24.3985L11.515 22.2865C10.471 21.2425 9.949 20.7205 9.754 20.119C9.66955 19.8557 9.62604 19.581 9.625 19.3045M24.6865 19.3045H9.625M25.633 25.4455L27.8605 21.7735L30.4765 25.243C30.839 25.8714 30.937 26.618 30.7491 27.3187C30.5612 28.0194 30.1028 28.6168 29.4745 28.9795C27.1555 30.319 24.4915 27.8695 25.6315 25.4455" stroke="#FF8000" stroke-width="2" stroke-linecap="round" stroke-linejoin="round"/>
</svg>
