<svg width="50" height="50" viewBox="0 0 50 50" fill="none" xmlns="http://www.w3.org/2000/svg">
<path d="M0 12C0 5.37258 5.37258 0 12 0H38C44.6274 0 50 5.37258 50 12V38C50 44.6274 44.6274 50 38 50H12C5.37258 50 0 44.6274 0 38V12Z" fill="#1B95F8" fill-opacity="0.1"/>
<path d="M12 1H38C44.0751 1 49 5.92487 49 12V38C49 44.0751 44.0751 49 38 49H12C5.92487 49 1 44.0751 1 38V12L1.01465 11.4336C1.30945 5.6217 6.11484 1 12 1Z" stroke="#1B95F8" stroke-opacity="0.3" stroke-width="2"/>
<path d="M40 19.5C40.2652 19.5 40.5195 19.6054 40.707 19.793C40.8946 19.9805 41 20.2348 41 20.5V40.293L35.707 35H19C18.7348 35 18.4805 34.8946 18.293 34.707C18.1054 34.5195 18 34.2652 18 34V33H39V19.5H40ZM11.5 10.5H34C34.2652 10.5 34.5195 10.6054 34.707 10.793C34.8946 10.9805 35 11.2348 35 11.5V28C35 28.2652 34.8946 28.5195 34.707 28.707C34.5195 28.8946 34.2652 29 34 29H15.793L10.5 34.293V11.5C10.5 11.2348 10.6054 10.9805 10.793 10.793C10.9805 10.6054 11.2348 10.5 11.5 10.5ZM17 27H21V23H17V27ZM26 27H30V23H26V27ZM19.2852 12.5C17.9038 12.5 16.743 12.818 15.8271 13.4795L15.8184 13.4854L15.8105 13.4922C14.8914 14.2169 14.4483 15.2292 14.4648 16.5459L14.4658 16.624L14.4902 16.6982L14.5059 16.7432L14.6191 17.085H18.3584L18.375 16.6016C18.3868 16.2492 18.4855 16.0516 18.6221 15.9277C18.8059 15.7785 19.0375 15.6999 19.2744 15.7051H19.2852C19.6374 15.7051 19.8894 15.8158 20.0498 15.9727C20.2049 16.1384 20.2998 16.3887 20.2998 16.75C20.2998 17.1538 20.2132 17.4523 20.0449 17.6943L20.0361 17.707L20.0283 17.7197C19.8666 17.9853 19.6137 18.233 19.2783 18.4395L19.2627 18.4492C18.495 18.961 17.9104 19.447 17.5684 19.9248C17.1738 20.4377 17 21.195 17 22V22.5H21V22C21 21.5648 21.0587 21.281 21.1426 21.1133C21.2261 20.9465 21.4055 20.7382 21.7266 20.5322C22.4373 20.1488 23.0477 19.6745 23.5303 19.0088C24.0201 18.3332 24.2852 17.6169 24.2852 16.75C24.2852 15.4778 23.8256 14.4176 22.8926 13.6387H22.8936C21.9831 12.8657 20.7608 12.5 19.2852 12.5ZM26 22.5H30V12.5H26V22.5Z" fill="#1B95F8" stroke="#1B95F8"/>
</svg>
