<svg width="50" height="50" viewBox="0 0 50 50" fill="none" xmlns="http://www.w3.org/2000/svg">
<g clip-path="url(#clip0_1264_3003)">
<rect width="50" height="50" rx="8" fill="#39B939" fill-opacity="0.06"/>
<rect x="-0.5" y="-0.5" width="51" height="51" rx="5.5" stroke="#C4EAC4"/>
<path fill-rule="evenodd" clip-rule="evenodd" d="M10.375 9.25L9.25 10.375V17.125L10.375 18.25H17.125L18.25 17.125V10.375L17.125 9.25H10.375ZM11.5 16V11.5H16V16H11.5ZM10.375 20.5L9.25 21.625V28.375L10.375 29.5H17.125L18.25 28.375V21.625L17.125 20.5H10.375ZM11.5 27.25V22.75H16V27.25H11.5ZM9.25 32.875L10.375 31.75H17.125L18.25 32.875V39.625L17.125 40.75H10.375L9.25 39.625V32.875ZM11.5 34V38.5H16V34H11.5ZM35.125 18.25L34 19.375V32.875L35.125 34H41.875L43 32.875V19.375L41.875 18.25H35.125ZM40.75 25H36.25V20.5H40.75V25ZM40.75 31.75H36.25V27.25H40.75V31.75ZM27.475 25H20.5V27.25H27.475L25.225 29.5L26.8 30.85L30.85 26.8V25.225L26.8 21.175L25.225 22.75L27.475 25Z" fill="#308F00"/>
</g>
<rect x="0.5" y="0.5" width="49" height="49" rx="7.5" stroke="#39B939" stroke-opacity="0.5"/>
<defs>
<clipPath id="clip0_1264_3003">
<rect width="50" height="50" rx="8" fill="white"/>
</clipPath>
</defs>
</svg>
