<svg width="50" height="50" viewBox="0 0 50 50" fill="none" xmlns="http://www.w3.org/2000/svg">
<path d="M0 12C0 5.37258 5.37258 0 12 0H38C44.6274 0 50 5.37258 50 12V38C50 44.6274 44.6274 50 38 50H12C5.37258 50 0 44.6274 0 38V12Z" fill="#1B95F8" fill-opacity="0.1"/>
<path d="M12 1H38C44.0751 1 49 5.92487 49 12V38C49 44.0751 44.0751 49 38 49H12C5.92487 49 1 44.0751 1 38V12L1.01465 11.4336C1.30945 5.6217 6.11484 1 12 1Z" stroke="#1B95F8" stroke-opacity="0.3" stroke-width="2"/>
<path d="M39.9502 33.0127L38.6367 34.3252L36.2529 31.9551L36.2461 31.9619V39.9961H34.3789V31.958H34.3691L31.9873 34.3252L30.6748 33.0127L35.3125 28.375L39.9502 33.0127ZM24.4561 10.0039L36.2461 21.7939V23.1211H26.8789V15.625H26.875V15.6211H17.5V15.625H17.4961V38.125H17.5V38.1289H32.4961V39.9961H15.6289V36.25H15.625V36.2461H11.8789V10.0039H24.4561ZM13.75 11.875H13.7461V34.375H13.75V34.3789H15.625V34.375H15.6289V13.7539H25.542V13.7441L23.6699 11.8721L23.6709 11.8711H13.75V11.875ZM39.9961 25.0039V26.8711H30.6289V25.0039H39.9961ZM28.7461 16.9619V21.25H28.75V21.2539H33.042V21.2441L28.7529 16.9551L28.7461 16.9619Z" fill="#1B95F8" stroke="#1B95F8" stroke-width="0.0078125"/>
</svg>
