<svg width="50" height="50" viewBox="0 0 50 50" fill="none" xmlns="http://www.w3.org/2000/svg">
<rect width="50" height="50" rx="8" fill="#F7AD19" fill-opacity="0.06"/>
<rect x="0.5" y="0.5" width="49" height="49" rx="7.5" stroke="#F7AD19" stroke-opacity="0.5"/>
<path d="M26.5 13H16C15.2044 13 14.4413 13.3161 13.8787 13.8787C13.3161 14.4413 13 15.2044 13 16V34C13 34.7956 13.3161 35.5587 13.8787 36.1213C14.4413 36.6839 15.2044 37 16 37H26.5M32.5 13H34C34.7956 13 35.5587 13.3161 36.1213 13.8787C36.6839 14.4413 37 15.2044 37 16V17.5M37 32.5V34C37 34.7956 36.6839 35.5587 36.1213 36.1213C35.5587 36.6839 34.7956 37 34 37H32.5M37 23.5V26.5M25 10V40" stroke="#FF8000" stroke-width="2" stroke-linecap="round" stroke-linejoin="round"/>
</svg>
