<svg width="50" height="50" viewBox="0 0 50 50" fill="none" xmlns="http://www.w3.org/2000/svg">
<rect width="50" height="50" rx="8" fill="#F7AD19" fill-opacity="0.06"/>
<rect x="0.5" y="0.5" width="49" height="49" rx="7.5" stroke="#F7AD19" stroke-opacity="0.5"/>
<path d="M36.5293 26.0938C37.0648 25.9351 37.6403 25.9595 38.1602 26.1631C38.6799 26.3667 39.1171 26.7379 39.4023 27.2178C39.6875 27.6977 39.805 28.2595 39.7354 28.8135C39.6657 29.3675 39.4128 29.8829 39.0176 30.2773L29.3711 39.9238C28.6961 40.5954 27.852 41.0728 26.9287 41.3057L24.209 41.9863C24.1467 42.0017 24.0813 42.0007 24.0195 41.9834C23.9578 41.9661 23.9017 41.9331 23.8564 41.8877C23.8111 41.8422 23.7779 41.7855 23.7607 41.7236C23.7437 41.6618 23.7433 41.5964 23.7588 41.5342L24.4385 38.8096L24.4531 38.7568L24.4541 38.75C24.6927 37.8514 25.1637 37.0312 25.8193 36.3721L35.4639 26.7275C35.7232 26.4678 36.0362 26.269 36.3799 26.1436L36.5293 26.0938ZM18.25 10.25H26.25V17.125C26.25 17.6886 26.4736 18.2294 26.8721 18.6279C27.2706 19.0264 27.8114 19.25 28.375 19.25H35.2451V22.041C35.1613 22.0667 35.0778 22.0932 34.9951 22.1221V19.5H28.3721C27.7428 19.4992 27.139 19.2489 26.6943 18.8037C26.2496 18.3584 26 17.7543 26 17.125V10.5H18.25C17.388 10.5 16.5616 10.8427 15.9521 11.4521C15.3427 12.0616 15 12.888 15 13.75V36.2451C15 37.1071 15.3427 37.9345 15.9521 38.5439C16.5616 39.1533 17.3882 39.4951 18.25 39.4951H19.8857L19.8232 39.7451H18.25C17.3219 39.7451 16.4317 39.3769 15.7754 38.7207C15.119 38.0643 14.75 37.1734 14.75 36.2451V13.75C14.75 12.8217 15.119 11.9318 15.7754 11.2754C16.4318 10.619 17.3217 10.25 18.25 10.25ZM27.0801 10.3789C27.4207 10.4949 27.7348 10.6853 27.9941 10.9443L34.5479 17.501L34.5488 17.502C34.8112 17.764 35.0042 18.0817 35.1201 18.4268L34.2373 17.543L27.957 11.2568L27.0801 10.3789Z" stroke="#FF8000" stroke-width="2"/>
</svg>
