<svg width="62" height="62" viewBox="0 0 62 62" fill="none" xmlns="http://www.w3.org/2000/svg">
<rect width="62" height="62" rx="8" fill="#F45F0F" fill-opacity="0.06"/>
<rect x="0.5" y="0.5" width="61" height="61" rx="7.5" stroke="#FF8000" stroke-opacity="0.5"/>
<path d="M17.9239 34.7933C17.6382 34.7933 17.3995 34.696 17.2077 34.5015C17.0159 34.307 16.9193 34.069 16.918 33.7873C16.9166 33.5056 17.0132 33.2669 17.2077 33.0711C17.4022 32.8752 17.6409 32.7787 17.9239 32.7813H44.0787C44.3644 32.7813 44.6031 32.8779 44.7949 33.0711C44.9881 33.2642 45.0847 33.5036 45.0847 33.7893C45.0847 34.075 44.9881 34.3137 44.7949 34.5056C44.6018 34.6974 44.3631 34.7933 44.0787 34.7933H17.9239ZM17.9239 29.2203C17.6382 29.2203 17.3995 29.1237 17.2077 28.9306C17.0159 28.7374 16.9193 28.498 16.918 28.2123C16.9166 27.9266 17.0132 27.6879 17.2077 27.4961C17.4022 27.3043 17.6409 27.2084 17.9239 27.2084H44.0787C44.3644 27.2084 44.6031 27.3049 44.7949 27.4981C44.9867 27.6912 45.0833 27.9306 45.0847 28.2163C45.086 28.502 44.9894 28.7408 44.7949 28.9326C44.6005 29.1244 44.3617 29.2203 44.0787 29.2203H17.9239ZM31.0013 51.3512C30.7143 51.3512 30.4749 51.2547 30.2831 51.0615C30.0913 50.8684 29.9954 50.6296 29.9954 50.3453V43.0561L26.4826 46.5689C26.2948 46.7567 26.0641 46.8573 25.7905 46.8707C25.5169 46.8841 25.2728 46.7835 25.0581 46.5689C24.8435 46.3543 24.7362 46.1169 24.7362 45.8567C24.7362 45.5965 24.8435 45.3598 25.0581 45.1465L29.8505 40.3521C30.0343 40.1684 30.2194 40.041 30.4058 39.9699C30.5936 39.8988 30.7934 39.8633 31.0053 39.8633C31.2173 39.8633 31.4158 39.8988 31.6009 39.9699C31.786 40.041 31.9697 40.1684 32.1521 40.3521L36.9445 45.1445C37.1323 45.3323 37.2349 45.5616 37.2523 45.8326C37.2697 46.1035 37.1645 46.3517 36.9364 46.577C36.7272 46.7862 36.4945 46.8922 36.2383 46.8949C35.9821 46.8975 35.7427 46.7929 35.5201 46.581L32.0073 43.0803V50.3453C32.0073 50.631 31.9107 50.8697 31.7176 51.0615C31.5244 51.2533 31.285 51.3499 30.9993 51.3512M30.9973 22.1364C30.7827 22.1364 30.5842 22.1008 30.4018 22.0297C30.2194 21.9586 30.0356 21.8312 29.8505 21.6475L25.0581 16.8551C24.8704 16.6673 24.7698 16.436 24.7564 16.161C24.743 15.8887 24.8435 15.6453 25.0581 15.4307C25.2728 15.2161 25.5102 15.1088 25.7704 15.1088C26.0306 15.1088 26.268 15.2161 26.4826 15.4307L29.9954 18.9435V11.6563C29.9954 11.372 30.0919 11.1332 30.2851 10.9401C30.4782 10.747 30.7176 10.6504 31.0033 10.6504C31.289 10.6504 31.5278 10.747 31.7196 10.9401C31.9114 11.1332 32.0073 11.372 32.0073 11.6563V18.9455L35.5201 15.4327C35.7078 15.2449 35.9385 15.1443 36.2122 15.1309C36.4858 15.1175 36.7299 15.2181 36.9445 15.4327C37.1591 15.6473 37.2664 15.8847 37.2664 16.1449C37.2664 16.4051 37.1591 16.6425 36.9445 16.8571L32.1521 21.6495C31.9684 21.8332 31.7833 21.9607 31.5968 22.0317C31.4091 22.1028 31.2092 22.1364 30.9973 22.1364Z" fill="#F45F0F"/>
</svg>
