<svg width="62" height="62" viewBox="0 0 62 62" fill="none" xmlns="http://www.w3.org/2000/svg">
<rect width="62" height="62" rx="8" fill="#F7AD19" fill-opacity="0.06"/>
<rect x="0.5" y="0.5" width="61" height="61" rx="7.5" stroke="#F7AD19" stroke-opacity="0.5"/>
<path d="M30.9856 37.7286L21.3052 47.409C20.943 47.7712 20.4906 47.9609 19.948 47.978C19.4054 47.9951 18.9358 47.8055 18.5394 47.409C18.1772 47.0468 17.9961 46.5859 17.9961 46.0261C17.9961 45.4664 18.1772 45.0054 18.5394 44.6432L26.6887 36.4445C27.446 35.6872 28.0222 34.8311 28.4174 33.8762C28.8125 32.9213 29.01 31.9171 29.01 30.8634V20.7879L27.232 22.5659C26.8698 22.9281 26.4174 23.1092 25.8748 23.1092C25.3321 23.1092 24.8626 22.9117 24.4662 22.5165C24.104 22.1543 23.9229 21.6934 23.9229 21.1336C23.9229 20.5739 24.104 20.1129 24.4662 19.7507L29.6027 14.6142C29.9978 14.219 30.4588 14.0215 30.9856 14.0215C31.5124 14.0215 31.9734 14.219 32.3685 14.6142L37.5051 19.7507C37.8673 20.1129 38.0563 20.5653 38.0721 21.1079C38.0879 21.6506 37.8989 22.1201 37.5051 22.5165C37.1429 22.8787 36.6819 23.0598 36.1222 23.0598C35.5624 23.0598 35.1014 22.8787 34.7393 22.5165L32.9612 20.7879V30.8634C32.9612 31.9171 33.1588 32.9213 33.5539 33.8762C33.949 34.8311 34.5252 35.6872 35.2825 36.4445L43.4319 44.6432C43.7941 45.0054 43.9837 45.4585 44.0008 46.0024C44.018 46.5463 43.8283 47.0152 43.4319 47.409C43.0697 47.7712 42.6087 47.9523 42.0489 47.9523C41.4892 47.9523 41.0282 47.7712 40.666 47.409L30.9856 37.7286Z" fill="#F7AD19"/>
</svg>
