<svg width="62" height="62" viewBox="0 0 62 62" fill="none" xmlns="http://www.w3.org/2000/svg">
<rect width="62" height="62" rx="8" fill="#39B939" fill-opacity="0.06"/>
<rect x="0.5" y="0.5" width="61" height="61" rx="7.5" stroke="#39B939" stroke-opacity="0.5"/>
<path d="M18.5333 12.5C17.331 12.5 16.1779 12.9873 15.3278 13.8546C14.4776 14.722 14 15.8984 14 17.125V21.75C14 22.9766 14.4776 24.153 15.3278 25.0204C16.1779 25.8877 17.331 26.375 18.5333 26.375H36.6667C37.869 26.375 39.0221 25.8877 39.8722 25.0204C40.7224 24.153 41.2 22.9766 41.2 21.75V17.125C41.2 15.8984 40.7224 14.722 39.8722 13.8546C39.0221 12.9873 37.869 12.5 36.6667 12.5H18.5333ZM16.2667 17.125C16.2667 16.5117 16.5055 15.9235 16.9306 15.4898C17.3556 15.0561 17.9322 14.8125 18.5333 14.8125H36.6667C37.2678 14.8125 37.8444 15.0561 38.2694 15.4898C38.6945 15.9235 38.9333 16.5117 38.9333 17.125V21.75C38.9333 22.3633 38.6945 22.9515 38.2694 23.3852C37.8444 23.8189 37.2678 24.0625 36.6667 24.0625H18.5333C17.9322 24.0625 17.3556 23.8189 16.9306 23.3852C16.5055 22.9515 16.2667 22.3633 16.2667 21.75V17.125ZM23.0667 39.0938C22.7661 39.0938 22.4778 39.2156 22.2653 39.4324C22.0527 39.6492 21.9333 39.9433 21.9333 40.25C21.9333 40.5567 22.0527 40.8508 22.2653 41.0676C22.4778 41.2844 22.7661 41.4062 23.0667 41.4062H32.1333C32.4339 41.4062 32.7222 41.2844 32.9347 41.0676C33.1473 40.8508 33.2667 40.5567 33.2667 40.25C33.2667 39.9433 33.1473 39.6492 32.9347 39.4324C32.7222 39.2156 32.4339 39.0938 32.1333 39.0938H23.0667ZM34.1257 31H18.5333C17.331 31 16.1779 31.4873 15.3278 32.3546C14.4776 33.222 14 34.3984 14 35.625V44.875C14 46.1016 14.4776 47.278 15.3278 48.1454C16.1779 49.0127 17.331 49.5 18.5333 49.5H36.6667C37.869 49.5 39.0221 49.0127 39.8722 48.1454C40.7224 47.278 41.2 46.1016 41.2 44.875V42.3659C40.4667 42.6304 39.6666 42.6304 38.9333 42.3659V44.875C38.9333 45.4883 38.6945 46.0765 38.2694 46.5102C37.8444 46.9439 37.2678 47.1875 36.6667 47.1875H18.5333C17.9322 47.1875 17.3556 46.9439 16.9306 46.5102C16.5055 46.0765 16.2667 45.4883 16.2667 44.875V35.625C16.2667 35.0117 16.5055 34.4235 16.9306 33.9898C17.3556 33.5561 17.9322 33.3125 18.5333 33.3125H32.326C32.4955 32.8252 32.7697 32.3828 33.1284 32.0175L34.1257 31ZM48 25.2188C48 24.9121 47.8806 24.618 47.6681 24.4012C47.4555 24.1843 47.1672 24.0625 46.8667 24.0625C46.5661 24.0625 46.2778 24.1843 46.0653 24.4012C45.8527 24.618 45.7333 24.9121 45.7333 25.2188V29.8438C45.7333 30.7637 45.3751 31.646 44.7375 32.2965C44.0999 32.947 43.2351 33.3125 42.3333 33.3125H38.2692L40.8691 30.6624C41.0819 30.4453 41.2014 30.1508 41.2014 29.8438C41.2014 29.5367 41.0819 29.2422 40.8691 29.0251C40.6563 28.808 40.3676 28.686 40.0667 28.686C39.7657 28.686 39.4771 28.808 39.2643 29.0251L34.7309 33.6501C34.6254 33.7575 34.5417 33.8851 34.4845 34.0256C34.4274 34.1661 34.398 34.3167 34.398 34.4688C34.398 34.6208 34.4274 34.7714 34.4845 34.9119C34.5417 35.0524 34.6254 35.18 34.7309 35.2874L39.2643 39.9124C39.4771 40.1295 39.7657 40.2515 40.0667 40.2515C40.3676 40.2515 40.6563 40.1295 40.8691 39.9124C41.0819 39.6953 41.2014 39.4008 41.2014 39.0938C41.2014 38.7867 41.0819 38.4922 40.8691 38.2751L38.2692 35.625H42.3333C43.0775 35.625 43.8144 35.4755 44.5019 35.1849C45.1894 34.8944 45.8141 34.4685 46.3403 33.9317C46.8665 33.3949 47.2839 32.7576 47.5686 32.0561C47.8534 31.3547 48 30.603 48 29.8438V25.2188Z" fill="#39B939"/>
</svg>
