<svg width="36" height="36" viewBox="0 0 36 36" fill="none" xmlns="http://www.w3.org/2000/svg">
<path d="M21.6182 3.875L21.8086 4.06641L28.5586 10.8164L28.75 11.0068V32.125H7.25V3.875H21.6182ZM8.5 30.875H27.5V11.875H20.75V5.125H8.5V30.875ZM19.125 15.125C21.3239 15.125 23.125 16.9261 23.125 19.125C23.125 21.3239 21.3239 23.125 19.125 23.125C18.4321 23.125 17.7418 22.9271 17.1523 22.5342L16.375 22.0156V26.5H15.125V19.625H16.4141C16.5032 20.2068 16.7492 20.718 17.1406 21.1094C17.6408 21.6095 18.3364 21.875 19.125 21.875C19.9136 21.875 20.6092 21.6095 21.1094 21.1094C21.6095 20.6092 21.875 19.9136 21.875 19.125C21.875 18.3364 21.6095 17.6408 21.1094 17.1406C20.6092 16.6405 19.9136 16.375 19.125 16.375H15.125V15.125H19.125ZM22 10.625H26.6318L22 5.99316V10.625Z" stroke="#B80DFB"/>
</svg>
