<svg width="63" height="63" viewBox="0 0 63 63" fill="none" xmlns="http://www.w3.org/2000/svg">
<rect x="0.5" y="0.5" width="62" height="62" rx="8" fill="#8DB323" fill-opacity="0.1"/>
<rect x="0.5" y="0.5" width="62" height="62" rx="8" stroke="#8DB323" stroke-opacity="0.7"/>
<path d="M12.4247 49.5827C11.2759 49.5827 10.2934 49.1737 9.47708 48.3556C8.66075 47.5375 8.25172 46.5567 8.25 45.4132V22.7573C8.25 21.6103 8.65903 20.6287 9.47708 19.8123C10.2951 18.996 11.2768 18.5861 12.4221 18.5827H26.1835L31.3502 13.416H50.5779C51.7249 13.416 52.7066 13.825 53.5229 14.6431C54.3392 15.4612 54.7483 16.4428 54.75 17.5881V45.4106C54.75 46.5576 54.341 47.5393 53.5229 48.3556C52.7049 49.1719 51.7232 49.581 50.5779 49.5827H12.4247ZM13.7112 34.6768H27.9247C28.3879 34.6768 28.7686 34.5287 29.0665 34.2325C29.3644 33.9346 29.5134 33.554 29.5134 33.0907V18.8772L13.7112 34.6768ZM10.8333 33.9354L23.6002 21.166H12.4247C11.9597 21.166 11.5782 21.315 11.2802 21.6129C10.9823 21.9109 10.8333 22.2923 10.8333 22.7573V33.9354ZM10.8333 37.2654V45.4132C10.8333 45.8765 10.9823 46.2571 11.2802 46.555C11.5782 46.853 11.9597 47.0019 12.4247 47.0019H50.5779C51.0412 47.0019 51.4218 46.853 51.7197 46.555C52.0177 46.2571 52.1667 45.8765 52.1667 45.4132V17.5881C52.1667 17.1248 52.0177 16.7442 51.7197 16.4463C51.4218 16.1483 51.0412 15.9993 50.5779 15.9993H32.0942V33.0907C32.0942 34.2377 31.6851 35.2193 30.8671 36.0357C30.049 36.852 29.0674 37.261 27.9221 37.2628L10.8333 37.2654Z" fill="#8DB323"/>
</svg>
