<svg width="36" height="36" viewBox="0 0 36 36" fill="none" xmlns="http://www.w3.org/2000/svg">
<g clip-path="url(#clip0_1498_16448)">
<path d="M18 10.875V28.125M18 28.125C18.8951 28.125 19.7535 28.4806 20.3865 29.1135C21.0194 29.7465 21.375 30.6049 21.375 31.5C21.375 32.3951 21.0194 33.2535 20.3865 33.8865C19.7535 34.5194 18.8951 34.875 18 34.875C17.1049 34.875 16.2465 34.5194 15.6135 33.8865C14.9806 33.2535 14.625 32.3951 14.625 31.5C14.625 30.6049 14.9806 29.7465 15.6135 29.1135C16.2465 28.4806 17.1049 28.125 18 28.125ZM4.5 28.125V22.125C4.5 21.5283 4.73705 20.956 5.15901 20.534C5.58097 20.1121 6.15326 19.875 6.75 19.875H29.25C29.8467 19.875 30.419 20.1121 30.841 20.534C31.2629 20.956 31.5 21.5283 31.5 22.125V28.125M4.5 28.125C5.39511 28.125 6.25355 28.4806 6.88649 29.1135C7.51942 29.7465 7.875 30.6049 7.875 31.5C7.875 32.3951 7.51942 33.2535 6.88649 33.8865C6.25355 34.5194 5.39511 34.875 4.5 34.875C3.60489 34.875 2.74645 34.5194 2.11351 33.8865C1.48058 33.2535 1.125 32.3951 1.125 31.5C1.125 30.6049 1.48058 29.7465 2.11351 29.1135C2.74645 28.4806 3.60489 28.125 4.5 28.125ZM31.5 28.125C32.3951 28.125 33.2535 28.4806 33.8865 29.1135C34.5194 29.7465 34.875 30.6049 34.875 31.5C34.875 32.3951 34.5194 33.2535 33.8865 33.8865C33.2535 34.5194 32.3951 34.875 31.5 34.875C30.6049 34.875 29.7465 34.5194 29.1135 33.8865C28.4806 33.2535 28.125 32.3951 28.125 31.5C28.125 30.6049 28.4806 29.7465 29.1135 29.1135C29.7465 28.4806 30.6049 28.125 31.5 28.125ZM27.375 1.125H8.625C8.32663 1.125 8.04048 1.24353 7.8295 1.4545C7.61853 1.66548 7.5 1.95163 7.5 2.25V9.75C7.5 10.371 8.004 10.875 8.625 10.875H27.375C27.6734 10.875 27.9595 10.7565 28.1705 10.5455C28.3815 10.3345 28.5 10.0484 28.5 9.75V2.25C28.5 1.95163 28.3815 1.66548 28.1705 1.4545C27.9595 1.24353 27.6734 1.125 27.375 1.125Z" stroke="#FF8000" stroke-width="2" stroke-linecap="round" stroke-linejoin="round"/>
</g>
<defs>
<clipPath id="clip0_1498_16448">
<rect width="36" height="36" fill="white"/>
</clipPath>
</defs>
</svg>
