<svg width="36" height="36" viewBox="0 0 36 36" fill="none" xmlns="http://www.w3.org/2000/svg">
<path d="M26.625 3.375H9.375C7.71815 3.375 6.375 4.71815 6.375 6.375V29.625C6.375 31.2819 7.71815 32.625 9.375 32.625H26.625C28.2819 32.625 29.625 31.2819 29.625 29.625V6.375C29.625 4.71815 28.2819 3.375 26.625 3.375Z" stroke="#308F00" stroke-width="0.8" stroke-linecap="round" stroke-linejoin="round"/>
<path d="M26.625 3.375H9.375C7.71815 3.375 6.375 4.71815 6.375 6.375V16.125C6.375 17.7819 7.71815 19.125 9.375 19.125H26.625C28.2819 19.125 29.625 17.7819 29.625 16.125V6.375C29.625 4.71815 28.2819 3.375 26.625 3.375Z" stroke="#308F00" stroke-width="0.8" stroke-linecap="round" stroke-linejoin="round"/>
<path d="M11.1233 22.8832H15.9458M15.9458 25.9807H11.1233M11.1233 28.8757H16.0058M21.3383 23.6932L25.6358 27.9907M21.3233 28.0207L25.6208 23.7232M9.11328 5.4082C8.69778 5.4082 8.36328 5.74345 8.36328 6.1582V16.4482L10.5608 14.409L13.0058 16.8165L20.2508 10.1332L27.4133 16.9912C27.4845 16.9214 27.5411 16.8381 27.5797 16.7461C27.6184 16.6542 27.6383 16.5554 27.6383 16.4557V6.1582C27.6383 5.95929 27.5593 5.76853 27.4186 5.62787C27.278 5.48722 27.0872 5.4082 26.8883 5.4082H9.11328Z" stroke="#308F00" stroke-width="0.8" stroke-linecap="round" stroke-linejoin="round"/>
<path d="M23.4922 30.5371C26.081 30.5371 28.1797 28.4384 28.1797 25.8496C28.1797 23.2608 26.081 21.1621 23.4922 21.1621C20.9034 21.1621 18.8047 23.2608 18.8047 25.8496C18.8047 28.4384 20.9034 30.5371 23.4922 30.5371Z" stroke="#308F00" stroke-width="0.8" stroke-linecap="round" stroke-linejoin="round"/>
<path d="M14.8118 11.8014C16.0218 11.8014 17.0026 10.8206 17.0026 9.61067C17.0026 8.40075 16.0218 7.41992 14.8118 7.41992C13.6019 7.41992 12.6211 8.40075 12.6211 9.61067C12.6211 10.8206 13.6019 11.8014 14.8118 11.8014Z" stroke="#308F00" stroke-width="0.8" stroke-linecap="round" stroke-linejoin="round"/>
<path d="M8.92578 22.7168C9.01553 22.7168 9.08789 22.7892 9.08789 22.8789C9.08789 22.9687 9.01553 23.041 8.92578 23.041C8.83603 23.041 8.76367 22.9687 8.76367 22.8789C8.76367 22.7892 8.83603 22.7168 8.92578 22.7168Z" fill="black" stroke="#308F00" stroke-width="0.8"/>
<path d="M8.92578 25.8184C9.01553 25.8184 9.08789 25.8907 9.08789 25.9805C9.08789 26.0702 9.01553 26.1426 8.92578 26.1426C8.83603 26.1426 8.76367 26.0702 8.76367 25.9805C8.76367 25.8907 8.83603 25.8184 8.92578 25.8184Z" fill="black" stroke="#308F00" stroke-width="0.8"/>
<path d="M8.92578 28.7129C9.01553 28.7129 9.08789 28.7853 9.08789 28.875C9.08789 28.9647 9.01553 29.0371 8.92578 29.0371C8.83603 29.0371 8.76367 28.9647 8.76367 28.875C8.76367 28.7853 8.83603 28.7129 8.92578 28.7129Z" fill="black" stroke="#308F00" stroke-width="0.8"/>
</svg>
