<svg width="37" height="28" viewBox="0 0 37 28" fill="none" xmlns="http://www.w3.org/2000/svg">
<path d="M11.5739 1.28482L1.28599 11.575C0.575757 12.2854 0.575757 13.4372 1.28599 14.1476L12.8599 25.7241C13.5701 26.4345 14.7216 26.4345 15.4319 25.7241L25.7198 15.4339C26.43 14.7235 26.43 13.5717 25.7198 12.8613L14.1459 1.28482C13.4356 0.57443 12.2841 0.57443 11.5739 1.28482Z" stroke="#308F00" stroke-width="1.5" stroke-linecap="round" stroke-linejoin="round"/>
<path d="M22.4958 1.28482L12.2079 11.575C11.4976 12.2854 11.4976 13.4372 12.2079 14.1476L22.4958 24.4378C23.206 25.1482 24.3575 25.1482 25.0677 24.4378L35.3557 14.1476C36.0659 13.4372 36.0659 12.2854 35.3557 11.5751L25.0677 1.28482C24.3575 0.57443 23.206 0.57443 22.4958 1.28482Z" stroke="#308F00" stroke-width="1.5" stroke-linecap="round" stroke-linejoin="round"/>
</svg>
