<svg width="36" height="36" viewBox="0 0 36 36" fill="none" xmlns="http://www.w3.org/2000/svg">
<mask id="path-1-inside-1_1498_16486" fill="white">
<path d="M3 7.5V28.5H21V25.5H18C16.335 25.5 15 24.165 15 22.5V13.5C15 11.835 16.335 10.5 18 10.5H21V7.5M21 10.5V13.5H24V10.5M21 13.5H18V22.5H21M21 22.5V25.5H24V22.5M7.5 10.5H10.5C12.165 10.5 13.5 11.835 13.5 13.5V22.5C13.5 24.165 12.165 25.5 10.5 25.5H7.5C5.835 25.5 4.5 24.165 4.5 22.5V13.5C4.5 11.835 5.835 10.5 7.5 10.5ZM25.5 10.5V25.5H28.5V19.5H30V21H31.5V25.5H34.5V21H33V18H34.5V12H33V10.5M7.5 13.5V22.5H10.5V13.5M28.5 13.5H31.5V16.5H28.5V13.5Z"/>
</mask>
<path d="M3 7.5V28.5H21V25.5H18C16.335 25.5 15 24.165 15 22.5V13.5C15 11.835 16.335 10.5 18 10.5H21V7.5M21 10.5V13.5H24V10.5M21 13.5H18V22.5H21M21 22.5V25.5H24V22.5M7.5 10.5H10.5C12.165 10.5 13.5 11.835 13.5 13.5V22.5C13.5 24.165 12.165 25.5 10.5 25.5H7.5C5.835 25.5 4.5 24.165 4.5 22.5V13.5C4.5 11.835 5.835 10.5 7.5 10.5ZM25.5 10.5V25.5H28.5V19.5H30V21H31.5V25.5H34.5V21H33V18H34.5V12H33V10.5M7.5 13.5V22.5H10.5V13.5M28.5 13.5H31.5V16.5H28.5V13.5Z" fill="#1B95F8"/>
<path d="M3 28.5H2V29.5H3V28.5ZM21 28.5V29.5H22V28.5H21ZM24 13.5V14.5H25V13.5H24ZM18 13.5V12.5H17V13.5H18ZM18 22.5H17V23.5H18V22.5ZM21 22.5H22V21.5H21V22.5ZM24 25.5V26.5H25V25.5H24ZM25.5 25.5H24.5V26.5H25.5V25.5ZM28.5 25.5V26.5H29.5V25.5H28.5ZM28.5 19.5V18.5H27.5V19.5H28.5ZM30 19.5H31V18.5H30V19.5ZM30 21H29V22H30V21ZM31.5 21H32.5V20H31.5V21ZM31.5 25.5H30.5V26.5H31.5V25.5ZM34.5 25.5V26.5H35.5V25.5H34.5ZM34.5 21H35.5V20H34.5V21ZM33 21H32V22H33V21ZM33 18V17H32V18H33ZM34.5 18V19H35.5V18H34.5ZM34.5 12H35.5V11H34.5V12ZM33 12H32V13H33V12ZM7.5 22.5H6.5V23.5H7.5V22.5ZM10.5 22.5V23.5H11.5V22.5H10.5ZM28.5 13.5V12.5H27.5V13.5H28.5ZM31.5 13.5H32.5V12.5H31.5V13.5ZM31.5 16.5V17.5H32.5V16.5H31.5ZM28.5 16.5H27.5V17.5H28.5V16.5ZM3 7.5H2V28.5H3H4V7.5H3ZM3 28.5V29.5H21V28.5V27.5H3V28.5ZM21 28.5H22V25.5H21H20V28.5H21ZM21 25.5V24.5H18V25.5V26.5H21V25.5ZM18 25.5V24.5C16.8873 24.5 16 23.6127 16 22.5H15H14C14 24.7173 15.7827 26.5 18 26.5V25.5ZM15 22.5H16V13.5H15H14V22.5H15ZM15 13.5H16C16 12.3873 16.8873 11.5 18 11.5V10.5V9.5C15.7827 9.5 14 11.2827 14 13.5H15ZM18 10.5V11.5H21V10.5V9.5H18V10.5ZM21 10.5H22V7.5H21H20V10.5H21ZM21 10.5H20V13.5H21H22V10.5H21ZM21 13.5V14.5H24V13.5V12.5H21V13.5ZM24 13.5H25V10.5H24H23V13.5H24ZM21 13.5V12.5H18V13.5V14.5H21V13.5ZM18 13.5H17V22.5H18H19V13.5H18ZM18 22.5V23.5H21V22.5V21.5H18V22.5ZM21 22.5H20V25.5H21H22V22.5H21ZM21 25.5V26.5H24V25.5V24.5H21V25.5ZM24 25.5H25V22.5H24H23V25.5H24ZM7.5 10.5V11.5H10.5V10.5V9.5H7.5V10.5ZM10.5 10.5V11.5C11.6127 11.5 12.5 12.3873 12.5 13.5H13.5H14.5C14.5 11.2827 12.7173 9.5 10.5 9.5V10.5ZM13.5 13.5H12.5V22.5H13.5H14.5V13.5H13.5ZM13.5 22.5H12.5C12.5 23.6127 11.6127 24.5 10.5 24.5V25.5V26.5C12.7173 26.5 14.5 24.7173 14.5 22.5H13.5ZM10.5 25.5V24.5H7.5V25.5V26.5H10.5V25.5ZM7.5 25.5V24.5C6.38728 24.5 5.5 23.6127 5.5 22.5H4.5H3.5C3.5 24.7173 5.28272 26.5 7.5 26.5V25.5ZM4.5 22.5H5.5V13.5H4.5H3.5V22.5H4.5ZM4.5 13.5H5.5C5.5 12.3873 6.38728 11.5 7.5 11.5V10.5V9.5C5.28272 9.5 3.5 11.2827 3.5 13.5H4.5ZM25.5 10.5H24.5V25.5H25.5H26.5V10.5H25.5ZM25.5 25.5V26.5H28.5V25.5V24.5H25.5V25.5ZM28.5 25.5H29.5V19.5H28.5H27.5V25.5H28.5ZM28.5 19.5V20.5H30V19.5V18.5H28.5V19.5ZM30 19.5H29V21H30H31V19.5H30ZM30 21V22H31.5V21V20H30V21ZM31.5 21H30.5V25.5H31.5H32.5V21H31.5ZM31.5 25.5V26.5H34.5V25.5V24.5H31.5V25.5ZM34.5 25.5H35.5V21H34.5H33.5V25.5H34.5ZM34.5 21V20H33V21V22H34.5V21ZM33 21H34V18H33H32V21H33ZM33 18V19H34.5V18V17H33V18ZM34.5 18H35.5V12H34.5H33.5V18H34.5ZM34.5 12V11H33V12V13H34.5V12ZM33 12H34V10.5H33H32V12H33ZM7.5 13.5H6.5V22.5H7.5H8.5V13.5H7.5ZM7.5 22.5V23.5H10.5V22.5V21.5H7.5V22.5ZM10.5 22.5H11.5V13.5H10.5H9.5V22.5H10.5ZM28.5 13.5V14.5H31.5V13.5V12.5H28.5V13.5ZM31.5 13.5H30.5V16.5H31.5H32.5V13.5H31.5ZM31.5 16.5V15.5H28.5V16.5V17.5H31.5V16.5ZM28.5 16.5H29.5V13.5H28.5H27.5V16.5H28.5Z" fill="#1B95F8" mask="url(#path-1-inside-1_1498_16486)"/>
</svg>
