<svg width="63" height="63" viewBox="0 0 63 63" fill="none" xmlns="http://www.w3.org/2000/svg">
<rect x="0.5" y="0.5" width="62" height="62" rx="8" fill="#B80DFB" fill-opacity="0.06"/>
<rect x="0.5" y="0.5" width="62" height="62" rx="8" stroke="#B80DFB" stroke-opacity="0.5"/>
<path d="M31.5 38.143L24.9276 31.5724L26.2424 30.2353L30.5714 34.5643V18.5H32.4286V34.5643L36.7557 30.2371L38.0724 31.5724L31.5 38.143ZM21.5011 44.5C20.6456 44.5 19.9319 44.214 19.3599 43.642C18.7879 43.07 18.5012 42.3556 18.5 41.4989V36.999H20.3571V41.4989C20.3571 41.7849 20.476 42.0473 20.7137 42.2863C20.9514 42.5252 21.2133 42.6441 21.4993 42.6429H41.5007C41.7855 42.6429 42.0473 42.524 42.2863 42.2863C42.5252 42.0486 42.6441 41.7861 42.6429 41.4989V36.999H44.5V41.4989C44.5 42.3544 44.214 43.0681 43.642 43.6401C43.07 44.2121 42.3556 44.4988 41.4989 44.5H21.5011Z" fill="#B80DFB"/>
</svg>
