<svg width="36" height="36" viewBox="0 0 36 36" fill="none" xmlns="http://www.w3.org/2000/svg">
<path d="M28.125 3.65625H10.125C9.60286 3.65625 9.1021 3.86367 8.73288 4.23288C8.36367 4.6021 8.15625 5.10286 8.15625 5.625V9.28125H5.625C5.10286 9.28125 4.6021 9.48867 4.23288 9.85788C3.86367 10.2271 3.65625 10.7279 3.65625 11.25V24.75C3.65625 25.2721 3.86367 25.7729 4.23288 26.1421C4.6021 26.5113 5.10286 26.7188 5.625 26.7188H8.15625V30.375C8.15625 30.8971 8.36367 31.3979 8.73288 31.7671C9.1021 32.1363 9.60286 32.3438 10.125 32.3438H28.125C28.6471 32.3438 29.1479 32.1363 29.5171 31.7671C29.8863 31.3979 30.0938 30.8971 30.0938 30.375V5.625C30.0938 5.10286 29.8863 4.6021 29.5171 4.23288C29.1479 3.86367 28.6471 3.65625 28.125 3.65625ZM22.2188 14.3438H28.4062V21.6562H22.2188V14.3438ZM9.84375 5.625C9.84375 5.55041 9.87338 5.47887 9.92613 5.42613C9.97887 5.37338 10.0504 5.34375 10.125 5.34375H28.125C28.1996 5.34375 28.2711 5.37338 28.3239 5.42613C28.3766 5.47887 28.4062 5.55041 28.4062 5.625V12.6562H22.2188V11.25C22.2188 10.7279 22.0113 10.2271 21.6421 9.85788C21.2729 9.48867 20.7721 9.28125 20.25 9.28125H9.84375V5.625ZM5.34375 24.75V11.25C5.34375 11.1754 5.37338 11.1039 5.42613 11.0511C5.47887 10.9984 5.55041 10.9688 5.625 10.9688H20.25C20.3246 10.9688 20.3961 10.9984 20.4489 11.0511C20.5016 11.1039 20.5312 11.1754 20.5312 11.25V24.75C20.5312 24.8246 20.5016 24.8961 20.4489 24.9489C20.3961 25.0016 20.3246 25.0312 20.25 25.0312H5.625C5.55041 25.0312 5.47887 25.0016 5.42613 24.9489C5.37338 24.8961 5.34375 24.8246 5.34375 24.75ZM28.125 30.6562H10.125C10.0504 30.6562 9.97887 30.6266 9.92613 30.5739C9.87338 30.5211 9.84375 30.4496 9.84375 30.375V26.7188H20.25C20.7721 26.7188 21.2729 26.5113 21.6421 26.1421C22.0113 25.7729 22.2188 25.2721 22.2188 24.75V23.3438H28.4062V30.375C28.4062 30.4496 28.3766 30.5211 28.3239 30.5739C28.2711 30.6266 28.1996 30.6562 28.125 30.6562ZM9.86906 21.5803L8.18156 14.8303C8.1546 14.7228 8.14907 14.6111 8.16529 14.5015C8.18151 14.3919 8.21917 14.2865 8.2761 14.1915C8.33303 14.0964 8.40813 14.0135 8.49711 13.9474C8.58609 13.8814 8.68721 13.8335 8.79469 13.8066C8.90217 13.7796 9.0139 13.7741 9.12352 13.7903C9.23313 13.8065 9.33848 13.8442 9.43354 13.9011C9.52861 13.958 9.61153 14.0331 9.67757 14.1221C9.74361 14.2111 9.79148 14.3122 9.81844 14.4197L10.9533 18.9577L12.1823 16.4981C12.2523 16.3577 12.3601 16.2396 12.4935 16.157C12.6268 16.0745 12.7806 16.0307 12.9375 16.0307C13.0944 16.0307 13.2482 16.0745 13.3815 16.157C13.5149 16.2396 13.6227 16.3577 13.6927 16.4981L14.9217 18.9577L16.0566 14.4197C16.0835 14.3122 16.1314 14.2111 16.1974 14.1221C16.2635 14.0331 16.3464 13.958 16.4415 13.9011C16.5365 13.8442 16.6419 13.8065 16.7515 13.7903C16.8611 13.7741 16.9728 13.7796 17.0803 13.8066C17.1878 13.8335 17.2889 13.8814 17.3779 13.9474C17.4669 14.0135 17.542 14.0964 17.5989 14.1915C17.6558 14.2865 17.6935 14.3919 17.7097 14.5015C17.7259 14.6111 17.7204 14.7228 17.6934 14.8303L16.0059 21.5803C15.9639 21.7474 15.8716 21.8976 15.7417 22.0107C15.6117 22.1239 15.4502 22.1945 15.2789 22.2131C15.2485 22.2151 15.2179 22.2151 15.1875 22.2131C15.0307 22.2132 14.8769 22.1695 14.7435 22.087C14.6102 22.0046 14.5024 21.8866 14.4323 21.7463L12.9375 18.7622L11.4427 21.7519C11.3657 21.9062 11.2433 22.0333 11.092 22.1159C10.9406 22.1986 10.7675 22.2329 10.5961 22.2142C10.4247 22.1955 10.2631 22.1247 10.1331 22.0114C10.0031 21.8981 9.91094 21.7476 9.86906 21.5803Z" fill="#B80DFB"/>
</svg>
