<svg width="63" height="63" viewBox="0 0 63 63" fill="none" xmlns="http://www.w3.org/2000/svg">
<rect x="0.5" y="0.5" width="62" height="62" rx="8" fill="#FE4444" fill-opacity="0.06"/>
<rect x="0.5" y="0.5" width="62" height="62" rx="8" stroke="#FE4444" stroke-opacity="0.5"/>
<path d="M30.5723 33.4708V41.1598C30.5723 41.4214 30.6608 41.6396 30.8379 41.8143C31.0149 41.9891 31.236 42.0765 31.5009 42.0765C31.7659 42.0765 31.9869 41.9891 32.164 41.8143C32.341 41.6396 32.4296 41.4214 32.4296 41.1598V33.4708L35.6724 36.6718C35.7628 36.7611 35.8643 36.8283 35.977 36.8735C36.0909 36.9175 36.2042 36.9383 36.3168 36.9358C36.4295 36.9322 36.5471 36.9077 36.6697 36.8625C36.7911 36.8185 36.8963 36.7513 36.9855 36.6608C37.1836 36.4592 37.2845 36.2434 37.2882 36.0137C37.2919 35.7827 37.1916 35.5663 36.9873 35.3647L32.5503 30.9848C32.3893 30.8259 32.224 30.7141 32.0544 30.6493C31.886 30.5846 31.7015 30.5522 31.5009 30.5522C31.3003 30.5522 31.1159 30.5846 30.9475 30.6493C30.7791 30.7141 30.6138 30.8259 30.4516 30.9848L26.0145 35.3647C25.8338 35.5431 25.739 35.7533 25.7304 35.9953C25.7217 36.2373 25.8201 36.4598 26.0257 36.6627C26.23 36.857 26.4491 36.956 26.6832 36.9597C26.9172 36.9633 27.1357 36.8643 27.3388 36.6627L30.5723 33.4708ZM21.5014 48C20.6458 48 19.932 47.7177 19.3599 47.153C18.7879 46.5883 18.5012 45.8837 18.5 45.0392V17.9608C18.5 17.1175 18.7866 16.4135 19.3599 15.8488C19.9332 15.2842 20.647 15.0012 21.5014 15H34.8979C35.2978 15 35.6866 15.0794 36.0643 15.2383C36.4419 15.3972 36.7651 15.6105 37.0338 15.8782L43.6104 22.37C43.8791 22.6364 44.0945 22.9554 44.2567 23.327C44.4189 23.6986 44.5 24.0823 44.5 24.4783V45.0373C44.5 45.8807 44.2134 46.5853 43.6401 47.1512C43.0668 47.7171 42.3542 48 41.5024 48H21.5014ZM35.2155 22.6853V16.8333H21.5014C21.2153 16.8333 20.9528 16.9507 20.7139 17.1853C20.4749 17.42 20.356 17.6785 20.3573 17.9608V45.0392C20.3573 45.3203 20.4761 45.5788 20.7139 45.8147C20.9516 46.0506 21.2135 46.1679 21.4995 46.1667H41.5024C41.7871 46.1667 42.049 46.0493 42.288 45.8147C42.527 45.58 42.6458 45.3209 42.6446 45.0373V24.1667H36.7162C36.284 24.1667 35.9262 24.0261 35.6427 23.745C35.3591 23.4639 35.2167 23.1107 35.2155 22.6853Z" fill="#FE4444"/>
</svg>
