<svg width="63" height="63" viewBox="0 0 63 63" fill="none" xmlns="http://www.w3.org/2000/svg">
<rect x="0.5" y="0.5" width="62" height="62" rx="8" fill="#EFF5FF"/>
<rect x="0.5" y="0.5" width="62" height="62" rx="8" stroke="#1B95F8" stroke-opacity="0.5"/>
<path d="M41.8158 44C40.9335 44 40.1545 43.7245 39.4785 43.1735C38.8026 42.6225 38.3826 41.9176 38.2185 41.0588H30.0263C28.5939 41.0588 27.3761 40.5583 26.3731 39.5574C25.37 38.5564 24.8684 37.3412 24.8684 35.9118C24.8684 34.4824 25.37 33.2672 26.3731 32.2662C27.3761 31.2652 28.5939 30.7647 30.0263 30.7647H32.9737C33.9866 30.7647 34.8541 30.4044 35.5762 29.6838C36.2973 28.9623 36.6579 28.0951 36.6579 27.0824C36.6579 26.0696 36.2973 25.2049 35.5762 24.4882C34.8551 23.7716 33.9876 23.4127 32.9737 23.4118H24.78C24.613 24.2696 24.1925 24.9745 23.5185 25.5265C22.8446 26.0784 22.0665 26.3539 21.1842 26.3529C20.1605 26.3529 19.291 25.9961 18.5758 25.2824C17.8586 24.5676 17.5 23.7 17.5 22.6794C17.5 21.6588 17.8586 20.7907 18.5758 20.075C19.293 19.3593 20.1625 19.001 21.1842 19C22.0665 19 22.8446 19.276 23.5185 19.8279C24.1915 20.3789 24.6125 21.0833 24.7815 21.9412H32.9737C34.4061 21.9412 35.6239 22.4417 36.6269 23.4426C37.63 24.4436 38.1316 25.6588 38.1316 27.0882C38.1316 28.5176 37.63 29.7328 36.6269 30.7338C35.6239 31.7348 34.4061 32.2353 32.9737 32.2353H30.0263C29.0134 32.2353 28.1459 32.5961 27.4238 33.3176C26.7027 34.0382 26.3421 34.9049 26.3421 35.9176C26.3421 36.9304 26.7032 37.7951 27.4253 38.5118C28.1464 39.2294 29.0134 39.5882 30.0263 39.5882H38.22C38.387 38.7304 38.8075 38.026 39.4815 37.475C40.1554 36.924 40.9335 36.648 41.8158 36.6471C42.8395 36.6471 43.709 37.0044 44.4242 37.7191C45.1414 38.4328 45.5 39.3 45.5 40.3206C45.5 41.3412 45.1414 42.2093 44.4242 42.925C43.707 43.6407 42.8375 43.999 41.8158 44ZM21.1842 24.8824C21.7904 24.8824 22.3106 24.6662 22.7448 24.2338C23.1781 23.8005 23.3947 23.2814 23.3947 22.6765C23.3947 22.0716 23.1781 21.5525 22.7448 21.1191C22.3106 20.6868 21.7904 20.4706 21.1842 20.4706C20.578 20.4706 20.0578 20.6868 19.6236 21.1191C19.1903 21.5525 18.9737 22.0716 18.9737 22.6765C18.9737 23.2814 19.1903 23.8005 19.6236 24.2338C20.0578 24.6662 20.578 24.8824 21.1842 24.8824Z" fill="#1B95F8"/>
</svg>
