<svg width="63" height="63" viewBox="0 0 63 63" fill="none" xmlns="http://www.w3.org/2000/svg">
<rect x="0.5" y="0.5" width="62" height="62" rx="8" fill="#6D53E6" fill-opacity="0.1"/>
<rect x="0.5" y="0.5" width="62" height="62" rx="8" stroke="#6D53E6" stroke-opacity="0.5"/>
<path d="M19.1146 25.5662V25.5569L19.1332 25.4763C19.1539 25.3895 19.1931 25.2634 19.251 25.0981C19.3688 24.7695 19.5703 24.3355 19.8896 23.9046C20.4941 23.0986 21.5946 22.1996 23.7801 22.1996C25.7548 22.1996 26.9979 22.8475 27.7016 23.7403C28.4177 24.6517 28.7959 26.1025 28.4456 28.1361C28.241 29.3327 27.6427 30.0457 26.7034 30.6471C25.9377 31.1431 25.0728 31.4934 24.0436 31.9119C23.6323 32.0772 23.1932 32.2601 22.7261 32.4606C21.2009 33.1178 19.4804 33.9951 18.1691 35.5637C16.8237 37.1757 16.0394 39.3488 16.0394 42.3496C16.0394 42.7607 16.2027 43.1549 16.4934 43.4456C16.7841 43.7363 17.1783 43.8996 17.5894 43.8996H29.9708C30.3819 43.8996 30.7762 43.7363 31.0668 43.4456C31.3575 43.1549 31.5208 42.7607 31.5208 42.3496C31.5208 41.9385 31.3575 41.5443 31.0668 41.2536C30.7762 40.9629 30.3819 40.7996 29.9708 40.7996H19.2324C19.437 39.2806 19.9392 38.2793 20.5437 37.5539C21.3714 36.5619 22.5277 35.9202 23.9506 35.3064C24.2689 35.17 24.6078 35.0295 24.9674 34.8848C26.0865 34.4322 27.3482 33.9207 28.3774 33.2573C29.8685 32.2963 31.1147 30.9013 31.4991 28.6631C31.9455 26.0467 31.5487 23.6225 30.1351 21.8214C28.6967 20.0017 26.4461 19.0996 23.7801 19.0996C20.5437 19.0996 18.5535 20.5256 17.4127 22.0446C16.7729 22.906 16.319 23.8909 16.0797 24.9369L16.0704 25.0051L16.0642 25.0268V25.0485C15.9278 25.8483 16.0487 25.126 16.0642 25.0485C16.0225 25.4407 16.1319 25.8341 16.37 26.1485C16.6082 26.4629 16.9573 26.6746 17.3462 26.7406C17.735 26.8066 18.1344 26.7219 18.463 26.5037C18.7916 26.2855 19.0246 25.9502 19.1146 25.5662ZM37.2589 31.9522C37.1148 31.8085 36.9438 31.6946 36.7557 31.617C36.5675 31.5394 36.3659 31.4996 36.1624 31.4998C35.9589 31.5001 35.7574 31.5405 35.5695 31.6187C35.3816 31.6968 35.2109 31.8112 35.0672 31.9553C34.9235 32.0994 34.8096 32.2704 34.732 32.4586C34.6544 32.6467 34.6146 32.8483 34.6148 33.0518C34.6151 33.2553 34.6555 33.4568 34.7337 33.6447C34.8118 33.8326 34.9262 34.0033 35.0703 34.147L38.6198 37.6996L35.0703 41.2522C34.7875 41.5441 34.6307 41.9355 34.6337 42.3419C34.6366 42.7483 34.7991 43.1373 35.0861 43.4251C35.373 43.7129 35.7616 43.8765 36.168 43.8806C36.5744 43.8847 36.9662 43.729 37.2589 43.447L40.8084 39.8913L44.3579 43.447C44.649 43.7372 45.0434 43.9 45.4544 43.8994C45.8654 43.8988 46.2594 43.735 46.5496 43.4439C46.8398 43.1529 47.0026 42.7584 47.002 42.3474C47.0014 41.9364 46.8376 41.5424 46.5465 41.2522L42.997 37.6996L46.5465 34.147C46.8293 33.8551 46.9861 33.4638 46.9832 33.0573C46.9802 32.6509 46.8178 32.2619 46.5308 31.9741C46.2438 31.6863 45.8552 31.5227 45.4488 31.5186C45.0424 31.5146 44.6506 31.6702 44.3579 31.9522L40.8084 35.5079L37.2589 31.9522Z" fill="#6D53E6"/>
</svg>
