<svg width="46" height="46" viewBox="0 0 46 46" fill="none" xmlns="http://www.w3.org/2000/svg">
<path fill-rule="evenodd" clip-rule="evenodd" d="M40.25 12.9375V40.25C40.25 41.775 39.6442 43.2375 38.5659 44.3159C37.4875 45.3942 36.025 46 34.5 46H31.625V43.125H34.5C35.2625 43.125 35.9938 42.8221 36.5329 42.2829C37.0721 41.7438 37.375 41.0125 37.375 40.25V12.9375H31.625C30.4813 12.9375 29.3844 12.4831 28.5756 11.6744C27.7669 10.8656 27.3125 9.76875 27.3125 8.625V2.875H11.5C10.7375 2.875 10.0062 3.1779 9.46707 3.71707C8.9279 4.25624 8.625 4.9875 8.625 5.75V31.625H5.75V5.75C5.75 4.22501 6.3558 2.76247 7.43414 1.68414C8.51247 0.605802 9.97501 0 11.5 0L27.3125 0L40.25 12.9375ZM4.6 34.0688H0V45.5659H2.27413V41.7076H4.58275C5.40692 41.7076 6.10842 41.5418 6.68725 41.2103C7.27183 40.8748 7.71554 40.4206 8.01838 39.8475C8.33402 39.248 8.49323 38.5785 8.48125 37.9011C8.48125 37.1824 8.32983 36.5336 8.027 35.9548C7.72362 35.3826 7.26531 34.9073 6.7045 34.5834C6.1295 34.2384 5.428 34.0668 4.6 34.0688ZM6.16687 37.9011C6.17664 38.2799 6.09269 38.6551 5.9225 38.9936C5.76989 39.2886 5.53127 39.5302 5.23825 39.6865C4.90333 39.8514 4.53331 39.9323 4.16013 39.9222H2.2655V35.88H4.163C4.78975 35.88 5.28042 36.0535 5.635 36.4004C5.98958 36.7511 6.16687 37.2514 6.16687 37.9011ZM9.66575 34.0688V45.5659H13.8632C15.0171 45.5659 15.9735 45.3388 16.7325 44.8845C17.5006 44.425 18.1004 43.7304 18.4431 42.9036C18.8188 42.0411 19.0066 41.0023 19.0066 39.7871C19.0066 38.5796 18.8188 37.5494 18.4431 36.6965C18.1037 35.8796 17.5098 35.194 16.7498 34.7415C15.9908 34.293 15.0276 34.0688 13.8604 34.0688H9.66575ZM11.9399 35.9231H13.5585C14.2696 35.9231 14.8532 36.0688 15.3094 36.3601C15.7824 36.672 16.1399 37.1306 16.3271 37.6654C16.5533 38.2442 16.6664 38.9658 16.6664 39.8302C16.6753 40.4037 16.6096 40.9758 16.4709 41.5322C16.3717 41.9722 16.1796 42.3859 15.9074 42.7455C15.6572 43.0679 15.3258 43.318 14.9471 43.47C14.5034 43.6359 14.0321 43.7159 13.5585 43.7057H11.9399V35.9231ZM22.701 40.9918V45.5659H20.4298V34.0688H27.7553V35.9461H22.701V39.1575H27.3182V40.9918H22.701Z" fill="#212121" fill-opacity="0.5"/>
</svg>
