<svg width="63" height="63" viewBox="0 0 63 63" fill="none" xmlns="http://www.w3.org/2000/svg">
<rect x="0.5" y="0.5" width="62" height="62" rx="8" fill="#2EB3B3" fill-opacity="0.06"/>
<rect x="0.5" y="0.5" width="62" height="62" rx="8" stroke="#2EB3B3" stroke-opacity="0.5"/>
<path d="M30.2096 40.7399V18.3941L24.1905 24.4133L22.3615 22.5584L31.5013 13.416L40.6437 22.5584L38.8147 24.4159L32.793 18.3941V40.7399H30.2096ZM17.5926 49.5827C16.4026 49.5827 15.4097 49.1849 14.6141 48.3892C13.8184 47.5935 13.4197 46.5998 13.418 45.408V39.1486H16.0013V45.408C16.0013 45.8059 16.1666 46.171 16.4973 46.5034C16.828 46.8357 17.1922 47.0011 17.5901 46.9994H45.4126C45.8087 46.9994 46.1729 46.834 46.5053 46.5034C46.8377 46.1727 47.003 45.8076 47.0013 45.408V39.1486H49.5846V45.408C49.5846 46.5981 49.1868 47.5909 48.3911 48.3866C47.5955 49.1823 46.6017 49.581 45.41 49.5827H17.5926Z" fill="#2EB3B3"/>
</svg>
