<svg width="186" height="152" viewBox="0 0 186 152" fill="none" xmlns="http://www.w3.org/2000/svg">
<path d="M92.4683 54.9406C93.9626 54.9406 95.2006 55.3892 96.587 56.6339L123.776 82.8511C124.963 84.0351 125.675 85.3 125.675 87.0407C125.675 90.279 123.303 92.5728 119.984 92.5728C118.399 92.5728 116.742 91.942 115.633 90.6771L103.62 77.9531L98.2433 72.3399L98.7965 84.1194V145.048C98.7965 148.37 95.8719 151.136 92.4716 151.136C89.0748 151.136 86.2277 148.37 86.2277 145.048V84.116L86.7 72.3366L81.3263 77.9497L69.3849 90.6771C68.8467 91.2753 68.1886 91.7536 67.4535 92.0808C66.7183 92.408 65.9224 92.5768 65.1177 92.5762C61.7984 92.5762 59.3494 90.2824 59.3494 87.0407C59.3494 85.3 59.9802 84.0385 61.1643 82.8511L87.8874 57.0792C89.4694 55.4938 90.8896 54.9406 92.475 54.9406M108.454 0C137.151 0 160.413 23.2621 160.413 51.9552C160.413 53.5879 160.339 55.2014 160.19 56.7959C174.705 60.2164 185.51 73.2575 185.51 88.815C185.51 106.983 170.782 121.711 152.614 121.711H114.664V109.061H152.607C155.266 109.062 157.899 108.539 160.356 107.522C162.813 106.505 165.045 105.014 166.925 103.133C168.806 101.253 170.297 99.0208 171.314 96.564C172.331 94.1072 172.854 91.4741 172.853 88.815C172.853 84.2572 171.315 79.8328 168.489 76.2568C165.663 72.6809 161.713 70.1624 157.279 69.1083L146.572 66.5851L147.584 55.6321C147.697 54.4177 147.753 53.1921 147.753 51.9552C147.753 30.2482 130.158 12.6498 108.447 12.6498C101.892 12.6449 95.4394 14.2815 89.6786 17.4103C83.9177 20.539 79.032 25.0604 75.4669 30.5619L70.3227 38.4689L61.2789 35.7972C58.8242 35.07 56.2359 34.9118 53.7108 35.3347C51.1858 35.7576 48.7903 36.7505 46.7065 38.238C44.6226 39.7254 42.9052 41.6682 41.6847 43.9189C40.4643 46.1695 39.7728 48.6687 39.663 51.2266L39.6495 52.215L39.9632 62.8408L29.8535 65.1717C24.9612 66.3098 20.5981 69.0701 17.4744 73.0036C14.3506 76.937 12.6502 81.812 12.6498 86.8349C12.6498 92.7306 14.9919 98.3849 19.1608 102.554C23.3297 106.723 28.9839 109.065 34.8797 109.065H70.8118V121.715H34.8797C15.6183 121.715 0 106.096 0 86.8349C0 70.2789 11.5366 56.4147 27.0098 52.8458L26.9963 51.9552C26.9951 47.3657 28.0648 42.8393 30.1205 38.7359C32.1761 34.6326 35.1609 31.0655 38.8375 28.3185C42.5141 25.5714 46.7809 23.7202 51.2987 22.9121C55.8165 22.104 60.4605 22.3613 64.8614 23.6635C74.1278 9.41819 90.1879 0 108.447 0" fill="black" fill-opacity="0.4"/>
</svg>
